<svg cache-id="ded761fbf6784bddb758497d93b17589" id="emjSaVDW3zs1" xmlns="http://www.w3.org/2000/svg" xmlns:xlink="http://www.w3.org/1999/xlink" viewBox="0 0 617.7 617.6" shape-rendering="geometricPrecision" text-rendering="geometricPrecision"><defs><radialGradient id="emjSaVDW3zs28-fill" cx="0" cy="0" r="778.3618" spreadMethod="pad" gradientUnits="userSpaceOnUse" gradientTransform="matrix(-0.832 -0.5547 0.5547 -0.832 293.262107 330.640305)"><stop id="emjSaVDW3zs28-fill-0" offset="0%" stop-color="#fff"></stop><stop id="emjSaVDW3zs28-fill-1" offset="20.19%" stop-color="#ecedf4"></stop><stop id="emjSaVDW3zs28-fill-2" offset="60.84%" stop-color="#bcc0d6"></stop><stop id="emjSaVDW3zs28-fill-3" offset="100%" stop-color="#878fb7"></stop></radialGradient><radialGradient id="emjSaVDW3zs31-fill" cx="0" cy="0" r="119.2015" spreadMethod="pad" gradientUnits="userSpaceOnUse" gradientTransform="matrix(0.5033 -0.8641 0.3749 0.2184 192.703294 483.325171)"><stop id="emjSaVDW3zs31-fill-0" offset="0%" stop-color="#c7feff"></stop><stop id="emjSaVDW3zs31-fill-1" offset="15.58%" stop-color="#bdebff"></stop><stop id="emjSaVDW3zs31-fill-2" offset="46.08%" stop-color="#a4bcff"></stop><stop id="emjSaVDW3zs31-fill-3" offset="97.07%" stop-color="#637bff"></stop></radialGradient><linearGradient id="emjSaVDW3zs32-fill" x1="256.731515" y1="448.213578" x2="164.769167" y2="471.593193" spreadMethod="pad" gradientUnits="userSpaceOnUse" gradientTransform="translate(0 0)"><stop id="emjSaVDW3zs32-fill-0" offset="0%" stop-color="#687ac0"></stop><stop id="emjSaVDW3zs32-fill-1" offset="0%" stop-color="#6d7ec2"></stop><stop id="emjSaVDW3zs32-fill-2" offset="49.93%" stop-color="#bbc3e3"></stop><stop id="emjSaVDW3zs32-fill-3" offset="83.46%" stop-color="#eceef7"></stop><stop id="emjSaVDW3zs32-fill-4" offset="100%" stop-color="#fff"></stop></linearGradient><radialGradient id="emjSaVDW3zs36-fill" cx="0" cy="0" r="58.3645" spreadMethod="pad" gradientUnits="userSpaceOnUse" gradientTransform="translate(274.094 371.6783)"><stop id="emjSaVDW3zs36-fill-0" offset="0%" stop-color="#fff"></stop><stop id="emjSaVDW3zs36-fill-1" offset="100%" stop-color="#bfc1ff"></stop></radialGradient><radialGradient id="emjSaVDW3zs39-fill" cx="0" cy="0" r="107.5785" spreadMethod="pad" gradientUnits="userSpaceOnUse" gradientTransform="translate(286.6972 397.2797)"><stop id="emjSaVDW3zs39-fill-0" offset="0%" stop-color="#c7feff"></stop><stop id="emjSaVDW3zs39-fill-1" offset="26.72%" stop-color="#bdebff"></stop><stop id="emjSaVDW3zs39-fill-2" offset="79.05%" stop-color="#a4bcff"></stop><stop id="emjSaVDW3zs39-fill-3" offset="97.07%" stop-color="#637bff"></stop></radialGradient><linearGradient id="emjSaVDW3zs41-fill" x1="372.739366" y1="481.718841" x2="346.788768" y2="368.014402" spreadMethod="pad" gradientUnits="userSpaceOnUse" gradientTransform="translate(0 0)"><stop id="emjSaVDW3zs41-fill-0" offset="0%" stop-color="#fff"></stop><stop id="emjSaVDW3zs41-fill-1" offset="27.73%" stop-color="#ecefff"></stop><stop id="emjSaVDW3zs41-fill-2" offset="83.63%" stop-color="#bbc7ff"></stop><stop id="emjSaVDW3zs41-fill-3" offset="100%" stop-color="#acbaff"></stop></linearGradient><linearGradient id="emjSaVDW3zs42-fill" x1="389.086762" y1="378.383694" x2="371.291153" y2="378.909158" spreadMethod="pad" gradientUnits="userSpaceOnUse" gradientTransform="translate(0 0)"><stop id="emjSaVDW3zs42-fill-0" offset="0%" stop-color="#1b42e1"></stop><stop id="emjSaVDW3zs42-fill-1" offset="36.18%" stop-color="#1331ce"></stop><stop id="emjSaVDW3zs42-fill-2" offset="100%" stop-color="#000aa4"></stop></linearGradient><linearGradient id="emjSaVDW3zs43-fill" x1="279.917787" y1="489.73035" x2="257.351725" y2="390.855504" spreadMethod="pad" gradientUnits="userSpaceOnUse" gradientTransform="translate(0 0)"><stop id="emjSaVDW3zs43-fill-0" offset="0%" stop-color="#fff"></stop><stop id="emjSaVDW3zs43-fill-1" offset="27.73%" stop-color="#ecefff"></stop><stop id="emjSaVDW3zs43-fill-2" offset="83.63%" stop-color="#bbc7ff"></stop><stop id="emjSaVDW3zs43-fill-3" offset="100%" stop-color="#acbaff"></stop></linearGradient><linearGradient id="emjSaVDW3zs50-fill" x1="355.3972" y1="431.1756" x2="327.2759" y2="431.1756" spreadMethod="pad" gradientUnits="userSpaceOnUse" gradientTransform="translate(0 0)"><stop id="emjSaVDW3zs50-fill-0" offset="0%" stop-color="#c7feff"></stop><stop id="emjSaVDW3zs50-fill-1" offset="22.39%" stop-color="#bdebff"></stop><stop id="emjSaVDW3zs50-fill-2" offset="67.51%" stop-color="#a3baff"></stop><stop id="emjSaVDW3zs50-fill-3" offset="81.56%" stop-color="#9aaaff"></stop><stop id="emjSaVDW3zs50-fill-4" offset="98.6%" stop-color="#b6ffe6"></stop></linearGradient><radialGradient id="emjSaVDW3zs58-fill" cx="0" cy="0" r="156.0278" spreadMethod="pad" gradientUnits="userSpaceOnUse" gradientTransform="matrix(0.4472 0.8944 -0.2723 0.1362 395.476039 385.43079)"><stop id="emjSaVDW3zs58-fill-0" offset="0%" stop-color="#c7feff"></stop><stop id="emjSaVDW3zs58-fill-1" offset="13.39%" stop-color="#bdebff"></stop><stop id="emjSaVDW3zs58-fill-2" offset="39.62%" stop-color="#a4bcff"></stop><stop id="emjSaVDW3zs58-fill-3" offset="76.77%" stop-color="#637bff"></stop><stop id="emjSaVDW3zs58-fill-4" offset="100%" stop-color="#bff0ff"></stop></radialGradient><radialGradient id="emjSaVDW3zs61-fill" cx="0" cy="0" r="220.5377" spreadMethod="pad" gradientUnits="userSpaceOnUse" gradientTransform="translate(256.3638 192.3142)"><stop id="emjSaVDW3zs61-fill-0" offset="0%" stop-color="#c7feff"></stop><stop id="emjSaVDW3zs61-fill-1" offset="26.72%" stop-color="#bdebff"></stop><stop id="emjSaVDW3zs61-fill-2" offset="79.05%" stop-color="#a4bcff"></stop><stop id="emjSaVDW3zs61-fill-3" offset="97.07%" stop-color="#637bff"></stop></radialGradient><linearGradient id="emjSaVDW3zs62-fill" x1="279.478614" y1="324.351793" x2="290.540683" y2="206.938196" spreadMethod="pad" gradientUnits="userSpaceOnUse" gradientTransform="translate(0 0)"><stop id="emjSaVDW3zs62-fill-0" offset="0%" stop-color="#030fc6"></stop><stop id="emjSaVDW3zs62-fill-1" offset="24.24%" stop-color="#020fb3"></stop><stop id="emjSaVDW3zs62-fill-2" offset="73.07%" stop-color="#011082"></stop><stop id="emjSaVDW3zs62-fill-3" offset="100%" stop-color="#001165"></stop></linearGradient><radialGradient id="emjSaVDW3zs63-fill" cx="0" cy="0" r="62.1078" spreadMethod="pad" gradientUnits="userSpaceOnUse" gradientTransform="translate(230.1416 154.7587)"><stop id="emjSaVDW3zs63-fill-0" offset="0%" stop-color="#c7feff"></stop><stop id="emjSaVDW3zs63-fill-1" offset="27.45%" stop-color="#bdebff"></stop><stop id="emjSaVDW3zs63-fill-2" offset="82.77%" stop-color="#a3baff"></stop><stop id="emjSaVDW3zs63-fill-3" offset="100%" stop-color="#9aaaff"></stop></radialGradient><radialGradient id="emjSaVDW3zs64-fill" cx="0" cy="0" r="81.5419" spreadMethod="pad" gradientUnits="userSpaceOnUse" gradientTransform="translate(390.1416 168.5365)"><stop id="emjSaVDW3zs64-fill-0" offset="0%" stop-color="#c7feff"></stop><stop id="emjSaVDW3zs64-fill-1" offset="27.45%" stop-color="#bdebff"></stop><stop id="emjSaVDW3zs64-fill-2" offset="82.77%" stop-color="#a3baff"></stop><stop id="emjSaVDW3zs64-fill-3" offset="100%" stop-color="#9aaaff"></stop></radialGradient><linearGradient id="emjSaVDW3zs65-fill" x1="298.2077" y1="195.9477" x2="298.2077" y2="158.1869" spreadMethod="pad" gradientUnits="userSpaceOnUse" gradientTransform="translate(0 0)"><stop id="emjSaVDW3zs65-fill-0" offset="0%" stop-color="#bfc6ff"></stop><stop id="emjSaVDW3zs65-fill-1" offset="99.05%" stop-color="#acbaff"></stop><stop id="emjSaVDW3zs65-fill-2" offset="100%" stop-color="#acbaff"></stop></linearGradient></defs><g id="emjSaVDW3zs2" opacity="0.35" transform="matrix(0.347764 -0.937582 0.937582 0.347764 -88.180209 490.978148)"><g><path d="M239.7,462.5c.9-2.7-.1-5.8-2.6-7.4-3-2-7.1-1.2-9.1,1.8s-1.2,7.1,1.8,9.1c2.6,1.7,6,1.3,8.2-.8c43.4,20.8,93.7,22.1,138.5,3.6.5.7,1,1.3,1.7,1.7c3,2,7.1,1.2,9.1-1.8s1.2-7.1-1.8-9.1-7.1-1.2-9.1,1.8c-.9,1.3-1.2,2.9-1,4.4-43.7,18.2-93.1,17-135.7-3.3Zm-8,.8c-1.6-1-2-3.2-.9-4.7c1-1.6,3.2-2,4.7-.9c1.6,1,2,3.2.9,4.7-1.1,1.6-3.2,2-4.7.9Zm152.1-1c1.6,1,2,3.2.9,4.7-1,1.6-3.2,2-4.7.9-1.6-1-2-3.2-.9-4.7c1-1.6,3.2-2,4.7-.9Z" fill="#020fb5"></path><path d="M467.2,242.5c.6-.4,1.2-1,1.6-1.7c2-3,1.2-7.1-1.8-9.1s-7.1-1.2-9.1,1.8-1.2,7.1,1.8,9.1c1.4.9,3,1.2,4.5,1c23.3,52.7,18.2,112.6-13.8,160.5-7.7,11.6-16.9,22.1-27.1,31.4-.3-.3-.5-.5-.9-.7-3-2-7.1-1.2-9.1,1.8s-1.2,7.1,1.8,9.1s7.1,1.2,9.1-1.8c1.2-1.7,1.3-3.8.7-5.7c10.6-9.5,20-20.4,28-32.4c32.8-48.7,38-109.7,14.3-163.3Zm-5.7-2.5c-1.6-1-2-3.2-.9-4.7c1-1.6,3.2-2,4.7-.9c1.6,1,2,3.2.9,4.7-1,1.6-3.1,2-4.7.9ZM417.1,443.1c-1.6-1-2-3.2-.9-4.7c1-1.6,3.2-2,4.7-.9c1.6,1,2,3.2.9,4.7-1,1.6-3.1,2-4.7.9Z" fill="#020fb5"></path><path d="M132.5,359c-1,.5-1.9,1.2-2.5,2.2-2,3-1.2,7.1,1.8,9.1s7.1,1.2,9.1-1.8s1.2-7.1-1.8-9.1c-1.1-.7-2.3-1.1-3.5-1.1-13.5-50.6-4.6-104.4,24.4-147.9c3.8-5.7,7.9-11.1,12.2-16.3c2.8,1.1,6.1.1,7.8-2.5c2-3,1.2-7.1-1.8-9.1s-7.1-1.2-9.1,1.8c-1.7,2.5-1.4,5.7.5,7.9-4.4,5.2-8.5,10.7-12.3,16.4-29.4,44.3-38.5,99-24.8,150.4Zm4.8,3c1.6,1,2,3.2.9,4.7-1,1.6-3.2,2-4.7.9-1.6-1-2-3.2-.9-4.7c1-1.5,3.2-1.9,4.7-.9Zm34.4-175.9c1-1.6,3.2-2,4.7-.9c1.6,1,2,3.2.9,4.7-1,1.6-3.2,2-4.7.9-1.5-1-1.9-3.1-.9-4.7Z" fill="#020fb5"></path><path d="M114.9,277.1c-2,.1-4,1.1-5.2,2.9-2,3-1.2,7.1,1.8,9.1s7.1,1.2,9.1-1.8s1.2-7.1-1.8-9.1c-.3-.2-.5-.3-.8-.4c4.7-27,14.8-52.3,30.1-75.2c14.4-21.6,32.5-39.7,53.8-54c.2.2.4.4.7.5c3,2,7.1,1.2,9.1-1.8s1.2-7.1-1.8-9.1-7.1-1.2-9.1,1.8c-1.2,1.8-1.4,4.1-.6,6-21.6,14.5-40,33-54.6,54.9-15.6,23.1-25.9,48.8-30.7,76.2Zm3.1,8.4c-1,1.6-3.2,2-4.7.9-1.6-1-2-3.2-.9-4.7c1-1.6,3.2-2,4.7-.9c1.5,1,1.9,3.1.9,4.7Zm90-144.8c1.6,1,2,3.2.9,4.7-1,1.6-3.2,2-4.7.9-1.6-1-2-3.2-.9-4.7c1-1.5,3.2-1.9,4.7-.9Z" fill="#020fb5"></path><path d="M426.2,474.5c.2.1.3.3.5.4c3,2,7.1,1.2,9.1-1.8s1.2-7.1-1.8-9.1-7.1-1.2-9.1,1.8c-1.3,1.9-1.4,4.2-.6,6.2-39.4,27.7-87.3,39.9-135.3,34.4-.1-2-1.1-3.9-2.9-5.1-3-2-7.1-1.2-9.1,1.8s-1.2,7.1,1.8,9.1s7.1,1.2,9.1-1.8c.2-.3.3-.6.5-.9c48.9,5.6,97.7-6.8,137.8-35Zm6.1-7.8c1.6,1,2,3.2.9,4.7-1,1.6-3.2,2-4.7.9-1.6-1-2-3.2-.9-4.7c1-1.6,3.1-2,4.7-.9Zm-151.6,43c-1.6-1-2-3.2-.9-4.7c1-1.6,3.2-2,4.7-.9c1.6,1,2,3.2.9,4.7-1,1.5-3.1,1.9-4.7.9Z" fill="#020fb5"></path><path d="M435.6,125.1c-21.4-14.3-44.8-24.7-69.5-30.9.2-2.3-.8-4.6-2.9-6-3-2-7.1-1.2-9.1,1.8s-1.2,7.1,1.8,9.1s7.1,1.2,9.1-1.8c0,0,0-.1.1-.1c24.5,6.1,47.6,16.4,68.8,30.5c35.1,23.4,62.6,56.1,79.5,94.6-.7.5-1.3,1.1-1.9,1.8-2,3-1.2,7.1,1.8,9.1s7.1,1.2,9.1-1.8s1.2-7.1-1.8-9.1c-1.3-.9-2.8-1.2-4.2-1-17.2-39.1-45.1-72.4-80.8-96.2ZM357.7,96.6c-1.6-1-2-3.2-.9-4.7c1-1.6,3.2-2,4.7-.9c1.6,1,2,3.2.9,4.7-1,1.5-3.1,1.9-4.7.9ZM518.9,224.9c1.6,1,2,3.2.9,4.7-1,1.6-3.2,2-4.7.9-1.6-1-2-3.2-.9-4.7c1-1.5,3.1-1.9,4.7-.9Z" fill="#020fb5"></path><path d="M136.8,171.3c-2.8-1.1-6-.1-7.8,2.5-2,3-1.2,7.1,1.8,9.1s7.1,1.2,9.1-1.8c1.7-2.5,1.4-5.8-.5-7.9C170,135,213.1,107.9,260.9,96.6c.5,1,1.2,2,2.3,2.6c3,2,7.1,1.2,9.1-1.8s1.2-7.1-1.8-9.1-7.1-1.2-9.1,1.8c-.7,1-1,2.2-1.1,3.4-48.7,11.4-92.4,39-123.5,77.8Zm.5,8c-1,1.6-3.2,2-4.7.9-1.6-1-2-3.2-.9-4.7c1-1.6,3.2-2,4.7-.9c1.5,1,1.9,3.2.9,4.7ZM268.6,90.9c1.6,1,2,3.2.9,4.7-1,1.6-3.2,2-4.7.9-1.6-1-2-3.2-.9-4.7c1-1.5,3.1-1.9,4.7-.9Z" fill="#020fb5"></path><path d="M187.2,497.6c49,32.6,107.7,44.6,165.5,33.7.5.9,1.2,1.8,2.1,2.4c3,2,7.1,1.2,9.1-1.8s1.2-7.1-1.8-9.1-7.1-1.2-9.1,1.8c-.7,1.1-1.1,2.4-1.1,3.7C295,539,237.2,527.2,189,495c-20-13.3-37.5-29.6-52.1-48.5.1-.2.3-.3.4-.5c2-3,1.2-7.1-1.8-9.1s-7.1-1.2-9.1,1.8-1.2,7.1,1.8,9.1c1.9,1.3,4.2,1.4,6.2.6c14.8,19.2,32.6,35.7,52.8,49.2Zm173.2,27.9c1.6,1,2,3.2.9,4.7-1,1.6-3.2,2-4.7.9-1.6-1-2-3.2-.9-4.7c1-1.5,3.1-2,4.7-.9ZM130,445.3c-1.6-1-2-3.2-.9-4.7c1-1.6,3.2-2,4.7-.9c1.6,1,2,3.2.9,4.7s-3.2,2-4.7.9Z" fill="#020fb5"></path><path d="M434.7,512.8c-3-2-7.1-1.2-9.1,1.8-1.2,1.8-1.4,3.9-.7,5.8-77.5,42-170.9,38-244.4-10.4c1-2.8,0-5.9-2.5-7.6-3-2-7.1-1.2-9.1,1.8s-1.2,7.1,1.8,9.1c2.6,1.7,5.9,1.3,8-.6c74.6,49.1,169.3,53.1,247.8,10.4.2.2.5.5.8.6c3,2,7.1,1.2,9.1-1.8c2.2-3,1.3-7.1-1.7-9.1Zm-262.1-2.1c-1.6-1-2-3.2-.9-4.7c1-1.6,3.2-2,4.7-.9c1.6,1,2,3.2.9,4.7-1,1.5-3.2,1.9-4.7.9Zm256.6,10.4c-1.6-1-2-3.2-.9-4.7c1-1.6,3.2-2,4.7-.9c1.6,1,2,3.2.9,4.7-1,1.5-3.1,2-4.7.9Z" fill="#020fb5"></path><path d="M479,459.8c6.7-7.6,13-15.7,18.7-24.2c27.2-40.7,40-88,37.3-136.7c1.3-.5,2.4-1.3,3.2-2.5c2-3,1.2-7.1-1.8-9.1s-7.1-1.2-9.1,1.8-1.2,7.1,1.8,9.1c.9.6,1.8.9,2.8,1c2.7,48-10,94.5-36.7,134.6-5.6,8.4-11.8,16.4-18.4,23.9-2.9-1.6-6.6-.7-8.5,2.1-2,3-1.2,7.1,1.8,9.1s7.1,1.2,9.1-1.8c1.4-2.3,1.3-5.2-.2-7.3Zm50.8-168.9c1-1.6,3.2-2,4.7-.9c1.6,1,2,3.2.9,4.7-1,1.6-3.2,2-4.7.9-1.5-1-1.9-3.2-.9-4.7ZM471.7,466.3c-1.6-1-2-3.2-.9-4.7c1-1.6,3.2-2,4.7-.9c1.6,1,2,3.2.9,4.7-1,1.5-3.1,2-4.7.9Z" fill="#020fb5"></path><path d="M340.9,496.7c3,2,7.1,1.2,9.1-1.8s1.2-7.1-1.8-9.1-7.1-1.2-9.1,1.8c-.8,1.2-1.1,2.5-1.1,3.8-44.7,6.6-89.9-3.5-127.6-28.6-17.7-11.8-33.1-26.4-45.6-43.5.2-.2.4-.5.6-.8c2-3,1.2-7.1-1.8-9.1s-7.1-1.2-9.1,1.8-1.2,7.1,1.8,9.1c1.8,1.2,4,1.4,5.8.7c12.8,17.3,28.4,32.3,46.5,44.3c38.4,25.6,84.6,35.9,130.2,29c.6,1,1.2,1.8,2.1,2.4ZM158.1,417.9c-1.6-1-2-3.2-.9-4.7c1-1.6,3.2-2,4.7-.9c1.6,1,2,3.2.9,4.7-1,1.5-3.1,1.9-4.7.9Zm188.3,70.5c1.6,1,2,3.2.9,4.7-1,1.6-3.2,2-4.7.9-1.6-1-2-3.2-.9-4.7c1-1.5,3.2-1.9,4.7-.9Z" fill="#020fb5"></path><path d="M429,144.1c-2.6-1.7-5.9-1.3-8,.6-52.8-34.7-119.3-42.3-178.7-20.4-.5-.7-1.1-1.3-1.8-1.8-3-2-7.1-1.2-9.1,1.8s-1.2,7.1,1.8,9.1s7.1,1.2,9.1-1.8c.9-1.3,1.2-2.8,1-4.3c58.4-21.6,123.9-14.1,175.9,20-1,2.8,0,5.9,2.5,7.6c3,2,7.1,1.2,9.1-1.8s1.2-7-1.8-9ZM234.9,130.8c-1.6-1-2-3.2-.9-4.7c1-1.6,3.2-2,4.7-.9c1.6,1,2,3.2.9,4.7-1,1.5-3.1,1.9-4.7.9Zm188.5,21.5c-1.6-1-2-3.2-.9-4.7c1-1.6,3.2-2,4.7-.9c1.6,1,2,3.2.9,4.7-1,1.6-3.1,2-4.7.9Z" fill="#020fb5"></path><path d="M494.9,269.8c-1-.7-2.2-1-3.3-1.1-10.8-45.8-38.3-85.3-77.5-111.4-31.4-20.9-67.8-31.7-105.3-31.1-.4-1.4-1.3-2.7-2.6-3.6-3-2-7.1-1.2-9.1,1.8s-1.2,7.1,1.8,9.1s7.1,1.2,9.1-1.8c.5-.7.8-1.6,1-2.4c36.9-.5,72.6,10,103.4,30.6c38.5,25.7,65.5,64.5,76.1,109.4-1,.5-2,1.2-2.7,2.3-2,3-1.2,7.1,1.8,9.1s7.1,1.2,9.1-1.8s1.2-7.1-1.8-9.1ZM300.7,131c-1.6-1-2-3.2-.9-4.7c1-1.6,3.2-2,4.7-.9c1.6,1,2,3.2.9,4.7-1,1.5-3.1,1.9-4.7.9ZM489.4,278.1c-1.6-1-2-3.2-.9-4.7c1-1.6,3.2-2,4.7-.9c1.6,1,2,3.2.9,4.7-1,1.5-3.1,1.9-4.7.9Z" fill="#020fb5"></path><path d="M498,307c-3-2-7.1-1.2-9.1,1.8s-1.2,7.1,1.8,9.1c.8.5,1.7.9,2.6,1-1.3,33.3-11.8,65.6-30.4,93.5-22.3,33.4-54,57.9-91.9,71-.5-1-1.2-1.9-2.2-2.5-3-2-7.1-1.2-9.1,1.8s-1.2,7.1,1.8,9.1s7.1,1.2,9.1-1.8c.7-1.1,1-2.3,1.1-3.5c38.6-13.3,71-38.2,93.8-72.3c19-28.5,29.7-61.5,31-95.5c1.3-.4,2.5-1.3,3.4-2.5c1.9-3.1,1.1-7.2-1.9-9.2ZM363.3,489.1c-1.6-1-2-3.2-.9-4.7c1-1.6,3.2-2,4.7-.9c1.6,1,2,3.2.9,4.7-1,1.5-3.1,2-4.7.9ZM491.5,310.6c1-1.6,3.2-2,4.7-.9c1.6,1,2,3.2.9,4.7-1,1.6-3.2,2-4.7.9-1.5-1-1.9-3.2-.9-4.7Z" fill="#020fb5"></path><path d="M473,192.5c2-3,1.2-7.1-1.8-9.1s-7.1-1.2-9.1,1.8-1.2,7.1,1.8,9.1c1.7,1.2,3.8,1.3,5.6.7c48.5,66,50.9,155.6,5.9,224.1-2.8-1-5.9,0-7.6,2.5-2,3-1.2,7.1,1.8,9.1s7.1,1.2,9.1-1.8c1.7-2.6,1.3-5.9-.6-8c45.7-69.5,43.3-160.5-5.9-227.5.3-.3.6-.6.8-.9Zm3.2,234.7c-1,1.6-3.2,2-4.7.9-1.6-1-2-3.2-.9-4.7c1-1.6,3.2-2,4.7-.9s1.9,3.1.9,4.7ZM465.7,191.7c-1.6-1-2-3.2-.9-4.7c1-1.6,3.2-2,4.7-.9c1.6,1,2,3.2.9,4.7-1,1.5-3.2,1.9-4.7.9Z" fill="#020fb5"></path><path d="M539.3,254.1c1,.7,2.1,1,3.2,1.1c14.7,60.2,5.6,122.5-25.5,175.9-2.7-.9-5.9,0-7.6,2.5-2,3-1.2,7.1,1.8,9.1s7.1,1.2,9.1-1.8c1.7-2.6,1.3-5.9-.7-8.1c31.5-54.1,40.7-117.1,25.9-178.1c1.1-.5,2-1.3,2.7-2.3c2-3,1.2-7.1-1.8-9.1s-7.1-1.2-9.1,1.8c-1.8,2.9-1,7,2,9ZM517.8,439c-1,1.6-3.2,2-4.7.9-1.6-1-2-3.2-.9-4.7c1-1.6,3.2-2,4.7-.9c1.5,1,1.9,3.2.9,4.7Zm27-193.2c1.6,1,2,3.2.9,4.7s-3.2,2-4.7.9c-1.6-1-2-3.2-.9-4.7c1-1.5,3.1-2,4.7-.9Z" fill="#020fb5"></path><path d="M105.3,421.7c-1.6-1-3.4-1.3-5.1-.9-17.8-34.4-27-73-26.6-111.7c1.4-.4,2.7-1.3,3.6-2.6c2-3,1.2-7.1-1.8-9.1s-7.1-1.2-9.1,1.8-1.2,7.1,1.8,9.1c.7.5,1.5.8,2.4,1-.3,39.2,9,78.2,27,113-.4.4-.9.8-1.2,1.3-2,3-1.2,7.1,1.8,9.1s7.1,1.2,9.1-1.8c1.9-3.1,1.1-7.2-1.9-9.2ZM68.9,300.9c1-1.6,3.2-2,4.7-.9c1.6,1,2,3.2.9,4.7-1,1.6-3.2,2-4.7.9-1.6-1-2-3.1-.9-4.7ZM99.8,430c-1.6-1-2-3.2-.9-4.7c1-1.6,3.2-2,4.7-.9c1.6,1,2,3.2.9,4.7s-3.2,1.9-4.7.9Z" fill="#020fb5"></path><path d="M110.3,331.5c.9.6,1.8.9,2.8,1c6.3,59.1,38.2,111.8,87.7,144.8c10.2,6.8,21.1,12.7,32.3,17.5-.2,2.3.8,4.6,2.9,5.9c3,2,7.1,1.2,9.1-1.8s1.2-7.1-1.8-9.1-7.1-1.2-9.1,1.8c0,0,0,.1-.1.1-11-4.7-21.6-10.5-31.6-17.1-48.7-32.4-80.1-84.4-86.3-142.5c1.3-.5,2.4-1.3,3.2-2.5c2-3,1.2-7.1-1.8-9.1s-7.1-1.2-9.1,1.8c-2,3.2-1.2,7.2,1.8,9.2Zm131.2,161c1.6,1,2,3.2.9,4.7-1,1.6-3.2,2-4.7.9-1.6-1-2-3.2-.9-4.7c1-1.5,3.1-1.9,4.7-.9ZM115.9,323.2c1.6,1,2,3.2.9,4.7-1,1.6-3.2,2-4.7.9-1.6-1-2-3.2-.9-4.7c1-1.5,3.1-1.9,4.7-.9Z" fill="#020fb5"></path><path d="M162.8,218.3c-2,3-1.2,7.1,1.8,9.1s7.1,1.2,9.1-1.8c1.7-2.5,1.4-5.8-.6-8c51.2-75.4,153.8-96,230-46-1,2.8,0,5.9,2.5,7.6c3,2,7.1,1.2,9.1-1.8s1.2-7.1-1.8-9.1c-2.6-1.7-5.9-1.3-8,.6-77.7-50.9-182.2-30-234.3,46.9-2.9-1-6.1-.1-7.8,2.5Zm248.3-47.4c1.6,1,2,3.2.9,4.7-1,1.6-3.2,2-4.7.9-1.6-1-2-3.2-.9-4.7c1-1.6,3.1-2,4.7-.9ZM170.1,219c1.6,1,2,3.2.9,4.7-1,1.6-3.2,2-4.7.9-1.6-1-2-3.2-.9-4.7c1-1.5,3.1-1.9,4.7-.9Z" fill="#020fb5"></path><path d="M120.3,212.3c2-3,1.2-7.1-1.8-9.1s-7.1-1.2-9.1,1.8c-1.7,2.6-1.3,6,.8,8.2-26.5,54.2-29.8,117.6-9.2,174.6-.8.5-1.4,1.1-2,1.9-2,3-1.2,7.1,1.8,9.1s7.1,1.2,9.1-1.8s1.2-7.1-1.8-9.1c-1.3-.8-2.7-1.2-4.1-1-20.3-56.1-17.1-118.6,8.9-172c2.7.8,5.8-.1,7.4-2.6Zm-13,182.9c-1,1.6-3.2,2-4.7.9-1.6-1-2-3.2-.9-4.7c1-1.6,3.2-2,4.7-.9c1.6,1,2,3.1.9,4.7ZM113,211.5c-1.6-1-2-3.2-.9-4.7c1-1.6,3.2-2,4.7-.9c1.6,1,2,3.2.9,4.7-1,1.5-3.1,2-4.7.9Z" fill="#020fb5"></path><path d="M299.6,77.1c3,2,7.1,1.2,9.1-1.8.4-.6.6-1.2.8-1.8c44.7-.4,88.5,11.8,126.6,35.3-1,2.7,0,5.9,2.5,7.6c3,2,7.1,1.2,9.1-1.8s1.2-7.1-1.8-9.1c-2.6-1.7-5.9-1.3-8.1.7C399.2,82.4,354.9,70,309.6,70.4c-.3-1.6-1.3-3.1-2.8-4.1-3-2-7.1-1.2-9.1,1.8-1.9,3-1.1,7,1.9,9Zm144.5,31c1.6,1,2,3.2.9,4.7-1,1.6-3.2,2-4.7.9-1.6-1-2-3.2-.9-4.7c1-1.5,3.2-1.9,4.7-.9Zm-139-39.3c1.6,1,2,3.2.9,4.7-1,1.6-3.2,2-4.7.9-1.6-1-2-3.2-.9-4.7c1-1.5,3.1-1.9,4.7-.9Z" fill="#020fb5"></path><path d="M150.4,288.9c2-3,1.2-7.1-1.8-9.1s-7.1-1.2-9.1,1.8-1.2,7.1,1.8,9.1c.3.2.6.3.9.5-7,58.7,17.3,117.4,63.6,153.9-1.1,2.8-.1,6,2.5,7.8c3,2,7.1,1.2,9.1-1.8s1.2-7.1-1.8-9.1c-2.5-1.7-5.8-1.4-7.9.6-45.3-35.8-69.1-93.3-62.3-150.8c1.9-.2,3.8-1.2,5-2.9Zm63.4,155.7c1.6,1,2,3.2.9,4.7-1,1.6-3.2,2-4.7.9-1.6-1-2-3.2-.9-4.7c1-1.6,3.2-2,4.7-.9ZM142.2,283.3c1-1.6,3.2-2,4.7-.9c1.6,1,2,3.2.9,4.7-1,1.6-3.2,2-4.7.9-1.6-1-2-3.1-.9-4.7Z" fill="#020fb5"></path><path d="M152.7,130c-15.9,13.9-29.9,29.9-41.8,47.7-12.2,18.3-21.8,38-28.5,58.7-2.2-.1-4.4.9-5.7,2.9-2,3-1.2,7.1,1.8,9.1s7.1,1.2,9.1-1.8s1.2-7.1-1.8-9.1c-.1-.1-.2-.1-.3-.2c6.7-20.4,16.1-39.8,28.1-57.8c11.8-17.6,25.7-33.6,41.6-47.4c2.9,1.5,6.5.6,8.4-2.2c2-3,1.2-7.1-1.8-9.1s-7.1-1.2-9.1,1.8c-1.7,2.4-1.5,5.3,0,7.4ZM84.9,244.8c-1,1.6-3.2,2-4.7.9-1.6-1-2-3.2-.9-4.7c1-1.6,3.2-2,4.7-.9c1.5,1,2,3.1.9,4.7Zm75-121.4c1.6,1,2,3.2.9,4.7-1,1.6-3.2,2-4.7.9-1.6-1-2-3.2-.9-4.7c1-1.5,3.1-1.9,4.7-.9Z" fill="#020fb5"></path></g><g style="mix-blend-mode:color-dodge"><path d="M239.7,462.5c.9-2.7-.1-5.8-2.6-7.4-3-2-7.1-1.2-9.1,1.8s-1.2,7.1,1.8,9.1c2.6,1.7,6,1.3,8.2-.8c43.4,20.8,93.7,22.1,138.5,3.6.5.7,1,1.3,1.7,1.7c3,2,7.1,1.2,9.1-1.8s1.2-7.1-1.8-9.1-7.1-1.2-9.1,1.8c-.9,1.3-1.2,2.9-1,4.4-43.7,18.2-93.1,17-135.7-3.3Zm-8,.8c-1.6-1-2-3.2-.9-4.7c1-1.6,3.2-2,4.7-.9c1.6,1,2,3.2.9,4.7-1.1,1.6-3.2,2-4.7.9Zm152.1-1c1.6,1,2,3.2.9,4.7-1,1.6-3.2,2-4.7.9-1.6-1-2-3.2-.9-4.7c1-1.6,3.2-2,4.7-.9Zm83.4-219.8c.6-.4,1.2-1,1.6-1.7c2-3,1.2-7.1-1.8-9.1s-7.1-1.2-9.1,1.8-1.2,7.1,1.8,9.1c1.4.9,3,1.2,4.5,1c23.3,52.7,18.2,112.6-13.8,160.5-7.7,11.6-16.9,22.1-27.1,31.4-.3-.3-.5-.5-.9-.7-3-2-7.1-1.2-9.1,1.8s-1.2,7.1,1.8,9.1s7.1,1.2,9.1-1.8c1.2-1.7,1.3-3.8.7-5.7c10.6-9.5,20-20.4,28-32.4c32.8-48.7,38-109.7,14.3-163.3Zm-5.7-2.5c-1.6-1-2-3.2-.9-4.7c1-1.6,3.2-2,4.7-.9c1.6,1,2,3.2.9,4.7-1,1.6-3.1,2-4.7.9ZM417.1,443.1c-1.6-1-2-3.2-.9-4.7c1-1.6,3.2-2,4.7-.9c1.6,1,2,3.2.9,4.7-1,1.6-3.1,2-4.7.9ZM132.5,359c-1,.5-1.9,1.2-2.5,2.2-2,3-1.2,7.1,1.8,9.1s7.1,1.2,9.1-1.8s1.2-7.1-1.8-9.1c-1.1-.7-2.3-1.1-3.5-1.1-13.5-50.6-4.6-104.4,24.4-147.9c3.8-5.7,7.9-11.1,12.2-16.3c2.8,1.1,6.1.1,7.8-2.5c2-3,1.2-7.1-1.8-9.1s-7.1-1.2-9.1,1.8c-1.7,2.5-1.4,5.7.5,7.9-4.4,5.2-8.5,10.7-12.3,16.4-29.4,44.3-38.5,99-24.8,150.4Zm4.8,3c1.6,1,2,3.2.9,4.7-1,1.6-3.2,2-4.7.9-1.6-1-2-3.2-.9-4.7c1-1.5,3.2-1.9,4.7-.9Zm34.4-175.9c1-1.6,3.2-2,4.7-.9c1.6,1,2,3.2.9,4.7-1,1.6-3.2,2-4.7.9-1.5-1-1.9-3.1-.9-4.7Zm-56.8,91c-2,.1-4,1.1-5.2,2.9-2,3-1.2,7.1,1.8,9.1s7.1,1.2,9.1-1.8s1.2-7.1-1.8-9.1c-.3-.2-.5-.3-.8-.4c4.7-27,14.8-52.3,30.1-75.2c14.4-21.6,32.5-39.7,53.8-54c.2.2.4.4.7.5c3,2,7.1,1.2,9.1-1.8s1.2-7.1-1.8-9.1-7.1-1.2-9.1,1.8c-1.2,1.8-1.4,4.1-.6,6-21.6,14.5-40,33-54.6,54.9-15.6,23.1-25.9,48.8-30.7,76.2Zm3.1,8.4c-1,1.6-3.2,2-4.7.9-1.6-1-2-3.2-.9-4.7c1-1.6,3.2-2,4.7-.9c1.5,1,1.9,3.1.9,4.7Zm90-144.8c1.6,1,2,3.2.9,4.7-1,1.6-3.2,2-4.7.9-1.6-1-2-3.2-.9-4.7c1-1.5,3.2-1.9,4.7-.9ZM426.2,474.5c.2.1.3.3.5.4c3,2,7.1,1.2,9.1-1.8s1.2-7.1-1.8-9.1-7.1-1.2-9.1,1.8c-1.3,1.9-1.4,4.2-.6,6.2-39.4,27.7-87.3,39.9-135.3,34.4-.1-2-1.1-3.9-2.9-5.1-3-2-7.1-1.2-9.1,1.8s-1.2,7.1,1.8,9.1s7.1,1.2,9.1-1.8c.2-.3.3-.6.5-.9c48.9,5.6,97.7-6.8,137.8-35Zm6.1-7.8c1.6,1,2,3.2.9,4.7-1,1.6-3.2,2-4.7.9-1.6-1-2-3.2-.9-4.7c1-1.6,3.1-2,4.7-.9Zm-151.6,43c-1.6-1-2-3.2-.9-4.7c1-1.6,3.2-2,4.7-.9c1.6,1,2,3.2.9,4.7-1,1.5-3.1,1.9-4.7.9ZM435.6,125.1c-21.4-14.3-44.8-24.7-69.5-30.9.2-2.3-.8-4.6-2.9-6-3-2-7.1-1.2-9.1,1.8s-1.2,7.1,1.8,9.1s7.1,1.2,9.1-1.8c0,0,0-.1.1-.1c24.5,6.1,47.6,16.4,68.8,30.5c35.1,23.4,62.6,56.1,79.5,94.6-.7.5-1.3,1.1-1.9,1.8-2,3-1.2,7.1,1.8,9.1s7.1,1.2,9.1-1.8s1.2-7.1-1.8-9.1c-1.3-.9-2.8-1.2-4.2-1-17.2-39.1-45.1-72.4-80.8-96.2ZM357.7,96.6c-1.6-1-2-3.2-.9-4.7c1-1.6,3.2-2,4.7-.9c1.6,1,2,3.2.9,4.7-1,1.5-3.1,1.9-4.7.9ZM518.9,224.9c1.6,1,2,3.2.9,4.7-1,1.6-3.2,2-4.7.9-1.6-1-2-3.2-.9-4.7c1-1.5,3.1-1.9,4.7-.9ZM136.8,171.3c-2.8-1.1-6-.1-7.8,2.5-2,3-1.2,7.1,1.8,9.1s7.1,1.2,9.1-1.8c1.7-2.5,1.4-5.8-.5-7.9C170,135,213.1,107.9,260.9,96.6c.5,1,1.2,2,2.3,2.6c3,2,7.1,1.2,9.1-1.8s1.2-7.1-1.8-9.1-7.1-1.2-9.1,1.8c-.7,1-1,2.2-1.1,3.4-48.7,11.4-92.4,39-123.5,77.8Zm.5,8c-1,1.6-3.2,2-4.7.9-1.6-1-2-3.2-.9-4.7c1-1.6,3.2-2,4.7-.9c1.5,1,1.9,3.2.9,4.7ZM268.6,90.9c1.6,1,2,3.2.9,4.7-1,1.6-3.2,2-4.7.9-1.6-1-2-3.2-.9-4.7c1-1.5,3.1-1.9,4.7-.9ZM187.2,497.6c49,32.6,107.7,44.6,165.5,33.7.5.9,1.2,1.8,2.1,2.4c3,2,7.1,1.2,9.1-1.8s1.2-7.1-1.8-9.1-7.1-1.2-9.1,1.8c-.7,1.1-1.1,2.4-1.1,3.7C295,539,237.2,527.2,189,495c-20-13.3-37.5-29.6-52.1-48.5.1-.2.3-.3.4-.5c2-3,1.2-7.1-1.8-9.1s-7.1-1.2-9.1,1.8-1.2,7.1,1.8,9.1c1.9,1.3,4.2,1.4,6.2.6c14.8,19.2,32.6,35.7,52.8,49.2Zm173.2,27.9c1.6,1,2,3.2.9,4.7-1,1.6-3.2,2-4.7.9-1.6-1-2-3.2-.9-4.7c1-1.5,3.1-2,4.7-.9ZM130,445.3c-1.6-1-2-3.2-.9-4.7c1-1.6,3.2-2,4.7-.9c1.6,1,2,3.2.9,4.7s-3.2,2-4.7.9Zm304.7,67.5c-3-2-7.1-1.2-9.1,1.8-1.2,1.8-1.4,3.9-.7,5.8-77.5,42-170.9,38-244.4-10.4c1-2.8,0-5.9-2.5-7.6-3-2-7.1-1.2-9.1,1.8s-1.2,7.1,1.8,9.1c2.6,1.7,5.9,1.3,8-.6c74.6,49.1,169.3,53.1,247.8,10.4.2.2.5.5.8.6c3,2,7.1,1.2,9.1-1.8c2.2-3,1.3-7.1-1.7-9.1Zm-262.1-2.1c-1.6-1-2-3.2-.9-4.7c1-1.6,3.2-2,4.7-.9c1.6,1,2,3.2.9,4.7-1,1.5-3.2,1.9-4.7.9Zm256.6,10.4c-1.6-1-2-3.2-.9-4.7c1-1.6,3.2-2,4.7-.9c1.6,1,2,3.2.9,4.7-1,1.5-3.1,2-4.7.9ZM479,459.8c6.7-7.6,13-15.7,18.7-24.2c27.2-40.7,40-88,37.3-136.7c1.3-.5,2.4-1.3,3.2-2.5c2-3,1.2-7.1-1.8-9.1s-7.1-1.2-9.1,1.8-1.2,7.1,1.8,9.1c.9.6,1.8.9,2.8,1c2.7,48-10,94.5-36.7,134.6-5.6,8.4-11.8,16.4-18.4,23.9-2.9-1.6-6.6-.7-8.5,2.1-2,3-1.2,7.1,1.8,9.1s7.1,1.2,9.1-1.8c1.4-2.3,1.3-5.2-.2-7.3Zm50.8-168.9c1-1.6,3.2-2,4.7-.9c1.6,1,2,3.2.9,4.7-1,1.6-3.2,2-4.7.9-1.5-1-1.9-3.2-.9-4.7ZM471.7,466.3c-1.6-1-2-3.2-.9-4.7c1-1.6,3.2-2,4.7-.9c1.6,1,2,3.2.9,4.7-1,1.5-3.1,2-4.7.9ZM340.9,496.7c3,2,7.1,1.2,9.1-1.8s1.2-7.1-1.8-9.1-7.1-1.2-9.1,1.8c-.8,1.2-1.1,2.5-1.1,3.8-44.7,6.6-89.9-3.5-127.6-28.6-17.7-11.8-33.1-26.4-45.6-43.5.2-.2.4-.5.6-.8c2-3,1.2-7.1-1.8-9.1s-7.1-1.2-9.1,1.8-1.2,7.1,1.8,9.1c1.8,1.2,4,1.4,5.8.7c12.8,17.3,28.4,32.3,46.5,44.3c38.4,25.6,84.6,35.9,130.2,29c.6,1,1.2,1.8,2.1,2.4ZM158.1,417.9c-1.6-1-2-3.2-.9-4.7c1-1.6,3.2-2,4.7-.9c1.6,1,2,3.2.9,4.7-1,1.5-3.1,1.9-4.7.9Zm188.3,70.5c1.6,1,2,3.2.9,4.7-1,1.6-3.2,2-4.7.9-1.6-1-2-3.2-.9-4.7c1-1.5,3.2-1.9,4.7-.9ZM429,144.1c-2.6-1.7-5.9-1.3-8,.6-52.8-34.7-119.3-42.3-178.7-20.4-.5-.7-1.1-1.3-1.8-1.8-3-2-7.1-1.2-9.1,1.8s-1.2,7.1,1.8,9.1s7.1,1.2,9.1-1.8c.9-1.3,1.2-2.8,1-4.3c58.4-21.6,123.9-14.1,175.9,20-1,2.8,0,5.9,2.5,7.6c3,2,7.1,1.2,9.1-1.8s1.2-7-1.8-9ZM234.9,130.8c-1.6-1-2-3.2-.9-4.7c1-1.6,3.2-2,4.7-.9c1.6,1,2,3.2.9,4.7-1,1.5-3.1,1.9-4.7.9Zm188.5,21.5c-1.6-1-2-3.2-.9-4.7c1-1.6,3.2-2,4.7-.9c1.6,1,2,3.2.9,4.7-1,1.6-3.1,2-4.7.9Zm71.5,117.5c-1-.7-2.2-1-3.3-1.1-10.8-45.8-38.3-85.3-77.5-111.4-31.4-20.9-67.8-31.7-105.3-31.1-.4-1.4-1.3-2.7-2.6-3.6-3-2-7.1-1.2-9.1,1.8s-1.2,7.1,1.8,9.1s7.1,1.2,9.1-1.8c.5-.7.8-1.6,1-2.4c36.9-.5,72.6,10,103.4,30.6c38.5,25.7,65.5,64.5,76.1,109.4-1,.5-2,1.2-2.7,2.3-2,3-1.2,7.1,1.8,9.1s7.1,1.2,9.1-1.8s1.2-7.1-1.8-9.1ZM300.7,131c-1.6-1-2-3.2-.9-4.7c1-1.6,3.2-2,4.7-.9c1.6,1,2,3.2.9,4.7-1,1.5-3.1,1.9-4.7.9ZM489.4,278.1c-1.6-1-2-3.2-.9-4.7c1-1.6,3.2-2,4.7-.9c1.6,1,2,3.2.9,4.7-1,1.5-3.1,1.9-4.7.9ZM498,307c-3-2-7.1-1.2-9.1,1.8s-1.2,7.1,1.8,9.1c.8.5,1.7.9,2.6,1-1.3,33.3-11.8,65.6-30.4,93.5-22.3,33.4-54,57.9-91.9,71-.5-1-1.2-1.9-2.2-2.5-3-2-7.1-1.2-9.1,1.8s-1.2,7.1,1.8,9.1s7.1,1.2,9.1-1.8c.7-1.1,1-2.3,1.1-3.5c38.6-13.3,71-38.2,93.8-72.3c19-28.5,29.7-61.5,31-95.5c1.3-.4,2.5-1.3,3.4-2.5c1.9-3.1,1.1-7.2-1.9-9.2ZM363.3,489.1c-1.6-1-2-3.2-.9-4.7c1-1.6,3.2-2,4.7-.9c1.6,1,2,3.2.9,4.7-1,1.5-3.1,2-4.7.9ZM491.5,310.6c1-1.6,3.2-2,4.7-.9c1.6,1,2,3.2.9,4.7-1,1.6-3.2,2-4.7.9-1.5-1-1.9-3.2-.9-4.7ZM473,192.5c2-3,1.2-7.1-1.8-9.1s-7.1-1.2-9.1,1.8-1.2,7.1,1.8,9.1c1.7,1.2,3.8,1.3,5.6.7c48.5,66,50.9,155.6,5.9,224.1-2.8-1-5.9,0-7.6,2.5-2,3-1.2,7.1,1.8,9.1s7.1,1.2,9.1-1.8c1.7-2.6,1.3-5.9-.6-8c45.7-69.5,43.3-160.5-5.9-227.5.3-.3.6-.6.8-.9Zm3.2,234.7c-1,1.6-3.2,2-4.7.9-1.6-1-2-3.2-.9-4.7c1-1.6,3.2-2,4.7-.9s1.9,3.1.9,4.7ZM465.7,191.7c-1.6-1-2-3.2-.9-4.7c1-1.6,3.2-2,4.7-.9c1.6,1,2,3.2.9,4.7-1,1.5-3.2,1.9-4.7.9Zm73.6,62.4c1,.7,2.1,1,3.2,1.1c14.7,60.2,5.6,122.5-25.5,175.9-2.7-.9-5.9,0-7.6,2.5-2,3-1.2,7.1,1.8,9.1s7.1,1.2,9.1-1.8c1.7-2.6,1.3-5.9-.7-8.1c31.5-54.1,40.7-117.1,25.9-178.1c1.1-.5,2-1.3,2.7-2.3c2-3,1.2-7.1-1.8-9.1s-7.1-1.2-9.1,1.8c-1.8,2.9-1,7,2,9ZM517.8,439c-1,1.6-3.2,2-4.7.9-1.6-1-2-3.2-.9-4.7c1-1.6,3.2-2,4.7-.9c1.5,1,1.9,3.2.9,4.7Zm27-193.2c1.6,1,2,3.2.9,4.7s-3.2,2-4.7.9c-1.6-1-2-3.2-.9-4.7c1-1.5,3.1-2,4.7-.9ZM105.3,421.7c-1.6-1-3.4-1.3-5.1-.9-17.8-34.4-27-73-26.6-111.7c1.4-.4,2.7-1.3,3.6-2.6c2-3,1.2-7.1-1.8-9.1s-7.1-1.2-9.1,1.8-1.2,7.1,1.8,9.1c.7.5,1.5.8,2.4,1-.3,39.2,9,78.2,27,113-.4.4-.9.8-1.2,1.3-2,3-1.2,7.1,1.8,9.1s7.1,1.2,9.1-1.8c1.9-3.1,1.1-7.2-1.9-9.2ZM68.9,300.9c1-1.6,3.2-2,4.7-.9c1.6,1,2,3.2.9,4.7-1,1.6-3.2,2-4.7.9-1.6-1-2-3.1-.9-4.7ZM99.8,430c-1.6-1-2-3.2-.9-4.7c1-1.6,3.2-2,4.7-.9c1.6,1,2,3.2.9,4.7s-3.2,1.9-4.7.9Zm10.5-98.5c.9.6,1.8.9,2.8,1c6.3,59.1,38.2,111.8,87.7,144.8c10.2,6.8,21.1,12.7,32.3,17.5-.2,2.3.8,4.6,2.9,5.9c3,2,7.1,1.2,9.1-1.8s1.2-7.1-1.8-9.1-7.1-1.2-9.1,1.8c0,0,0,.1-.1.1-11-4.7-21.6-10.5-31.6-17.1-48.7-32.4-80.1-84.4-86.3-142.5c1.3-.5,2.4-1.3,3.2-2.5c2-3,1.2-7.1-1.8-9.1s-7.1-1.2-9.1,1.8c-2,3.2-1.2,7.2,1.8,9.2Zm131.2,161c1.6,1,2,3.2.9,4.7-1,1.6-3.2,2-4.7.9-1.6-1-2-3.2-.9-4.7c1-1.5,3.1-1.9,4.7-.9ZM115.9,323.2c1.6,1,2,3.2.9,4.7-1,1.6-3.2,2-4.7.9-1.6-1-2-3.2-.9-4.7c1-1.5,3.1-1.9,4.7-.9Zm46.9-104.9c-2,3-1.2,7.1,1.8,9.1s7.1,1.2,9.1-1.8c1.7-2.5,1.4-5.8-.6-8c51.2-75.4,153.8-96,230-46-1,2.8,0,5.9,2.5,7.6c3,2,7.1,1.2,9.1-1.8s1.2-7.1-1.8-9.1c-2.6-1.7-5.9-1.3-8,.6-77.7-50.9-182.2-30-234.3,46.9-2.9-1-6.1-.1-7.8,2.5Zm248.3-47.4c1.6,1,2,3.2.9,4.7-1,1.6-3.2,2-4.7.9-1.6-1-2-3.2-.9-4.7c1-1.6,3.1-2,4.7-.9ZM170.1,219c1.6,1,2,3.2.9,4.7-1,1.6-3.2,2-4.7.9-1.6-1-2-3.2-.9-4.7c1-1.5,3.1-1.9,4.7-.9Zm-49.8-6.7c2-3,1.2-7.1-1.8-9.1s-7.1-1.2-9.1,1.8c-1.7,2.6-1.3,6,.8,8.2-26.5,54.2-29.8,117.6-9.2,174.6-.8.5-1.4,1.1-2,1.9-2,3-1.2,7.1,1.8,9.1s7.1,1.2,9.1-1.8s1.2-7.1-1.8-9.1c-1.3-.8-2.7-1.2-4.1-1-20.3-56.1-17.1-118.6,8.9-172c2.7.8,5.8-.1,7.4-2.6Zm-13,182.9c-1,1.6-3.2,2-4.7.9-1.6-1-2-3.2-.9-4.7c1-1.6,3.2-2,4.7-.9c1.6,1,2,3.1.9,4.7ZM113,211.5c-1.6-1-2-3.2-.9-4.7c1-1.6,3.2-2,4.7-.9c1.6,1,2,3.2.9,4.7-1,1.5-3.1,2-4.7.9ZM299.6,77.1c3,2,7.1,1.2,9.1-1.8.4-.6.6-1.2.8-1.8c44.7-.4,88.5,11.8,126.6,35.3-1,2.7,0,5.9,2.5,7.6c3,2,7.1,1.2,9.1-1.8s1.2-7.1-1.8-9.1c-2.6-1.7-5.9-1.3-8.1.7C399.2,82.4,354.9,70,309.6,70.4c-.3-1.6-1.3-3.1-2.8-4.1-3-2-7.1-1.2-9.1,1.8-1.9,3-1.1,7,1.9,9Zm144.5,31c1.6,1,2,3.2.9,4.7-1,1.6-3.2,2-4.7.9-1.6-1-2-3.2-.9-4.7c1-1.5,3.2-1.9,4.7-.9Zm-139-39.3c1.6,1,2,3.2.9,4.7-1,1.6-3.2,2-4.7.9-1.6-1-2-3.2-.9-4.7c1-1.5,3.1-1.9,4.7-.9ZM150.4,288.9c2-3,1.2-7.1-1.8-9.1s-7.1-1.2-9.1,1.8-1.2,7.1,1.8,9.1c.3.2.6.3.9.5-7,58.7,17.3,117.4,63.6,153.9-1.1,2.8-.1,6,2.5,7.8c3,2,7.1,1.2,9.1-1.8s1.2-7.1-1.8-9.1c-2.5-1.7-5.8-1.4-7.9.6-45.3-35.8-69.1-93.3-62.3-150.8c1.9-.2,3.8-1.2,5-2.9Zm63.4,155.7c1.6,1,2,3.2.9,4.7-1,1.6-3.2,2-4.7.9-1.6-1-2-3.2-.9-4.7c1-1.6,3.2-2,4.7-.9ZM142.2,283.3c1-1.6,3.2-2,4.7-.9c1.6,1,2,3.2.9,4.7-1,1.6-3.2,2-4.7.9-1.6-1-2-3.1-.9-4.7ZM152.7,130c-15.9,13.9-29.9,29.9-41.8,47.7-12.2,18.3-21.8,38-28.5,58.7-2.2-.1-4.4.9-5.7,2.9-2,3-1.2,7.1,1.8,9.1s7.1,1.2,9.1-1.8s1.2-7.1-1.8-9.1c-.1-.1-.2-.1-.3-.2c6.7-20.4,16.1-39.8,28.1-57.8c11.8-17.6,25.7-33.6,41.6-47.4c2.9,1.5,6.5.6,8.4-2.2c2-3,1.2-7.1-1.8-9.1s-7.1-1.2-9.1,1.8c-1.7,2.4-1.5,5.3,0,7.4ZM84.9,244.8c-1,1.6-3.2,2-4.7.9-1.6-1-2-3.2-.9-4.7c1-1.6,3.2-2,4.7-.9c1.5,1,2,3.1.9,4.7Zm75-121.4c1.6,1,2,3.2.9,4.7-1,1.6-3.2,2-4.7.9-1.6-1-2-3.2-.9-4.7c1-1.5,3.1-1.9,4.7-.9Z" fill="url(#emjSaVDW3zs28-fill)"></path></g></g><g id="emjSaVDW3zs29" transform="matrix(0.993145 0.116892 -0.116892 0.993145 41.308106 -33.029497)"><g id="emjSaVDW3zs30" transform="matrix(0.977463 -0.211106 0.211106 0.977463 -75.627437 61.228993)"><path d="M178.9,527.2c10.9-3.9,49.7-67.5,69.9-110.3c9.5-20.1,14.8-35.7,11.2-38.2-7.5-5.2-52.6,33-68.4,58.2-17.5,27.7-28.6,96-12.7,90.3Z" clip-rule="evenodd" fill="url(#emjSaVDW3zs31-fill)" fill-rule="evenodd"></path><path style="mix-blend-mode:multiply" d="M178.9,527.2c10.9-3.9,49.7-67.5,69.9-110.3l-13.9-22.2c-.1-.1-58.5,44.7-56,132.5Z" transform="translate(-.661451 0.802108)" clip-rule="evenodd" fill="url(#emjSaVDW3zs32-fill)" fill-rule="evenodd"></path><path d="M195.9,430.6c0,0-2.2,19-5.1,27s-13.7,16.2-13.7,16.2s8.6-31,18.8-43.2Z" clip-rule="evenodd" fill="#fff" fill-rule="evenodd"></path></g><g transform="matrix(.995838-.091145 0.091145 0.995838-36.931978 29.850956)"><g><path d="M226.8,385.3c0,0,44-53.3,163.5-31.7-.1,0-75.1,35.7-163.5,31.7Z" clip-rule="evenodd" fill="url(#emjSaVDW3zs36-fill)" fill-rule="evenodd"></path></g><path id="emjSaVDW3zs37" style="mix-blend-mode:multiply" d="M382.8,352.4c0,0-65.3,17.8-98.5,16.1-33.2-1.8,14-17.3,14-17.3s43.5-7.1,84.5,1.2Z" clip-rule="evenodd" fill="#6678b6" fill-rule="evenodd" opacity="0.990868"></path><g><path d="M390.2,353.6c0,0-66.6,29.6-164.8,31.7c0,0,54.5,114.8,112.5,104.2c65.7-12.1,52.3-135.9,52.3-135.9Z" fill="url(#emjSaVDW3zs39-fill)"></path></g><path d="M371.8,375.5c0,0-3.9,21.1,12.9,61.1c0,0,11.1-29.6,3-65.1c0-.1-8.9-9.4-15.9,4Z" opacity="0.5" clip-rule="evenodd" fill="#6678b6" fill-rule="evenodd"></path><path style="mix-blend-mode:multiply" d="M385.7,359.1c0,0-90.1,62.4-49.5,122.9c17.4,25.8,66.6-41.9,49.5-122.9Z" clip-rule="evenodd" fill="url(#emjSaVDW3zs41-fill)" fill-rule="evenodd"></path><path d="M386.2,359c0,0-25.1,7.7-10.2,39.2.1,0,20-12,10.2-39.2Z" clip-rule="evenodd" fill="url(#emjSaVDW3zs42-fill)" fill-rule="evenodd"></path><path style="mix-blend-mode:multiply" d="M231.3,396.8c0,0,54.3,58.9,74.6,87c0,0-34.6-12.6-74.6-87Z" clip-rule="evenodd" fill="url(#emjSaVDW3zs43-fill)" fill-rule="evenodd"></path><g><path d="M341.2,489l.4-.5c-.2-.2-23.8-18.7-13.5-55.2c12.3-43.8,61.8-79,62.3-79.4l-.3-.5c-.5.4-50.2,35.7-62.6,79.7C317.1,470,341,488.8,341.2,489Z" fill="#4888ff"></path></g><g><path d="M305.7,484l.5-.4c-34.1-43.2-74.2-86.6-74.6-87l-.4.4c.3.4,40.4,43.8,74.5,87Z" fill="#4888ff"></path></g><path d="M273,383.5c0,0-5.5-8.3-25.2,2.1c0-.1,15.8.7,25.2-2.1Z" clip-rule="evenodd" fill="#fff" fill-rule="evenodd"></path><path d="M288.6,471.2c0,0-17.1-13.5-24.3-25.5c0,0,12.9,9,24.3,25.5Z" clip-rule="evenodd" fill="#fff" fill-rule="evenodd"></path><path d="M355.4,388.1c0,0-41.5,42.5-23.6,86.2c0,0-15.4-38.6,23.6-86.2Z" clip-rule="evenodd" fill="url(#emjSaVDW3zs50-fill)" fill-rule="evenodd"></path><g><path d="M244.4,386.3c73.2,0,139.9-29.7,140.7-30.1l-.2-.6c-.8.4-79.3,35.3-159.3,29.3v.6c6.1.6,12.5.8,18.8.8Z" fill="#4888ff"></path></g><path d="M368.8,364c0,0-70.7,31.3-131.9,22.5-.1,0,47.6,6.1,131.9-22.5Z" clip-rule="evenodd" fill="#fff" fill-rule="evenodd"></path><path d="M300,382c0,0-12.4,8-27.6,3.8.1.1,18-1.9,27.6-3.8Z" clip-rule="evenodd" fill="#fff" fill-rule="evenodd"></path></g><g id="emjSaVDW3zs55" transform="matrix(0.997949 0.064018 -0.064018 0.997949 24.784514 -23.615709)"><g><g><path d="M453.7,527c16,7,9-64.1-7.1-94-14.6-27-58.6-69.4-66.7-64.5C367.6,376,437.5,520,453.7,527Z" transform="translate(.003949-.73514)" clip-rule="evenodd" fill="url(#emjSaVDW3zs58-fill)" fill-rule="evenodd"></path></g></g><path d="M425,481.5l-16.6-32.9c0,0,16.8,16.4,16.6,32.9Z" clip-rule="evenodd" fill="#fff" fill-rule="evenodd"></path></g><g id="emjSaVDW3zs60" transform="matrix(0.996442 -0.08428 0.08428 0.996442 -32.049304 25.588483)"><path d="M473.8,187.4c0,0-196.4-45.5-305.6-21.1c0,0-4.1,166.6,124.9,185C431.3,371,473.8,187.4,473.8,187.4Z" fill="url(#emjSaVDW3zs61-fill)"></path><path d="M381.7,228.5c37.7,22.2-30.1,100.9-113.2,94.8-88.7-6.5-89.3-104.5-82.6-113.7c6.8-9.3,149.4-8.4,195.8,18.9Z" clip-rule="evenodd" fill="url(#emjSaVDW3zs62-fill)" fill-rule="evenodd"></path><path d="M168.2,166.3c0,0,20.4-31.4,69-7.1c0,0-42.2,1.2-69,7.1Z" transform="translate(.784734 0.010839)" clip-rule="evenodd" fill="url(#emjSaVDW3zs63-fill)" fill-rule="evenodd"></path><path d="M473.8,187.4c0,0-13.9-34.7-92.4-17.4l92.4,17.4Z" clip-rule="evenodd" fill="url(#emjSaVDW3zs64-fill)" fill-rule="evenodd"></path><path style="mix-blend-mode:multiply" d="M381.5,170.1c0,0-68.7,32.2-115.2,24.7-46.6-7.4-51.2-34.2-51.2-34.2s31.2-9.7,166.4,9.5Z" clip-rule="evenodd" fill="url(#emjSaVDW3zs65-fill)" fill-rule="evenodd"></path><g><path d="M280.9,196.3c43,0,100.1-25.6,100.7-25.9l-.3-.6c-.7.3-66.7,29.9-110.1,25.4-43.2-4.6-55.2-28.4-56-34.6l-.6.1c.9,6.2,12.9,30.5,56.5,35.1c3.2.3,6.5.5,9.8.5Z" fill="#4888ff"></path></g><path d="M447.6,232.6c0,0-4.5,26.5-26.1,47.7c0,0,.7-28.6,26.1-47.7Z" clip-rule="evenodd" fill="#fff" fill-rule="evenodd"></path><path d="M415.9,285.9c0,0,1.9,12.5-7.8,16.1c0,.1-.2-8,7.8-16.1Z" clip-rule="evenodd" fill="#fff" fill-rule="evenodd"></path><path d="M177.5,176.3c0,0,3.1,20.5,0,39c0,.1-10.1-21.7,0-39Z" clip-rule="evenodd" fill="#fff" fill-rule="evenodd"></path><path d="M256.4,191.5c0,0-26-5.8-37.5-23.1c0,0,16.1,16.1,37.5,23.1Z" clip-rule="evenodd" fill="#fff" fill-rule="evenodd"></path><path d="M317.1,195c0,0-48,12.5-71.6-3.5c0,0,20.8,9,71.6,3.5Z" clip-rule="evenodd" fill="#fff" fill-rule="evenodd"></path><g><path d="M243.8,224l2.8.3c.2.1.3.2.3.4v2.8c0,.2-.1.3-.3.3l-2.8-.3c-.2,0-.3-.1-.3-.4v-2.8c0-.2.1-.3.3-.3Zm0,5.2l2.8.3c.2.1.3.2.3.4v2.8c0,.2-.1.3-.3.3l-2.8-.3c-.2,0-.3-.1-.3-.4v-2.8c0-.2.1-.4.3-.3Zm0,5.1l2.8.3c.2.1.3.2.3.4v2.8c0,.2-.1.3-.3.3l-2.8-.3c-.2,0-.3-.1-.3-.4v-2.8c0-.2.1-.3.3-.3Zm0,5.2l2.8.3c.2.1.3.2.3.4v2.8c0,.2-.1.3-.3.3l-2.8-.3c-.2,0-.3-.1-.3-.4v-2.8c0-.2.1-.3.3-.3Zm0,5.2l2.8.3c.2.1.3.2.3.4v2.8c0,.2-.1.3-.3.3l-2.8-.3c-.2,0-.3-.1-.3-.4v-2.8c0-.3.1-.4.3-.3Zm0,5.1l2.8.3c.2.1.3.2.3.4v2.8c0,.2-.1.3-.3.3l-2.8-.3c-.2,0-.3-.1-.3-.4v-2.8c0-.2.1-.3.3-.3Zm0,5.2l2.8.3c.2.1.3.2.3.4v2.8c0,.2-.1.3-.3.3l-2.8-.3c-.2,0-.3-.1-.3-.4v-2.8c0-.2.1-.3.3-.3Zm0,5.1l2.8.3c.2.1.3.2.3.4v2.8c0,.2-.1.3-.3.3l-2.8-.3c-.2,0-.3-.1-.3-.4v-2.8c0-.2.1-.3.3-.3Zm0,5.2l2.8.3c.2.1.3.2.3.4v2.8c0,.2-.1.3-.3.3l-2.8-.3c-.2,0-.3-.1-.3-.4v-2.8c0-.2.1-.3.3-.3Zm0,5.2l2.8.3c.2.1.3.2.3.4v2.8c0,.2-.1.3-.3.3l-2.8-.3c-.2,0-.3-.1-.3-.4v-2.8c0-.3.1-.4.3-.3Zm5.2-46l2.8.3c.2.1.3.2.3.4v2.8c0,.2-.1.3-.3.3L249,228c-.2,0-.3-.1-.3-.4v-2.8c0-.2.1-.3.3-.3Zm0,5.2l2.8.3c.2.1.3.2.3.4v2.8c0,.2-.1.3-.3.3l-2.8-.3c-.2,0-.3-.1-.3-.4v-2.8c0-.2.1-.3.3-.3Zm0,5.1l2.8.3c.2.1.3.2.3.4v2.8c0,.2-.1.3-.3.3l-2.8-.3c-.2,0-.3-.1-.3-.4v-2.8c0-.2.1-.3.3-.3Zm0,5.2l2.8.3c.2.1.3.2.3.4v2.8c0,.2-.1.3-.3.3l-2.8-.3c-.2,0-.3-.1-.3-.4v-2.8c0-.2.1-.3.3-.3Zm0,5.2l2.8.3c.2.1.3.2.3.4v2.8c0,.2-.1.3-.3.3l-2.8-.3c-.2,0-.3-.1-.3-.4v-2.8c0-.3.1-.4.3-.3Zm0,5.1l2.8.3c.2.1.3.2.3.4v2.8c0,.2-.1.3-.3.3l-2.8-.3c-.2,0-.3-.1-.3-.4v-2.8c0-.2.1-.3.3-.3Zm0,5.2l2.8.3c.2.1.3.2.3.4v2.8c0,.2-.1.3-.3.3L249,259c-.2,0-.3-.1-.3-.4v-2.8c0-.2.1-.3.3-.3Zm0,5.1l2.8.3c.2.1.3.2.3.4v2.8c0,.2-.1.3-.3.3l-2.8-.3c-.2,0-.3-.1-.3-.4v-2.7c0-.3.1-.4.3-.4Zm0,5.2l2.8.3c.2.1.3.2.3.4v2.8c0,.2-.1.3-.3.3l-2.8-.3c-.2,0-.3-.1-.3-.4v-2.8c0-.2.1-.3.3-.3Zm0,5.2l2.8.3c.2.1.3.2.3.4v2.8c0,.2-.1.3-.3.3l-2.8-.3c-.2,0-.3-.1-.3-.4v-2.8c0-.3.1-.4.3-.3Zm5.1-46l2.8.3c.2.1.3.2.3.4v2.8c0,.2-.1.3-.3.3l-2.8-.3c-.2,0-.3-.1-.3-.4v-2.8c0-.2.1-.3.3-.3Zm0,5.2l2.8.3c.2.1.3.2.3.4v2.8c0,.2-.1.3-.3.3l-2.8-.3c-.2,0-.3-.1-.3-.4v-2.8c0-.2.1-.3.3-.3Zm0,5.1l2.8.3c.2.1.3.2.3.4v2.8c0,.2-.1.3-.3.3l-2.8-.3c-.2,0-.3-.1-.3-.4v-2.8c0-.2.1-.3.3-.3Zm0,5.2l2.8.3c.2.1.3.2.3.4v2.8c0,.2-.1.3-.3.3l-2.8-.3c-.2,0-.3-.1-.3-.4v-2.8c0-.2.1-.3.3-.3Zm0,5.2l2.8.3c.2.1.3.2.3.4v2.8c0,.2-.1.3-.3.3l-2.8-.3c-.2,0-.3-.1-.3-.4v-2.8c0-.2.1-.4.3-.3Zm0,5.1l2.8.3c.2.1.3.2.3.4v2.8c0,.2-.1.3-.3.3l-2.8-.3c-.2,0-.3-.1-.3-.4v-2.8c0-.2.1-.3.3-.3Zm0,5.2l2.8.3c.2.1.3.2.3.4v2.8c0,.2-.1.3-.3.3l-2.8-.3c-.2,0-.3-.1-.3-.4v-2.8c0-.2.1-.3.3-.3Zm0,5.2l2.8.3c.2.1.3.2.3.4v2.8c0,.2-.1.3-.3.3l-2.8-.3c-.2,0-.3-.1-.3-.4v-2.8c0-.3.1-.4.3-.3Zm0,5.1l2.8.3c.2.1.3.2.3.4v2.8c0,.2-.1.3-.3.3l-2.8-.3c-.2,0-.3-.1-.3-.4v-2.8c0-.2.1-.3.3-.3Zm0,5.2l2.8.3c.2.1.3.2.3.4v2.8c0,.2-.1.3-.3.3l-2.8-.3c-.2,0-.3-.1-.3-.4v-2.8c0-.2.1-.3.3-.3Zm5.2-46l2.8.3c.2.1.3.2.3.4v2.8c0,.2-.1.3-.3.3l-2.8-.3c-.2,0-.3-.1-.3-.4v-2.8c0-.2.1-.3.3-.3Zm0,5.2l2.8.3c.2.1.3.2.3.4v2.8c0,.2-.1.3-.3.3l-2.8-.3c-.2,0-.3-.1-.3-.4v-2.8c0-.2.1-.3.3-.3Zm0,5.2l2.8.3c.2.1.3.2.3.4v2.8c0,.2-.1.3-.3.3l-2.8-.3c-.2,0-.3-.1-.3-.4v-2.8c0-.3.1-.4.3-.3Zm0,5.1l2.8.3c.2.1.3.2.3.4v2.8c0,.2-.1.3-.3.3l-2.8-.3c-.2,0-.3-.1-.3-.4v-2.8c0-.2.1-.3.3-.3Zm0,5.2l2.8.3c.2.1.3.2.3.4v2.8c0,.2-.1.3-.3.3l-2.8-.3c-.2,0-.3-.1-.3-.4v-2.8c0-.2.1-.3.3-.3Zm0,5.1l2.8.3c.2.1.3.2.3.4v2.8c0,.2-.1.3-.3.3l-2.8-.3c-.2,0-.3-.1-.3-.4v-2.8c0-.2.1-.3.3-.3Zm0,5.2l2.8.3c.2.1.3.2.3.4v2.8c0,.2-.1.3-.3.3l-2.8-.3c-.2,0-.3-.1-.3-.4v-2.8c0-.2.1-.3.3-.3Zm0,5.2l2.8.3c.2.1.3.2.3.4v2.8c0,.2-.1.3-.3.3l-2.8-.3c-.2,0-.3-.1-.3-.4v-2.8c0-.3.1-.4.3-.3Zm0,5.1l2.8.3c.2.1.3.2.3.4v2.8c0,.2-.1.3-.3.3l-2.8-.3c-.2,0-.3-.1-.3-.4v-2.8c0-.2.1-.3.3-.3Zm0,5.2l2.8.3c.2.1.3.2.3.4v2.8c0,.2-.1.3-.3.3l-2.8-.3c-.2,0-.3-.1-.3-.4v-2.8c0-.2.1-.3.3-.3Zm5.2-15l2.8.3c.2.1.3.2.3.4v2.8c0,.2-.1.3-.3.3l-2.8-.3c-.2,0-.3-.1-.3-.4v-2.8c0-.2.1-.3.3-.3Zm0,5.2l2.8.3c.2.1.3.2.3.4v2.8c0,.2-.1.3-.3.3l-2.8-.3c-.2,0-.3-.1-.3-.4v-2.8c0-.2.1-.3.3-.3Zm0,5.1l2.8.3c.2.1.3.2.3.4v2.8c0,.2-.1.3-.3.3l-2.8-.3c-.2,0-.3-.1-.3-.4v-2.8c0-.2.1-.3.3-.3Zm0,5.2l2.8.3c.2.1.3.2.3.4v2.8c0,.2-.1.3-.3.3l-2.8-.3c-.2,0-.3-.1-.3-.4v-2.8c0-.2.1-.3.3-.3Zm5.1-15l2.8.3c.2.1.3.2.3.4v2.8c0,.2-.1.3-.3.3l-2.8-.3c-.2,0-.3-.1-.3-.4v-2.8c0-.2.1-.3.3-.3Zm0,5.2l2.8.3c.2.1.3.2.3.4v2.8c0,.2-.1.3-.3.3l-2.8-.3c-.2,0-.3-.1-.3-.4v-2.8c0-.2.1-.3.3-.3Zm0,5.1l2.8.3c.2.1.3.2.3.4v2.8c0,.2-.1.3-.3.3l-2.8-.3c-.2,0-.3-.1-.3-.4v-2.8c0-.2.1-.3.3-.3Zm0,5.2l2.8.3c.2.1.3.2.3.4v2.8c0,.2-.1.3-.3.3l-2.8-.3c-.2,0-.3-.1-.3-.4v-2.8c0-.2.1-.3.3-.3Zm5.2-15l2.8.3c.2.1.3.2.3.4v2.8c0,.2-.1.3-.3.3l-2.8-.3c-.2,0-.3-.1-.3-.4v-2.8c0-.2.1-.3.3-.3Zm0,5.2l2.8.3c.2.1.3.2.3.4v2.8c0,.2-.1.3-.3.3l-2.8-.3c-.2,0-.3-.1-.3-.4v-2.8c0-.2.1-.3.3-.3Zm0,5.2l2.8.3c.2.1.3.2.3.4v2.8c0,.2-.1.3-.3.3l-2.8-.3c-.2,0-.3-.1-.3-.4v-2.8c0-.3.1-.4.3-.3Zm0,5.1l2.8.3c.2.1.3.2.3.4v2.8c0,.2-.1.3-.3.3l-2.8-.3c-.2,0-.3-.1-.3-.4v-2.8c0-.2.1-.3.3-.3Zm5.1-15l2.8.3c.2.1.3.2.3.4v2.8c0,.2-.1.3-.3.3l-2.8-.3c-.2,0-.3-.1-.3-.4v-2.8c0-.2.1-.3.3-.3Zm0,5.2l2.8.3c.2.1.3.2.3.4v2.8c0,.2-.1.3-.3.3l-2.8-.3c-.2,0-.3-.1-.3-.4v-2.8c0-.2.1-.3.3-.3Zm0,5.2l2.8.3c.2.1.3.2.3.4v2.8c0,.2-.1.3-.3.3l-2.8-.3c-.2,0-.3-.1-.3-.4v-2.8c0-.3.1-.4.3-.3Zm0,5.1l2.8.3c.2.1.3.2.3.4v2.8c0,.2-.1.3-.3.3l-2.8-.3c-.2,0-.3-.1-.3-.4v-2.8c0-.2.1-.3.3-.3Zm5.2-45.9l2.8.3c.2.1.3.2.3.4v2.8c0,.2-.1.3-.3.3l-2.8-.3c-.2,0-.3-.1-.3-.4v-2.8c0-.2.1-.3.3-.3Zm0,5.1l2.8.3c.2.1.3.2.3.4v2.8c0,.2-.1.3-.3.3l-2.8-.3c-.2,0-.3-.1-.3-.4v-2.8c0-.2.1-.3.3-.3Zm0,5.2l2.8.3c.2.1.3.2.3.4v2.8c0,.2-.1.3-.3.3l-2.8-.3c-.2,0-.3-.1-.3-.4v-2.8c0-.2.1-.3.3-.3Zm0,5.2l2.8.3c.2.1.3.2.3.4v2.8c0,.2-.1.3-.3.3l-2.8-.3c-.2,0-.3-.1-.3-.4v-2.8c0-.2.1-.4.3-.3Zm0,5.1l2.8.3c.2.1.3.2.3.4v2.8c0,.2-.1.3-.3.3l-2.8-.3c-.2,0-.3-.1-.3-.4v-2.8c0-.2.1-.3.3-.3Zm0,5.2l2.8.3c.2.1.3.2.3.4v2.8c0,.2-.1.3-.3.3l-2.8-.3c-.2,0-.3-.1-.3-.4v-2.8c0-.2.1-.3.3-.3Zm0,5.1l2.8.3c.2.1.3.2.3.4v2.8c0,.2-.1.3-.3.3l-2.8-.3c-.2,0-.3-.1-.3-.4v-2.8c0-.2.1-.3.3-.3Zm0,5.2l2.8.3c.2.1.3.2.3.4v2.8c0,.2-.1.3-.3.3l-2.8-.3c-.2,0-.3-.1-.3-.4v-2.8c0-.2.1-.3.3-.3Zm0,5.2l2.8.3c.2.1.3.2.3.4v2.8c0,.2-.1.3-.3.3l-2.8-.3c-.2,0-.3-.1-.3-.4v-2.8c0-.2.1-.3.3-.3Zm0,5.1l2.8.3c.2.1.3.2.3.4v2.8c0,.2-.1.3-.3.3l-2.8-.3c-.2,0-.3-.1-.3-.4v-2.8c0-.2.1-.3.3-.3Zm0,5.2l2.8.3c.2.1.3.2.3.4v2.8c0,.2-.1.3-.3.3l-2.8-.3c-.2,0-.3-.1-.3-.4v-2.8c0-.2.1-.3.3-.3Zm0,5.2l2.8.3c.2.1.3.2.3.4v2.8c0,.2-.1.3-.3.3l-2.8-.3c-.2,0-.3-.1-.3-.4v-2.8c0-.3.1-.4.3-.3Zm0,5.1l2.8.3c.2.1.3.2.3.4v2.8c0,.2-.1.3-.3.3l-2.8-.3c-.2,0-.3-.1-.3-.4v-2.8c0-.2.1-.3.3-.3Zm0,5.2l2.8.3c.2.1.3.2.3.4v2.8c0,.2-.1.3-.3.3l-2.8-.3c-.2,0-.3-.1-.3-.4v-2.8c0-.2.1-.3.3-.3Zm0,5.1l2.8.3c.2.1.3.2.3.4v2.8c0,.2-.1.3-.3.3l-2.8-.3c-.2,0-.3-.1-.3-.4v-2.8c0-.2.1-.3.3-.3Zm0,5.2l2.8.3c.2.1.3.2.3.4v2.8c0,.2-.1.3-.3.3l-2.8-.3c-.2,0-.3-.1-.3-.4v-2.8c0-.2.1-.3.3-.3Zm5.2-76.9l2.8.3c.2.1.3.2.3.4v2.8c0,.2-.1.3-.3.3l-2.8-.3c-.2,0-.3-.1-.3-.4v-2.8c0-.2.1-.3.3-.3Zm0,5.2l2.8.3c.2.1.3.2.3.4v2.8c0,.2-.1.3-.3.3l-2.8-.3c-.2,0-.3-.1-.3-.4v-2.8c0-.3.1-.4.3-.3Zm0,5.1l2.8.3c.2.1.3.2.3.4v2.8c0,.2-.1.3-.3.3l-2.8-.3c-.2,0-.3-.1-.3-.4v-2.8c0-.2.1-.3.3-.3Zm0,5.2l2.8.3c.2.1.3.2.3.4v2.8c0,.2-.1.3-.3.3l-2.8-.3c-.2,0-.3-.1-.3-.4v-2.8c0-.2.1-.3.3-.3Zm0,5.1l2.8.3c.2.1.3.2.3.4v2.8c0,.2-.1.3-.3.3l-2.8-.3c-.2,0-.3-.1-.3-.4v-2.8c0-.2.1-.3.3-.3Zm0,5.2l2.8.3c.2.1.3.2.3.4v2.8c0,.2-.1.3-.3.3l-2.8-.3c-.2,0-.3-.1-.3-.4v-2.8c0-.2.1-.3.3-.3Zm0,5.2l2.8.3c.2.1.3.2.3.4v2.8c0,.2-.1.3-.3.3l-2.8-.3c-.2,0-.3-.1-.3-.4v-2.8c0-.3.1-.4.3-.3Zm0,5.1l2.8.3c.2.1.3.2.3.4v2.8c0,.2-.1.3-.3.3l-2.8-.3c-.2,0-.3-.1-.3-.4v-2.8c0-.2.1-.3.3-.3Zm0,5.2l2.8.3c.2.1.3.2.3.4v2.8c0,.2-.1.3-.3.3l-2.8-.3c-.2,0-.3-.1-.3-.4v-2.8c0-.2.1-.3.3-.3Zm0,5.1l2.8.3c.2.1.3.2.3.4v2.8c0,.2-.1.3-.3.3l-2.8-.3c-.2,0-.3-.1-.3-.4v-2.8c0-.2.1-.3.3-.3Zm0,5.2l2.8.3c.2.1.3.2.3.4v2.8c0,.2-.1.3-.3.3l-2.8-.3c-.2,0-.3-.1-.3-.4v-2.8c0-.2.1-.3.3-.3Zm0,5.2l2.8.3c.2.1.3.2.3.4v2.8c0,.2-.1.3-.3.3l-2.8-.3c-.2,0-.3-.1-.3-.4v-2.8c0-.3.1-.4.3-.3Zm0,5.1l2.8.3c.2.1.3.2.3.4v2.8c0,.2-.1.3-.3.3l-2.8-.3c-.2,0-.3-.1-.3-.4v-2.8c0-.2.1-.3.3-.3Zm0,5.2l2.8.3c.2.1.3.2.3.4v2.8c0,.2-.1.3-.3.3l-2.8-.3c-.2,0-.3-.1-.3-.4v-2.8c0-.2.1-.3.3-.3Zm0,5.1l2.8.3c.2.1.3.2.3.4v2.8c0,.2-.1.3-.3.3l-2.8-.3c-.2,0-.3-.1-.3-.4v-2.8c0-.2.1-.3.3-.3Zm0,5.2l2.8.3c.2.1.3.2.3.4v2.8c0,.2-.1.3-.3.3l-2.8-.3c-.2,0-.3-.1-.3-.4v-2.8c0-.2.1-.3.3-.3Zm5.1-76.9l2.8.3c.2.1.3.2.3.4v2.8c0,.2-.1.3-.3.3l-2.8-.3c-.2,0-.3-.1-.3-.4v-2.8c0-.2.1-.3.3-.3Zm0,5.2l2.8.3c.2.1.3.2.3.4v2.8c0,.2-.1.3-.3.3l-2.8-.3c-.2,0-.3-.1-.3-.4v-2.8c0-.3.1-.4.3-.3Zm0,5.1l2.8.3c.2.1.3.2.3.4v2.8c0,.2-.1.3-.3.3l-2.8-.3c-.2,0-.3-.1-.3-.4v-2.8c0-.2.1-.3.3-.3Zm0,5.2l2.8.3c.2.1.3.2.3.4v2.8c0,.2-.1.3-.3.3l-2.8-.3c-.2,0-.3-.1-.3-.4v-2.8c0-.2.1-.3.3-.3Zm0,5.1l2.8.3c.2.1.3.2.3.4v2.8c0,.2-.1.3-.3.3l-2.8-.3c-.2,0-.3-.1-.3-.4v-2.8c0-.2.1-.3.3-.3Zm0,5.2l2.8.3c.2.1.3.2.3.4v2.8c0,.2-.1.3-.3.3l-2.8-.3c-.2,0-.3-.1-.3-.4v-2.8c0-.2.1-.3.3-.3Zm0,5.2l2.8.3c.2.1.3.2.3.4v2.8c0,.2-.1.3-.3.3l-2.8-.3c-.2,0-.3-.1-.3-.4v-2.8c0-.2.1-.4.3-.3Zm0,5.1l2.8.3c.2.1.3.2.3.4v2.8c0,.2-.1.3-.3.3l-2.8-.3c-.2,0-.3-.1-.3-.4v-2.8c0-.2.1-.3.3-.3Zm0,5.2l2.8.3c.2.1.3.2.3.4v2.8c0,.2-.1.3-.3.3l-2.8-.3c-.2,0-.3-.1-.3-.4v-2.8c0-.2.1-.3.3-.3Zm0,5.2l2.8.3c.2.1.3.2.3.4v2.8c0,.2-.1.3-.3.3l-2.8-.3c-.2,0-.3-.1-.3-.4v-2.8c0-.3.1-.4.3-.3Zm0,5.1l2.8.3c.2.1.3.2.3.4v2.8c0,.2-.1.3-.3.3l-2.8-.3c-.2,0-.3-.1-.3-.4v-2.8c0-.2.1-.3.3-.3Zm0,5.2l2.8.3c.2.1.3.2.3.4v2.8c0,.2-.1.3-.3.3l-2.8-.3c-.2,0-.3-.1-.3-.4v-2.8c0-.2.1-.3.3-.3Zm0,5.1l2.8.3c.2.1.3.2.3.4v2.8c0,.2-.1.3-.3.3l-2.8-.3c-.2,0-.3-.1-.3-.4v-2.8c0-.2.1-.3.3-.3Zm0,5.2l2.8.3c.2.1.3.2.3.4v2.8c0,.2-.1.3-.3.3l-2.8-.3c-.2,0-.3-.1-.3-.4v-2.8c0-.2.1-.3.3-.3Zm0,5.2l2.8.3c.2.1.3.2.3.4v2.8c0,.2-.1.3-.3.3l-2.8-.3c-.2,0-.3-.1-.3-.4v-2.8c0-.3.1-.4.3-.3Zm0,5.1l2.8.3c.2.1.3.2.3.4v2.8c0,.2-.1.3-.3.3l-2.8-.3c-.2,0-.3-.1-.3-.4v-2.8c0-.2.1-.3.3-.3Zm5.2-76.9l2.8.3c.2.1.3.2.3.4v2.8c0,.2-.1.3-.3.3l-2.8-.3c-.2,0-.3-.1-.3-.4v-2.8c0-.2.1-.3.3-.3Zm0,5.2l2.8.3c.2.1.3.2.3.4v2.8c0,.2-.1.3-.3.3l-2.8-.3c-.2,0-.3-.1-.3-.4v-2.8c0-.2.1-.3.3-.3Zm0,5.1l2.8.3c.2.1.3.2.3.4v2.8c0,.2-.1.3-.3.3l-2.8-.3c-.2,0-.3-.1-.3-.4v-2.8c0-.2.1-.3.3-.3Zm0,5.2l2.8.3c.2.1.3.2.3.4v2.8c0,.2-.1.3-.3.3l-2.8-.3c-.2,0-.3-.1-.3-.4v-2.8c0-.2.1-.3.3-.3Zm0,5.2l2.8.3c.2.1.3.2.3.4v2.8c0,.2-.1.3-.3.3l-2.8-.3c-.2,0-.3-.1-.3-.4v-2.8c0-.3.1-.4.3-.3Zm0,5.1l2.8.3c.2.1.3.2.3.4v2.8c0,.2-.1.3-.3.3l-2.8-.3c-.2,0-.3-.1-.3-.4v-2.8c0-.2.1-.3.3-.3Zm0,5.2l2.8.3c.2.1.3.2.3.4v2.8c0,.2-.1.3-.3.3l-2.8-.3c-.2,0-.3-.1-.3-.4v-2.8c0-.2.1-.3.3-.3Zm0,5.1l2.8.3c.2.1.3.2.3.4v2.8c0,.2-.1.3-.3.3l-2.8-.3c-.2,0-.3-.1-.3-.4v-2.8c0-.2.1-.3.3-.3Zm0,5.2l2.8.3c.2.1.3.2.3.4v2.8c0,.2-.1.3-.3.3l-2.8-.3c-.2,0-.3-.1-.3-.4v-2.8c0-.2.1-.3.3-.3Zm0,5.2l2.8.3c.2.1.3.2.3.4v2.8c0,.2-.1.3-.3.3l-2.8-.3c-.2,0-.3-.1-.3-.4v-2.8c0-.3.1-.4.3-.3Zm5-14.7l2.8.3c.2.1.3.2.3.4v2.8c0,.2-.1.3-.3.3l-2.8-.3c-.2,0-.3-.1-.3-.4v-2.8c-.1-.2.1-.3.3-.3Zm0,5.2l2.8.3c.2.1.3.2.3.4v2.8c0,.2-.1.3-.3.3l-2.8-.3c-.2,0-.3-.1-.3-.4v-2.8c-.1-.2.1-.3.3-.3Zm0,5.2l2.8.3c.2.1.3.2.3.4v2.8c0,.2-.1.3-.3.3l-2.8-.3c-.2,0-.3-.1-.3-.4v-2.8c-.1-.2.1-.3.3-.3Zm0,5.1l2.8.3c.2.1.3.2.3.4v2.8c0,.2-.1.3-.3.3l-2.8-.3c-.2,0-.3-.1-.3-.4v-2.8c-.1-.2.1-.3.3-.3Zm-5,4.3l2.8.3c.2.1.3.2.3.4v2.8c0,.2-.1.3-.3.3l-2.8-.3c-.2,0-.3-.1-.3-.4v-2.8c0-.2.1-.3.3-.3Zm0,5.2l2.8.3c.2.1.3.2.3.4v2.8c0,.2-.1.3-.3.3l-2.8-.3c-.2,0-.3-.1-.3-.4v-2.8c0-.2.1-.3.3-.3Zm0,5.1l2.8.3c.2.1.3.2.3.4v2.8c0,.2-.1.3-.3.3l-2.8-.3c-.2,0-.3-.1-.3-.4v-2.8c0-.2.1-.3.3-.3Zm0,5.2l2.8.3c.2.1.3.2.3.4v2.8c0,.2-.1.3-.3.3l-2.8-.3c-.2,0-.3-.1-.3-.4v-2.8c0-.2.1-.3.3-.3Zm0,5.2l2.8.3c.2.1.3.2.3.4v2.8c0,.2-.1.3-.3.3l-2.8-.3c-.2,0-.3-.1-.3-.4v-2.8c0-.3.1-.4.3-.3Zm0,5.1l2.8.3c.2.1.3.2.3.4v2.8c0,.2-.1.3-.3.3l-2.8-.3c-.2,0-.3-.1-.3-.4v-2.8c0-.2.1-.3.3-.3Z" fill="#1bf4f6"></path></g><path d="M332.4,164c0,0-79.5,2.3-92.1-4.6c0,0,39.3.7,92.1,4.6Z" clip-rule="evenodd" fill="#fff" fill-rule="evenodd"></path><path d="M280,210.6c0,0-25.9,10.8-37.1-2.1c0-.1,16.4-.4,37.1,2.1Z" clip-rule="evenodd" fill="#fff" fill-rule="evenodd"></path><path style="mix-blend-mode:soft-light" d="M371.4,229.1c0,0-81-29.3-183.4-18.3c0,0-18.8,54.1,37.5,99.2c0,0,17.5,2.5,47-41.9s98.9-39,98.9-39Z" clip-rule="evenodd" fill="#d3ffdd" fill-rule="evenodd"></path></g></g>
</svg>