<?xml version="1.0" encoding="UTF-8" standalone="no"?>
<!DOCTYPE svg PUBLIC "-//W3C//DTD SVG 1.1//EN"
 "http://www.w3.org/Graphics/SVG/1.1/DTD/svg11.dtd">
<!-- Generated by graphviz version 2.40.1 (20161225.0304)
 -->
<!-- Title: G Pages: 1 -->
<svg width="299pt" height="1156pt"
 viewBox="0.00 0.00 298.62 1156.00" xmlns="http://www.w3.org/2000/svg" xmlns:xlink="http://www.w3.org/1999/xlink">
<g id="graph0" class="graph" transform="scale(1 1) rotate(0) translate(4 1152)">
<title>G</title>
<polygon fill="#ffffff" stroke="transparent" points="-4,4 -4,-1152 294.6226,-1152 294.6226,4 -4,4"/>
<g id="clust1" class="cluster">
<title>cluster_Global</title>
<path fill="none" stroke="#c0c0c0" d="M20,-8C20,-8 270.6226,-8 270.6226,-8 276.6226,-8 282.6226,-14 282.6226,-20 282.6226,-20 282.6226,-1128 282.6226,-1128 282.6226,-1134 276.6226,-1140 270.6226,-1140 270.6226,-1140 20,-1140 20,-1140 14,-1140 8,-1134 8,-1128 8,-1128 8,-20 8,-20 8,-14 14,-8 20,-8"/>
<text text-anchor="middle" x="145.3113" y="-1127.2" font-family="Times,serif" font-size="11.00" fill="#c0c0c0">Global</text>
</g>
<g id="clust2" class="cluster">
<title>cluster_\Tina4</title>
<path fill="none" stroke="#c0c0c0" d="M28,-16C28,-16 262.6226,-16 262.6226,-16 268.6226,-16 274.6226,-22 274.6226,-28 274.6226,-28 274.6226,-1101 274.6226,-1101 274.6226,-1107 268.6226,-1113 262.6226,-1113 262.6226,-1113 28,-1113 28,-1113 22,-1113 16,-1107 16,-1101 16,-1101 16,-28 16,-28 16,-22 22,-16 28,-16"/>
<text text-anchor="middle" x="145.3113" y="-1100.2" font-family="Times,serif" font-size="11.00" fill="#c0c0c0">Tina4</text>
</g>
<!-- \\Tina4\\ORM -->
<g id="node1" class="node">
<title>\\Tina4\\ORM</title>
<polygon fill="none" stroke="#000000" points="242.7156,-1086 188.7156,-1086 188.7156,-1050 242.7156,-1050 242.7156,-1086"/>
<text text-anchor="middle" x="215.7156" y="-1064.7" font-family="Courier,monospace" font-size="11.00" fill="#000000">ORM</text>
</g>
<!-- \\Tina4\\DataMySQL -->
<g id="node2" class="node">
<title>\\Tina4\\DataMySQL</title>
<polygon fill="none" stroke="#000000" points="253.6264,-654 177.8048,-654 177.8048,-618 253.6264,-618 253.6264,-654"/>
<text text-anchor="middle" x="215.7156" y="-632.7" font-family="Courier,monospace" font-size="11.00" fill="#000000">DataMySQL</text>
</g>
<!-- \\Tina4\\DataBase -->
<g id="node10" class="node">
<title>\\Tina4\\DataBase</title>
<polygon fill="none" stroke="#000000" points="92.7132,-762 24.0954,-762 24.0954,-726 92.7132,-726 92.7132,-762"/>
<text text-anchor="middle" x="58.4043" y="-740.7" font-family="Courier,monospace" font-size="11.00" fill="#000000">DataBase</text>
</g>
<!-- \\Tina4\\DataMySQL&#45;&gt;\\Tina4\\DataBase -->
<g id="edge1" class="edge">
<title>\\Tina4\\DataMySQL&#45;&gt;\\Tina4\\DataBase</title>
<path fill="none" stroke="#000000" d="M179.9636,-654.0095C174.8002,-656.8837 169.612,-659.9269 164.8086,-663 137.703,-680.3417 108.758,-702.6487 87.9107,-719.4611"/>
<polygon fill="none" stroke="#000000" points="85.613,-716.8183 80.06,-725.8414 90.0278,-722.2506 85.613,-716.8183"/>
</g>
<!-- \\Tina4\\DataResult -->
<g id="node3" class="node">
<title>\\Tina4\\DataResult</title>
<polygon fill="none" stroke="#000000" points="256.7263,-978 174.7048,-978 174.7048,-942 256.7263,-942 256.7263,-978"/>
<text text-anchor="middle" x="215.7156" y="-956.7" font-family="Courier,monospace" font-size="11.00" fill="#000000">DataResult</text>
</g>
<!-- \\Tina4\\Routing -->
<g id="node4" class="node">
<title>\\Tina4\\Routing</title>
<polygon fill="none" stroke="#000000" points="246.9234,-924 184.5077,-924 184.5077,-888 246.9234,-888 246.9234,-924"/>
<text text-anchor="middle" x="215.7156" y="-902.7" font-family="Courier,monospace" font-size="11.00" fill="#000000">Routing</text>
</g>
<!-- \\Tina4\\ParseTemplate -->
<g id="node5" class="node">
<title>\\Tina4\\ParseTemplate</title>
<polygon fill="none" stroke="#000000" points="266.5297,-870 164.9014,-870 164.9014,-834 266.5297,-834 266.5297,-870"/>
<text text-anchor="middle" x="215.7156" y="-848.7" font-family="Courier,monospace" font-size="11.00" fill="#000000">ParseTemplate</text>
</g>
<!-- \\Tina4\\DataError -->
<g id="node6" class="node">
<title>\\Tina4\\DataError</title>
<polygon fill="none" stroke="#000000" points="253.6264,-816 177.8048,-816 177.8048,-780 253.6264,-780 253.6264,-816"/>
<text text-anchor="middle" x="215.7156" y="-794.7" font-family="Courier,monospace" font-size="11.00" fill="#000000">DataError</text>
</g>
<!-- \\Tina4\\Get -->
<g id="node7" class="node">
<title>\\Tina4\\Get</title>
<polygon fill="none" stroke="#000000" points="242.7156,-600 188.7156,-600 188.7156,-564 242.7156,-564 242.7156,-600"/>
<text text-anchor="middle" x="215.7156" y="-578.7" font-family="Courier,monospace" font-size="11.00" fill="#000000">Get</text>
</g>
<!-- \\Tina4\\Route -->
<g id="node12" class="node">
<title>\\Tina4\\Route</title>
<polygon fill="none" stroke="#000000" points="85.4043,-438 31.4043,-438 31.4043,-402 85.4043,-402 85.4043,-438"/>
<text text-anchor="middle" x="58.4043" y="-416.7" font-family="Courier,monospace" font-size="11.00" fill="#000000">Route</text>
</g>
<!-- \\Tina4\\Get&#45;&gt;\\Tina4\\Route -->
<g id="edge2" class="edge">
<title>\\Tina4\\Get&#45;&gt;\\Tina4\\Route</title>
<path fill="none" stroke="#000000" d="M188.507,-570.2157C180.4368,-566.0431 171.8748,-560.8974 164.8086,-555 126.8115,-523.288 93.3898,-476.007 74.5619,-446.6379"/>
<polygon fill="none" stroke="#000000" points="77.494,-444.7259 69.1984,-438.1355 71.5736,-448.4607 77.494,-444.7259"/>
</g>
<!-- \\Tina4\\DataRecord -->
<g id="node8" class="node">
<title>\\Tina4\\DataRecord</title>
<polygon fill="none" stroke="#000000" points="256.7263,-708 174.7048,-708 174.7048,-672 256.7263,-672 256.7263,-708"/>
<text text-anchor="middle" x="215.7156" y="-686.7" font-family="Courier,monospace" font-size="11.00" fill="#000000">DataRecord</text>
</g>
<!-- \\Tina4\\DataSQLite3 -->
<g id="node9" class="node">
<title>\\Tina4\\DataSQLite3</title>
<polygon fill="none" stroke="#000000" points="259.8282,-1032 171.6029,-1032 171.6029,-996 259.8282,-996 259.8282,-1032"/>
<text text-anchor="middle" x="215.7156" y="-1010.7" font-family="Courier,monospace" font-size="11.00" fill="#000000">DataSQLite3</text>
</g>
<!-- \\Tina4\\DataSQLite3&#45;&gt;\\Tina4\\DataBase -->
<g id="edge3" class="edge">
<title>\\Tina4\\DataSQLite3&#45;&gt;\\Tina4\\DataBase</title>
<path fill="none" stroke="#000000" d="M175.2146,-995.9356C171.4288,-993.2746 167.8704,-990.3003 164.8086,-987 105.5696,-923.1474 75.7854,-821.0166 64.2667,-772.0134"/>
<polygon fill="none" stroke="#000000" points="67.6481,-771.0982 62.0217,-762.1207 60.8217,-772.6474 67.6481,-771.0982"/>
</g>
<!-- \\Tina4\\Post -->
<g id="node11" class="node">
<title>\\Tina4\\Post</title>
<polygon fill="none" stroke="#000000" points="242.7156,-384 188.7156,-384 188.7156,-348 242.7156,-348 242.7156,-384"/>
<text text-anchor="middle" x="215.7156" y="-362.7" font-family="Courier,monospace" font-size="11.00" fill="#000000">Post</text>
</g>
<!-- \\Tina4\\Post&#45;&gt;\\Tina4\\Route -->
<g id="edge4" class="edge">
<title>\\Tina4\\Post&#45;&gt;\\Tina4\\Route</title>
<path fill="none" stroke="#000000" d="M188.6728,-375.2829C162.898,-384.1306 123.8844,-397.5227 95.2696,-407.3453"/>
<polygon fill="none" stroke="#000000" points="93.9425,-404.1003 85.6206,-410.6575 96.2153,-410.7211 93.9425,-404.1003"/>
</g>
<!-- \\Tina4\\Any -->
<g id="node13" class="node">
<title>\\Tina4\\Any</title>
<polygon fill="none" stroke="#000000" points="242.7156,-330 188.7156,-330 188.7156,-294 242.7156,-294 242.7156,-330"/>
<text text-anchor="middle" x="215.7156" y="-308.7" font-family="Courier,monospace" font-size="11.00" fill="#000000">Any</text>
</g>
<!-- \\Tina4\\Any&#45;&gt;\\Tina4\\Route -->
<g id="edge5" class="edge">
<title>\\Tina4\\Any&#45;&gt;\\Tina4\\Route</title>
<path fill="none" stroke="#000000" d="M188.5641,-325.3531C180.7467,-329.4762 172.3087,-334.2016 164.8086,-339 137.703,-356.3417 108.758,-378.6487 87.9107,-395.4611"/>
<polygon fill="none" stroke="#000000" points="85.613,-392.8183 80.06,-401.8414 90.0278,-398.2506 85.613,-392.8183"/>
</g>
<!-- \\Tina4\\DataFirebird -->
<g id="node14" class="node">
<title>\\Tina4\\DataFirebird</title>
<polygon fill="none" stroke="#000000" points="263.4287,-762 168.0024,-762 168.0024,-726 263.4287,-726 263.4287,-762"/>
<text text-anchor="middle" x="215.7156" y="-740.7" font-family="Courier,monospace" font-size="11.00" fill="#000000">DataFirebird</text>
</g>
<!-- \\Tina4\\DataFirebird&#45;&gt;\\Tina4\\DataBase -->
<g id="edge6" class="edge">
<title>\\Tina4\\DataFirebird&#45;&gt;\\Tina4\\DataBase</title>
<path fill="none" stroke="#000000" d="M168.0901,-744C147.452,-744 123.4195,-744 103.1192,-744"/>
<polygon fill="none" stroke="#000000" points="102.8814,-740.5001 92.8813,-744 102.8813,-747.5001 102.8814,-740.5001"/>
</g>
<!-- \\Tina4\\Emailer -->
<g id="node15" class="node">
<title>\\Tina4\\Emailer</title>
<polygon fill="none" stroke="#000000" points="246.9234,-438 184.5077,-438 184.5077,-402 246.9234,-402 246.9234,-438"/>
<text text-anchor="middle" x="215.7156" y="-416.7" font-family="Courier,monospace" font-size="11.00" fill="#000000">Emailer</text>
</g>
<!-- \\Tina4\\Put -->
<g id="node16" class="node">
<title>\\Tina4\\Put</title>
<polygon fill="none" stroke="#000000" points="242.7156,-168 188.7156,-168 188.7156,-132 242.7156,-132 242.7156,-168"/>
<text text-anchor="middle" x="215.7156" y="-146.7" font-family="Courier,monospace" font-size="11.00" fill="#000000">Put</text>
</g>
<!-- \\Tina4\\Put&#45;&gt;\\Tina4\\Route -->
<g id="edge7" class="edge">
<title>\\Tina4\\Put&#45;&gt;\\Tina4\\Route</title>
<path fill="none" stroke="#000000" d="M188.5705,-160.2063C180.1323,-164.4023 171.3405,-169.9594 164.8086,-177 105.5696,-240.8526 75.7854,-342.9834 64.2667,-391.9866"/>
<polygon fill="none" stroke="#000000" points="60.8217,-391.3526 62.0217,-401.8793 67.6481,-392.9018 60.8217,-391.3526"/>
</g>
<!-- \\Tina4\\Patch -->
<g id="node17" class="node">
<title>\\Tina4\\Patch</title>
<polygon fill="none" stroke="#000000" points="242.7156,-546 188.7156,-546 188.7156,-510 242.7156,-510 242.7156,-546"/>
<text text-anchor="middle" x="215.7156" y="-524.7" font-family="Courier,monospace" font-size="11.00" fill="#000000">Patch</text>
</g>
<!-- \\Tina4\\Patch&#45;&gt;\\Tina4\\Route -->
<g id="edge8" class="edge">
<title>\\Tina4\\Patch&#45;&gt;\\Tina4\\Route</title>
<path fill="none" stroke="#000000" d="M188.5641,-514.6469C180.7467,-510.5238 172.3087,-505.7984 164.8086,-501 137.703,-483.6583 108.758,-461.3513 87.9107,-444.5389"/>
<polygon fill="none" stroke="#000000" points="90.0278,-441.7494 80.06,-438.1586 85.613,-447.1817 90.0278,-441.7494"/>
</g>
<!-- \\Tina4\\Auth -->
<g id="node18" class="node">
<title>\\Tina4\\Auth</title>
<polygon fill="none" stroke="#000000" points="242.7156,-276 188.7156,-276 188.7156,-240 242.7156,-240 242.7156,-276"/>
<text text-anchor="middle" x="215.7156" y="-254.7" font-family="Courier,monospace" font-size="11.00" fill="#000000">Auth</text>
</g>
<!-- \\Tina4\\DataField -->
<g id="node19" class="node">
<title>\\Tina4\\DataField</title>
<polygon fill="none" stroke="#000000" points="253.6264,-222 177.8048,-222 177.8048,-186 253.6264,-186 253.6264,-222"/>
<text text-anchor="middle" x="215.7156" y="-200.7" font-family="Courier,monospace" font-size="11.00" fill="#000000">DataField</text>
</g>
<!-- \\Tina4\\Delete -->
<g id="node20" class="node">
<title>\\Tina4\\Delete</title>
<polygon fill="none" stroke="#000000" points="243.3234,-492 188.1077,-492 188.1077,-456 243.3234,-456 243.3234,-492"/>
<text text-anchor="middle" x="215.7156" y="-470.7" font-family="Courier,monospace" font-size="11.00" fill="#000000">Delete</text>
</g>
<!-- \\Tina4\\Delete&#45;&gt;\\Tina4\\Route -->
<g id="edge9" class="edge">
<title>\\Tina4\\Delete&#45;&gt;\\Tina4\\Route</title>
<path fill="none" stroke="#000000" d="M187.9536,-464.4702C162.1526,-455.6135 123.5479,-442.3617 95.1907,-432.6276"/>
<polygon fill="none" stroke="#000000" points="96.2202,-429.2806 85.6255,-429.3442 93.9474,-435.9014 96.2202,-429.2806"/>
</g>
<!-- \\Tina4\\Response -->
<g id="node21" class="node">
<title>\\Tina4\\Response</title>
<polygon fill="none" stroke="#000000" points="250.0244,-114 181.4067,-114 181.4067,-78 250.0244,-78 250.0244,-114"/>
<text text-anchor="middle" x="215.7156" y="-92.7" font-family="Courier,monospace" font-size="11.00" fill="#000000">Response</text>
</g>
<!-- \\Tina4\\Request -->
<g id="node22" class="node">
<title>\\Tina4\\Request</title>
<polygon fill="none" stroke="#000000" points="246.9234,-60 184.5077,-60 184.5077,-24 246.9234,-24 246.9234,-60"/>
<text text-anchor="middle" x="215.7156" y="-38.7" font-family="Courier,monospace" font-size="11.00" fill="#000000">Request</text>
</g>
</g>
</svg>
