<?xml version="1.0" encoding="UTF-8" standalone="no"?>
<!DOCTYPE svg PUBLIC "-//W3C//DTD SVG 1.1//EN"
 "http://www.w3.org/Graphics/SVG/1.1/DTD/svg11.dtd">
<!-- Generated by graphviz version 2.40.1 (20161225.0304)
 -->
<!-- Title: G Pages: 1 -->
<svg width="299pt" height="1048pt"
 viewBox="0.00 0.00 298.62 1048.00" xmlns="http://www.w3.org/2000/svg" xmlns:xlink="http://www.w3.org/1999/xlink">
<g id="graph0" class="graph" transform="scale(1 1) rotate(0) translate(4 1044)">
<title>G</title>
<polygon fill="#ffffff" stroke="transparent" points="-4,4 -4,-1044 294.6226,-1044 294.6226,4 -4,4"/>
<g id="clust1" class="cluster">
<title>cluster_Global</title>
<path fill="none" stroke="#c0c0c0" d="M20,-8C20,-8 270.6226,-8 270.6226,-8 276.6226,-8 282.6226,-14 282.6226,-20 282.6226,-20 282.6226,-1020 282.6226,-1020 282.6226,-1026 276.6226,-1032 270.6226,-1032 270.6226,-1032 20,-1032 20,-1032 14,-1032 8,-1026 8,-1020 8,-1020 8,-20 8,-20 8,-14 14,-8 20,-8"/>
<text text-anchor="middle" x="145.3113" y="-1019.2" font-family="Times,serif" font-size="11.00" fill="#c0c0c0">Global</text>
</g>
<g id="clust2" class="cluster">
<title>cluster_\Tina4</title>
<path fill="none" stroke="#c0c0c0" d="M28,-16C28,-16 262.6226,-16 262.6226,-16 268.6226,-16 274.6226,-22 274.6226,-28 274.6226,-28 274.6226,-993 274.6226,-993 274.6226,-999 268.6226,-1005 262.6226,-1005 262.6226,-1005 28,-1005 28,-1005 22,-1005 16,-999 16,-993 16,-993 16,-28 16,-28 16,-22 22,-16 28,-16"/>
<text text-anchor="middle" x="145.3113" y="-992.2" font-family="Times,serif" font-size="11.00" fill="#c0c0c0">Tina4</text>
</g>
<!-- \\Tina4\\ORM -->
<g id="node1" class="node">
<title>\\Tina4\\ORM</title>
<polygon fill="none" stroke="#000000" points="242.7156,-978 188.7156,-978 188.7156,-942 242.7156,-942 242.7156,-978"/>
<text text-anchor="middle" x="215.7156" y="-956.7" font-family="Courier,monospace" font-size="11.00" fill="#000000">ORM</text>
</g>
<!-- \\Tina4\\DataMySQL -->
<g id="node2" class="node">
<title>\\Tina4\\DataMySQL</title>
<polygon fill="none" stroke="#000000" points="253.6264,-924 177.8048,-924 177.8048,-888 253.6264,-888 253.6264,-924"/>
<text text-anchor="middle" x="215.7156" y="-902.7" font-family="Courier,monospace" font-size="11.00" fill="#000000">DataMySQL</text>
</g>
<!-- \\Tina4\\DataBase -->
<g id="node10" class="node">
<title>\\Tina4\\DataBase</title>
<polygon fill="none" stroke="#000000" points="92.7132,-654 24.0954,-654 24.0954,-618 92.7132,-618 92.7132,-654"/>
<text text-anchor="middle" x="58.4043" y="-632.7" font-family="Courier,monospace" font-size="11.00" fill="#000000">DataBase</text>
</g>
<!-- \\Tina4\\DataMySQL&#45;&gt;\\Tina4\\DataBase -->
<g id="edge1" class="edge">
<title>\\Tina4\\DataMySQL&#45;&gt;\\Tina4\\DataBase</title>
<path fill="none" stroke="#000000" d="M177.7692,-889.6633C173.0349,-886.5804 168.5508,-883.0337 164.8086,-879 105.5696,-815.1474 75.7854,-713.0166 64.2667,-664.0134"/>
<polygon fill="none" stroke="#000000" points="67.6481,-663.0982 62.0217,-654.1207 60.8217,-664.6474 67.6481,-663.0982"/>
</g>
<!-- \\Tina4\\DataResult -->
<g id="node3" class="node">
<title>\\Tina4\\DataResult</title>
<polygon fill="none" stroke="#000000" points="256.7263,-870 174.7048,-870 174.7048,-834 256.7263,-834 256.7263,-870"/>
<text text-anchor="middle" x="215.7156" y="-848.7" font-family="Courier,monospace" font-size="11.00" fill="#000000">DataResult</text>
</g>
<!-- \\Tina4\\Routing -->
<g id="node4" class="node">
<title>\\Tina4\\Routing</title>
<polygon fill="none" stroke="#000000" points="246.9234,-816 184.5077,-816 184.5077,-780 246.9234,-780 246.9234,-816"/>
<text text-anchor="middle" x="215.7156" y="-794.7" font-family="Courier,monospace" font-size="11.00" fill="#000000">Routing</text>
</g>
<!-- \\Tina4\\ParseTemplate -->
<g id="node5" class="node">
<title>\\Tina4\\ParseTemplate</title>
<polygon fill="none" stroke="#000000" points="266.5297,-762 164.9014,-762 164.9014,-726 266.5297,-726 266.5297,-762"/>
<text text-anchor="middle" x="215.7156" y="-740.7" font-family="Courier,monospace" font-size="11.00" fill="#000000">ParseTemplate</text>
</g>
<!-- \\Tina4\\DataError -->
<g id="node6" class="node">
<title>\\Tina4\\DataError</title>
<polygon fill="none" stroke="#000000" points="253.6264,-708 177.8048,-708 177.8048,-672 253.6264,-672 253.6264,-708"/>
<text text-anchor="middle" x="215.7156" y="-686.7" font-family="Courier,monospace" font-size="11.00" fill="#000000">DataError</text>
</g>
<!-- \\Tina4\\Get -->
<g id="node7" class="node">
<title>\\Tina4\\Get</title>
<polygon fill="none" stroke="#000000" points="242.7156,-222 188.7156,-222 188.7156,-186 242.7156,-186 242.7156,-222"/>
<text text-anchor="middle" x="215.7156" y="-200.7" font-family="Courier,monospace" font-size="11.00" fill="#000000">Get</text>
</g>
<!-- \\Tina4\\Route -->
<g id="node12" class="node">
<title>\\Tina4\\Route</title>
<polygon fill="none" stroke="#000000" points="85.4043,-330 31.4043,-330 31.4043,-294 85.4043,-294 85.4043,-330"/>
<text text-anchor="middle" x="58.4043" y="-308.7" font-family="Courier,monospace" font-size="11.00" fill="#000000">Route</text>
</g>
<!-- \\Tina4\\Get&#45;&gt;\\Tina4\\Route -->
<g id="edge2" class="edge">
<title>\\Tina4\\Get&#45;&gt;\\Tina4\\Route</title>
<path fill="none" stroke="#000000" d="M188.5641,-217.3531C180.7467,-221.4762 172.3087,-226.2016 164.8086,-231 137.703,-248.3417 108.758,-270.6487 87.9107,-287.4611"/>
<polygon fill="none" stroke="#000000" points="85.613,-284.8183 80.06,-293.8414 90.0278,-290.2506 85.613,-284.8183"/>
</g>
<!-- \\Tina4\\DataRecord -->
<g id="node8" class="node">
<title>\\Tina4\\DataRecord</title>
<polygon fill="none" stroke="#000000" points="256.7263,-600 174.7048,-600 174.7048,-564 256.7263,-564 256.7263,-600"/>
<text text-anchor="middle" x="215.7156" y="-578.7" font-family="Courier,monospace" font-size="11.00" fill="#000000">DataRecord</text>
</g>
<!-- \\Tina4\\DataSQLite3 -->
<g id="node9" class="node">
<title>\\Tina4\\DataSQLite3</title>
<polygon fill="none" stroke="#000000" points="259.8282,-654 171.6029,-654 171.6029,-618 259.8282,-618 259.8282,-654"/>
<text text-anchor="middle" x="215.7156" y="-632.7" font-family="Courier,monospace" font-size="11.00" fill="#000000">DataSQLite3</text>
</g>
<!-- \\Tina4\\DataSQLite3&#45;&gt;\\Tina4\\DataBase -->
<g id="edge3" class="edge">
<title>\\Tina4\\DataSQLite3&#45;&gt;\\Tina4\\DataBase</title>
<path fill="none" stroke="#000000" d="M171.477,-636C150.0784,-636 124.4465,-636 103.001,-636"/>
<polygon fill="none" stroke="#000000" points="102.8464,-632.5001 92.8464,-636 102.8464,-639.5001 102.8464,-632.5001"/>
</g>
<!-- \\Tina4\\Post -->
<g id="node11" class="node">
<title>\\Tina4\\Post</title>
<polygon fill="none" stroke="#000000" points="242.7156,-438 188.7156,-438 188.7156,-402 242.7156,-402 242.7156,-438"/>
<text text-anchor="middle" x="215.7156" y="-416.7" font-family="Courier,monospace" font-size="11.00" fill="#000000">Post</text>
</g>
<!-- \\Tina4\\Post&#45;&gt;\\Tina4\\Route -->
<g id="edge4" class="edge">
<title>\\Tina4\\Post&#45;&gt;\\Tina4\\Route</title>
<path fill="none" stroke="#000000" d="M188.5641,-406.6469C180.7467,-402.5238 172.3087,-397.7984 164.8086,-393 137.703,-375.6583 108.758,-353.3513 87.9107,-336.5389"/>
<polygon fill="none" stroke="#000000" points="90.0278,-333.7494 80.06,-330.1586 85.613,-339.1817 90.0278,-333.7494"/>
</g>
<!-- \\Tina4\\Any -->
<g id="node13" class="node">
<title>\\Tina4\\Any</title>
<polygon fill="none" stroke="#000000" points="242.7156,-384 188.7156,-384 188.7156,-348 242.7156,-348 242.7156,-384"/>
<text text-anchor="middle" x="215.7156" y="-362.7" font-family="Courier,monospace" font-size="11.00" fill="#000000">Any</text>
</g>
<!-- \\Tina4\\Any&#45;&gt;\\Tina4\\Route -->
<g id="edge5" class="edge">
<title>\\Tina4\\Any&#45;&gt;\\Tina4\\Route</title>
<path fill="none" stroke="#000000" d="M188.6728,-356.7171C162.898,-347.8694 123.8844,-334.4773 95.2696,-324.6547"/>
<polygon fill="none" stroke="#000000" points="96.2153,-321.2789 85.6206,-321.3425 93.9425,-327.8997 96.2153,-321.2789"/>
</g>
<!-- \\Tina4\\DataFirebird -->
<g id="node14" class="node">
<title>\\Tina4\\DataFirebird</title>
<polygon fill="none" stroke="#000000" points="263.4287,-546 168.0024,-546 168.0024,-510 263.4287,-510 263.4287,-546"/>
<text text-anchor="middle" x="215.7156" y="-524.7" font-family="Courier,monospace" font-size="11.00" fill="#000000">DataFirebird</text>
</g>
<!-- \\Tina4\\DataFirebird&#45;&gt;\\Tina4\\DataBase -->
<g id="edge6" class="edge">
<title>\\Tina4\\DataFirebird&#45;&gt;\\Tina4\\DataBase</title>
<path fill="none" stroke="#000000" d="M179.9636,-546.0095C174.8002,-548.8837 169.612,-551.9269 164.8086,-555 137.703,-572.3417 108.758,-594.6487 87.9107,-611.4611"/>
<polygon fill="none" stroke="#000000" points="85.613,-608.8183 80.06,-617.8414 90.0278,-614.2506 85.613,-608.8183"/>
</g>
<!-- \\Tina4\\Emailer -->
<g id="node15" class="node">
<title>\\Tina4\\Emailer</title>
<polygon fill="none" stroke="#000000" points="246.9234,-330 184.5077,-330 184.5077,-294 246.9234,-294 246.9234,-330"/>
<text text-anchor="middle" x="215.7156" y="-308.7" font-family="Courier,monospace" font-size="11.00" fill="#000000">Emailer</text>
</g>
<!-- \\Tina4\\Put -->
<g id="node16" class="node">
<title>\\Tina4\\Put</title>
<polygon fill="none" stroke="#000000" points="242.7156,-276 188.7156,-276 188.7156,-240 242.7156,-240 242.7156,-276"/>
<text text-anchor="middle" x="215.7156" y="-254.7" font-family="Courier,monospace" font-size="11.00" fill="#000000">Put</text>
</g>
<!-- \\Tina4\\Put&#45;&gt;\\Tina4\\Route -->
<g id="edge7" class="edge">
<title>\\Tina4\\Put&#45;&gt;\\Tina4\\Route</title>
<path fill="none" stroke="#000000" d="M188.6728,-267.2829C162.898,-276.1306 123.8844,-289.5227 95.2696,-299.3453"/>
<polygon fill="none" stroke="#000000" points="93.9425,-296.1003 85.6206,-302.6575 96.2153,-302.7211 93.9425,-296.1003"/>
</g>
<!-- \\Tina4\\Patch -->
<g id="node17" class="node">
<title>\\Tina4\\Patch</title>
<polygon fill="none" stroke="#000000" points="242.7156,-60 188.7156,-60 188.7156,-24 242.7156,-24 242.7156,-60"/>
<text text-anchor="middle" x="215.7156" y="-38.7" font-family="Courier,monospace" font-size="11.00" fill="#000000">Patch</text>
</g>
<!-- \\Tina4\\Patch&#45;&gt;\\Tina4\\Route -->
<g id="edge8" class="edge">
<title>\\Tina4\\Patch&#45;&gt;\\Tina4\\Route</title>
<path fill="none" stroke="#000000" d="M188.5705,-52.2063C180.1323,-56.4023 171.3405,-61.9594 164.8086,-69 105.5696,-132.8526 75.7854,-234.9834 64.2667,-283.9866"/>
<polygon fill="none" stroke="#000000" points="60.8217,-283.3526 62.0217,-293.8793 67.6481,-284.9018 60.8217,-283.3526"/>
</g>
<!-- \\Tina4\\Auth -->
<g id="node18" class="node">
<title>\\Tina4\\Auth</title>
<polygon fill="none" stroke="#000000" points="242.7156,-168 188.7156,-168 188.7156,-132 242.7156,-132 242.7156,-168"/>
<text text-anchor="middle" x="215.7156" y="-146.7" font-family="Courier,monospace" font-size="11.00" fill="#000000">Auth</text>
</g>
<!-- \\Tina4\\DataField -->
<g id="node19" class="node">
<title>\\Tina4\\DataField</title>
<polygon fill="none" stroke="#000000" points="253.6264,-114 177.8048,-114 177.8048,-78 253.6264,-78 253.6264,-114"/>
<text text-anchor="middle" x="215.7156" y="-92.7" font-family="Courier,monospace" font-size="11.00" fill="#000000">DataField</text>
</g>
<!-- \\Tina4\\Delete -->
<g id="node20" class="node">
<title>\\Tina4\\Delete</title>
<polygon fill="none" stroke="#000000" points="243.3234,-492 188.1077,-492 188.1077,-456 243.3234,-456 243.3234,-492"/>
<text text-anchor="middle" x="215.7156" y="-470.7" font-family="Courier,monospace" font-size="11.00" fill="#000000">Delete</text>
</g>
<!-- \\Tina4\\Delete&#45;&gt;\\Tina4\\Route -->
<g id="edge9" class="edge">
<title>\\Tina4\\Delete&#45;&gt;\\Tina4\\Route</title>
<path fill="none" stroke="#000000" d="M187.98,-461.9422C180.0653,-457.819 171.7212,-452.7692 164.8086,-447 126.8115,-415.288 93.3898,-368.007 74.5619,-338.6379"/>
<polygon fill="none" stroke="#000000" points="77.494,-336.7259 69.1984,-330.1355 71.5736,-340.4607 77.494,-336.7259"/>
</g>
</g>
</svg>
