<?xml version="1.0" encoding="UTF-8"?><svg xmlns="http://www.w3.org/2000/svg" xmlns:xlink="http://www.w3.org/1999/xlink" viewBox="0 0 586 586.79"><defs><style>.cls-1{fill:url(#_Áåçûìÿííûé_ãðàäèåíò_31-2);}.cls-1,.cls-2,.cls-3,.cls-4,.cls-5,.cls-6,.cls-7,.cls-8,.cls-9,.cls-10,.cls-11,.cls-12,.cls-13,.cls-14,.cls-15,.cls-16{fill-rule:evenodd;}.cls-2{fill:url(#radial-gradient-2);}.cls-3{fill:url(#_Áåçûìÿííûé_ãðàäèåíò_37);}.cls-3,.cls-5,.cls-8,.cls-11,.cls-15,.cls-16{mix-blend-mode:multiply;}.cls-4,.cls-14{fill:#fff;}.cls-17{fill:#1e245c;}.cls-18{fill:url(#radial-gradient-5);}.cls-19{fill:url(#radial-gradient-4);}.cls-20{isolation:isolate;}.cls-5{fill:url(#_Áåçûìÿííûé_ãðàäèåíò_34);}.cls-21{opacity:.35;}.cls-6{fill:url(#radial-gradient-6);}.cls-7{fill:url(#_Áåçûìÿííûé_ãðàäèåíò_25);}.cls-22{fill:#020fb5;}.cls-23{fill:url(#radial-gradient);}.cls-8{fill:url(#_Áåçûìÿííûé_ãðàäèåíò_34-2);}.cls-24{fill:#1bf4f6;}.cls-9{fill:#d3ffdd;}.cls-9,.cls-14{mix-blend-mode:soft-light;}.cls-25{mix-blend-mode:color-dodge;}.cls-10{fill:url(#_Áåçûìÿííûé_ãðàäèåíò_35);}.cls-11{opacity:.5;}.cls-11,.cls-15{fill:#6678b6;}.cls-26{fill:url(#radial-gradient-3);}.cls-12{fill:url(#_Áåçûìÿííûé_ãðàäèåíò_32);}.cls-13{fill:url(#_Áåçûìÿííûé_ãðàäèåíò_31);}.cls-27{fill:#4888ff;}.cls-16{fill:url(#_Áåçûìÿííûé_ãðàäèåíò_30);}</style><radialGradient id="radial-gradient" cx="513.05" cy="438.02" fx="513.05" fy="438.02" r="774.82" gradientTransform="translate(-229.18 -184.75) scale(1.03)" gradientUnits="userSpaceOnUse"><stop offset="0" stop-color="#fff"/><stop offset=".2" stop-color="#ecedf3"/><stop offset=".61" stop-color="#bbc0d6"/><stop offset="1" stop-color="#878fb7"/></radialGradient><radialGradient id="radial-gradient-2" cx="236.38" cy="623.75" fx="236.38" fy="623.75" r="119.2" gradientTransform="translate(-205.52 513.04) rotate(-59.78) scale(1.04 .45)" gradientUnits="userSpaceOnUse"><stop offset="0" stop-color="#c7feff"/><stop offset=".16" stop-color="#bdebff"/><stop offset=".46" stop-color="#a4bcff"/><stop offset=".97" stop-color="#637bff"/></radialGradient><linearGradient id="_Áåçûìÿííûé_ãðàäèåíò_37" x1="6706.73" y1="-363.15" x2="6805.08" y2="-363.15" gradientTransform="translate(6816.16 -894.44) rotate(165.74) scale(1 -1)" gradientUnits="userSpaceOnUse"><stop offset="0" stop-color="#687ac0"/><stop offset=".03" stop-color="#6c7ec2"/><stop offset=".5" stop-color="#bbc3e2"/><stop offset=".83" stop-color="#eceef7"/><stop offset="1" stop-color="#fff"/></linearGradient><radialGradient id="radial-gradient-3" cx="333.31" cy="501.33" fx="333.31" fy="501.33" r="70.24" gradientTransform="translate(-84.85 -203.97) scale(1.04)" gradientUnits="userSpaceOnUse"><stop offset="0" stop-color="#fff"/><stop offset=".35" stop-color="#ececff"/><stop offset="1" stop-color="#bfc1ff"/></radialGradient><radialGradient id="radial-gradient-4" cx="300.05" cy="332.75" fx="300.05" fy="332.75" r="220.54" gradientTransform="translate(-84.85 -203.97) scale(1.04)" gradientUnits="userSpaceOnUse"><stop offset="0" stop-color="#c7feff"/><stop offset=".27" stop-color="#bdebff"/><stop offset=".79" stop-color="#a4bcff"/><stop offset=".97" stop-color="#637bff"/></radialGradient><radialGradient id="radial-gradient-5" cx="330.38" cy="537.72" fx="330.38" fy="537.72" r="107.58" xlink:href="#radial-gradient-4"/><linearGradient id="_Áåçûìÿííûé_ãðàäèåíò_34" x1="6606.42" y1="-226.06" x2="6606.42" y2="-346.94" gradientTransform="translate(6837.65 -808.68) rotate(167.14) scale(1 -1)" gradientUnits="userSpaceOnUse"><stop offset="0" stop-color="#fff"/><stop offset=".28" stop-color="#ecefff"/><stop offset=".84" stop-color="#bbc6ff"/><stop offset="1" stop-color="#acbaff"/></linearGradient><linearGradient id="_Áåçûìÿííûé_ãðàäèåíò_35" x1="6460.46" y1="257.29" x2="6478.2" y2="257.29" gradientTransform="translate(7073.04 -121.77) rotate(178.31) scale(1.04 -1)" gradientUnits="userSpaceOnUse"><stop offset="0" stop-color="#1b42e1"/><stop offset=".36" stop-color="#1230ce"/><stop offset="1" stop-color="#000aa4"/></linearGradient><linearGradient id="_Áåçûìÿííûé_ãðàäèåíò_34-2" x1="6702.06" y1="-239.37" x2="6702.06" y2="-344.49" xlink:href="#_Áåçûìÿííûé_ãðàäèåíò_34"/><radialGradient id="radial-gradient-6" cx="439.16" cy="525.86" fx="439.16" fy="525.86" r="156.03" gradientTransform="translate(315.18 -140.27) rotate(63.43) scale(1.04 .32)" gradientUnits="userSpaceOnUse"><stop offset="0" stop-color="#c7feff"/><stop offset=".13" stop-color="#bdebff"/><stop offset=".4" stop-color="#a4bcff"/><stop offset=".77" stop-color="#637bff"/><stop offset="1" stop-color="#bff0ff"/></radialGradient><linearGradient id="_Áåçûìÿííûé_ãðàäèåíò_32" x1="6645.53" y1="565.48" x2="6645.53" y2="443.25" gradientTransform="translate(6919.43 338.11) rotate(-174.62) scale(1 -1)" gradientUnits="userSpaceOnUse"><stop offset="0" stop-color="#030fc6"/><stop offset=".24" stop-color="#020fb3"/><stop offset=".73" stop-color="#001082"/><stop offset="1" stop-color="#001165"/></linearGradient><radialGradient id="_Áåçûìÿííûé_ãðàäèåíò_31" cx="273.83" cy="295.2" fx="273.83" fy="295.2" r="62.11" gradientTransform="translate(-84.85 -203.97) scale(1.04)" gradientUnits="userSpaceOnUse"><stop offset="0" stop-color="#c7feff"/><stop offset=".27" stop-color="#bcebff"/><stop offset=".83" stop-color="#a2baff"/><stop offset="1" stop-color="#9aaaff"/></radialGradient><radialGradient id="_Áåçûìÿííûé_ãðàäèåíò_31-2" cx="433.83" cy="308.98" fx="433.83" fy="308.98" r="81.54" xlink:href="#_Áåçûìÿííûé_ãðàäèåíò_31"/><linearGradient id="_Áåçûìÿííûé_ãðàäèåíò_30" x1="6667.27" y1="144.67" x2="6667.27" y2="105.54" gradientTransform="translate(6936.77) rotate(-180) scale(1 -1)" gradientUnits="userSpaceOnUse"><stop offset="0" stop-color="#bfc6ff"/><stop offset=".99" stop-color="#acbaff"/><stop offset="1" stop-color="#acbaff"/></linearGradient><linearGradient id="_Áåçûìÿííûé_ãðàäèåíò_25" x1="6608" y1="388.47" x2="6637.14" y2="388.47" gradientTransform="translate(6936.77) rotate(-180) scale(1 -1)" gradientUnits="userSpaceOnUse"><stop offset="0" stop-color="#c7feff"/><stop offset=".22" stop-color="#bcebff"/><stop offset=".68" stop-color="#a2baff"/><stop offset=".82" stop-color="#9aaaff"/><stop offset=".99" stop-color="#b6ffe6"/></linearGradient></defs><g class="cls-20"><g id="Layer_2"><g id="Layer_1-2"><rect class="cls-17" width="586" height="586.79" rx="40" ry="40"/><g class="cls-21"><path class="cls-22" d="m221.7,451.97c.9-2.8-.08-5.97-2.65-7.68-3.09-2.06-7.29-1.22-9.35,1.87-2.06,3.09-1.22,7.29,1.87,9.35,2.69,1.79,6.21,1.39,8.44-.78,44.83,21.44,96.74,22.8,142.88,3.75.47.69,1.07,1.3,1.8,1.79,3.09,2.06,7.29,1.22,9.35-1.87s1.22-7.29-1.87-9.35c-3.09-2.06-7.29-1.22-9.35,1.87-.93,1.39-1.24,3-1.05,4.55-45.22,18.7-96.1,17.43-140.07-3.49Zm-8.34.87c-1.62-1.08-2.06-3.27-.98-4.89,1.08-1.62,3.27-2.06,4.89-.98,1.62,1.08,2.06,3.27.98,4.89-1.08,1.62-3.27,2.06-4.89.98Zm157.04-1.12c1.62,1.08,2.06,3.27.98,4.89s-3.27,2.06-4.89.98-2.06-3.27-.98-4.89,3.27-2.06,4.89-.98Z"/><path class="cls-22" d="m456.46,224.94c.64-.46,1.22-1.02,1.68-1.71,2.06-3.09,1.22-7.29-1.87-9.35-3.09-2.06-7.29-1.22-9.35,1.87-2.06,3.09-1.22,7.29,1.87,9.35,1.43.96,3.1,1.26,4.69,1.04,24.04,54.36,18.77,116.18-14.2,165.64-7.98,11.97-17.39,22.86-27.96,32.41-.28-.26-.57-.52-.89-.74-3.09-2.06-7.29-1.22-9.35,1.87s-1.22,7.29,1.87,9.35,7.29,1.22,9.35-1.87c1.19-1.79,1.39-3.95.76-5.85,10.94-9.82,20.67-21.05,28.9-33.4,33.57-50.35,38.94-113.27,14.51-168.62Zm-5.89-2.52c-1.62-1.08-2.06-3.27-.98-4.89,1.08-1.62,3.27-2.06,4.89-.98s2.06,3.27.98,4.89c-1.08,1.62-3.27,2.06-4.89.98Zm-45.86,209.57c-1.62-1.08-2.06-3.27-.98-4.89s3.27-2.06,4.89-.98,2.06,3.27.98,4.89-3.27,2.06-4.89.98Z"/><path class="cls-22" d="m111.06,345.22c-1.01.51-1.93,1.25-2.6,2.26-2.06,3.09-1.22,7.29,1.87,9.35,3.09,2.06,7.29,1.22,9.35-1.87s1.22-7.29-1.87-9.35c-1.11-.74-2.37-1.1-3.62-1.12-13.9-52.17-4.76-107.73,25.19-152.65,3.9-5.84,8.15-11.49,12.64-16.83,2.88,1.11,6.25.13,8.03-2.54,2.06-3.09,1.22-7.29-1.87-9.35s-7.29-1.22-9.35,1.87c-1.72,2.59-1.4,5.92.55,8.16-4.5,5.37-8.77,11.04-12.68,16.91-30.44,45.66-39.75,102.13-25.65,155.17Zm4.97,3.06c1.62,1.08,2.06,3.27.98,4.89-1.08,1.62-3.27,2.06-4.89.98-1.62-1.08-2.06-3.27-.98-4.89s3.27-2.06,4.89-.98Zm35.48-181.52c1.08-1.62,3.27-2.06,4.89-.98,1.62,1.08,2.06,3.27.98,4.89s-3.27,2.06-4.89.98-2.06-3.27-.98-4.89Z"/><path class="cls-22" d="m92.9,260.61c-2.1.07-4.14,1.1-5.39,2.98-2.06,3.09-1.22,7.29,1.87,9.35s7.29,1.22,9.35-1.87c2.06-3.09,1.22-7.29-1.87-9.35-.26-.17-.54-.3-.81-.43,4.82-27.82,15.27-53.94,31.07-77.64,14.83-22.25,33.5-41,55.49-55.76.22.19.43.4.69.57,3.09,2.06,7.29,1.22,9.35-1.87,2.06-3.09,1.22-7.29-1.87-9.35s-7.29-1.22-9.35,1.87c-1.26,1.89-1.42,4.18-.67,6.16-22.31,15-41.26,34.03-56.31,56.61-16.03,24.04-26.63,50.53-31.54,78.74Zm3.15,8.68c-1.08,1.62-3.27,2.06-4.89.98s-2.06-3.27-.98-4.89c1.08-1.62,3.27-2.06,4.89-.98,1.62,1.08,2.06,3.27.98,4.89Zm92.93-149.38c1.62,1.08,2.06,3.27.98,4.89-1.08,1.62-3.27,2.06-4.89.98-1.62-1.08-2.06-3.27-.98-4.89s3.27-2.06,4.89-.98Z"/><path class="cls-22" d="m414.14,464.39c.17.14.33.3.52.43,3.09,2.06,7.29,1.22,9.35-1.87,2.06-3.09,1.22-7.29-1.87-9.35-3.09-2.06-7.29-1.22-9.35,1.87-1.3,1.95-1.44,4.34-.6,6.36-40.65,28.56-90.12,41.15-139.58,35.52-.12-2.04-1.14-4.01-2.96-5.23-3.09-2.06-7.29-1.22-9.35,1.87-2.06,3.09-1.22,7.29,1.87,9.35,3.09,2.06,7.29,1.22,9.35-1.87.2-.31.36-.63.51-.95,50.35,5.79,100.74-7.03,142.11-36.13Zm6.22-8.12c1.62,1.08,2.06,3.27.98,4.89-1.08,1.62-3.27,2.06-4.89.98s-2.06-3.27-.98-4.89,3.27-2.06,4.89-.98Zm-156.4,44.4c-1.62-1.08-2.06-3.27-.98-4.89,1.08-1.62,3.27-2.06,4.89-.98s2.06,3.27.98,4.89c-1.08,1.62-3.27,2.06-4.89.98Z"/><path class="cls-22" d="m423.82,103.84c-22.09-14.73-46.22-25.44-71.73-31.86.19-2.37-.84-4.76-2.95-6.17-3.09-2.06-7.29-1.22-9.35,1.87-2.06,3.09-1.22,7.29,1.87,9.35s7.29,1.22,9.35-1.87c.03-.04.04-.08.06-.12,25.24,6.32,49.11,16.91,70.96,31.48,36.26,24.18,64.6,57.91,82.06,97.6-.74.48-1.39,1.12-1.91,1.9-2.06,3.09-1.22,7.29,1.87,9.35,3.09,2.06,7.29,1.22,9.35-1.87,2.06-3.09,1.22-7.29-1.87-9.35-1.34-.9-2.89-1.21-4.38-1.07-17.7-40.36-46.48-74.66-83.33-99.23Zm-80.38-29.49c-1.62-1.08-2.06-3.27-.98-4.89s3.27-2.06,4.89-.98c1.62,1.08,2.06,3.27.98,4.89-1.08,1.62-3.27,2.06-4.89.98Zm166.31,132.46c1.62,1.08,2.06,3.27.98,4.89-1.08,1.62-3.27,2.06-4.89.98s-2.06-3.27-.98-4.89,3.27-2.06,4.89-.98Z"/><path class="cls-22" d="m115.46,151.53c-2.88-1.1-6.24-.12-8.02,2.55-2.06,3.09-1.22,7.29,1.87,9.35,3.09,2.06,7.29,1.22,9.35-1.87,1.73-2.59,1.4-5.94-.56-8.17,31.61-39.43,76-67.42,125.34-79.04.51,1.07,1.27,2.03,2.33,2.73,3.09,2.06,7.29,1.22,9.35-1.87s1.22-7.29-1.87-9.35-7.29-1.22-9.35,1.87c-.71,1.07-1.06,2.27-1.1,3.47-50.14,11.79-95.24,40.24-127.33,80.34Zm.53,8.24c-1.08,1.62-3.27,2.06-4.89.98s-2.06-3.27-.98-4.89c1.08-1.62,3.27-2.06,4.89-.98,1.62,1.08,2.06,3.27.98,4.89Zm135.48-91.25c1.62,1.08,2.06,3.27.98,4.89-1.08,1.62-3.27,2.06-4.89.98s-2.06-3.27-.98-4.89,3.27-2.06,4.89-.98Z"/><path class="cls-22" d="m167.54,488.24c50.52,33.68,111.13,46.03,170.76,34.83.51.96,1.22,1.82,2.18,2.46,3.09,2.06,7.29,1.22,9.35-1.87,2.06-3.09,1.22-7.29-1.87-9.35-3.09-2.06-7.29-1.22-9.35,1.87-.77,1.16-1.14,2.48-1.13,3.77-58.73,10.98-118.4-1.21-168.16-34.38-20.64-13.76-38.72-30.58-53.76-50,.14-.17.3-.33.42-.52,2.06-3.09,1.22-7.29-1.87-9.35-3.09-2.06-7.29-1.22-9.35,1.87-2.06,3.09-1.22,7.29,1.87,9.35,1.96,1.3,4.35,1.44,6.37.59,15.26,19.7,33.6,36.77,54.54,50.73Zm178.64,28.74c1.62,1.08,2.06,3.27.98,4.89s-3.27,2.06-4.89.98-2.06-3.27-.98-4.89,3.27-2.06,4.89-.98Zm-237.76-82.73c-1.62-1.08-2.06-3.27-.98-4.89s3.27-2.06,4.89-.98c1.62,1.08,2.06,3.27.98,4.89-1.08,1.62-3.27,2.06-4.89.98Z"/><path class="cls-22" d="m422.93,503.91c-3.09-2.06-7.29-1.22-9.35,1.87-1.22,1.84-1.4,4.05-.72,5.99-79.94,43.34-176.32,39.23-252.19-10.74,1.01-2.84.03-6.12-2.59-7.87-3.09-2.06-7.29-1.22-9.35,1.87-2.06,3.09-1.22,7.29,1.87,9.35,2.64,1.76,6.07,1.39,8.3-.67,76.93,50.68,174.7,54.81,255.74,10.76.26.24.51.47.81.67,3.09,2.06,7.29,1.22,9.35-1.87,2.06-3.09,1.22-7.29-1.87-9.35Zm-270.55-2.21c-1.62-1.08-2.06-3.27-.98-4.89s3.27-2.06,4.89-.98c1.62,1.08,2.06,3.27.98,4.89-1.08,1.62-3.27,2.06-4.89.98Zm264.85,10.76c-1.62-1.08-2.06-3.27-.98-4.89,1.08-1.62,3.27-2.06,4.89-.98s2.06,3.27.98,4.89c-1.08,1.62-3.27,2.06-4.89.98Z"/><path class="cls-22" d="m468.62,449.19c6.93-7.85,13.41-16.24,19.25-25.01,28.03-42.05,41.3-90.78,38.44-141.04,1.3-.47,2.47-1.33,3.3-2.57,2.06-3.09,1.22-7.29-1.87-9.35-3.09-2.06-7.29-1.22-9.35,1.87-2.06,3.09-1.22,7.29,1.87,9.35.88.59,1.86.92,2.85,1.05,2.78,49.5-10.3,97.49-37.92,138.91-5.76,8.64-12.16,16.92-18.99,24.66-3.02-1.6-6.82-.72-8.76,2.18-2.06,3.09-1.22,7.29,1.87,9.35s7.29,1.22,9.35-1.87c1.57-2.35,1.45-5.33-.05-7.54Zm52.45-174.31c1.08-1.62,3.27-2.06,4.89-.98,1.62,1.08,2.06,3.27.98,4.89s-3.27,2.06-4.89.98-2.06-3.27-.98-4.89Zm-59.97,181.04c-1.62-1.08-2.06-3.27-.98-4.89,1.08-1.62,3.27-2.06,4.89-.98,1.62,1.08,2.06,3.27.98,4.89-1.08,1.62-3.27,2.06-4.89.98Z"/><path class="cls-22" d="m326.1,487.25c3.09,2.06,7.29,1.22,9.35-1.87,2.06-3.09,1.22-7.29-1.87-9.35s-7.29-1.22-9.35,1.87c-.81,1.22-1.16,2.61-1.11,3.97-46.11,6.83-92.8-3.62-131.65-29.53-18.31-12.21-34.13-27.29-47.06-44.84.23-.25.45-.5.65-.79,2.06-3.09,1.22-7.29-1.87-9.35-3.09-2.06-7.29-1.22-9.35,1.87s-1.22,7.29,1.87,9.35c1.85,1.23,4.08,1.41,6.03.71,13.16,17.9,29.29,33.28,47.95,45.72,39.64,26.43,87.3,37.04,134.34,29.97.5.88,1.18,1.67,2.08,2.26Zm-188.61-81.34c-1.62-1.08-2.06-3.27-.98-4.89,1.08-1.62,3.27-2.06,4.89-.98s2.06,3.27.98,4.89c-1.08,1.62-3.27,2.06-4.89.98Zm194.31,72.79c1.62,1.08,2.06,3.27.98,4.89s-3.27,2.06-4.89.98c-1.62-1.08-2.06-3.27-.98-4.89s3.27-2.06,4.89-.98Z"/><path class="cls-22" d="m416.97,123.38c-2.64-1.76-6.06-1.39-8.3.67-54.49-35.8-123.13-43.61-184.36-21.03-.48-.72-1.1-1.36-1.87-1.87-3.09-2.06-7.29-1.22-9.35,1.87-2.06,3.09-1.22,7.29,1.87,9.35,3.09,2.06,7.29,1.22,9.35-1.87.91-1.36,1.22-2.93,1.06-4.44,60.28-22.24,127.86-14.56,181.52,20.68-1.01,2.84-.04,6.12,2.59,7.87,3.09,2.06,7.29,1.22,9.35-1.87,2.06-3.09,1.22-7.29-1.87-9.35Zm-200.22-13.7c-1.62-1.08-2.06-3.27-.98-4.89s3.27-2.06,4.89-.98c1.62,1.08,2.06,3.27.98,4.89s-3.27,2.06-4.89.98Zm194.52,22.24c-1.62-1.08-2.06-3.27-.98-4.89,1.08-1.62,3.27-2.06,4.89-.98s2.06,3.27.98,4.89-3.27,2.06-4.89.98Z"/><path class="cls-22" d="m485.04,253.14c-1.06-.71-2.25-1.05-3.44-1.1-11.16-47.22-39.5-88.02-79.93-114.97-32.37-21.58-69.94-32.66-108.68-32.08-.44-1.45-1.33-2.77-2.68-3.68-3.09-2.06-7.29-1.22-9.35,1.87-2.06,3.09-1.23,7.29,1.87,9.35,3.09,2.06,7.29,1.22,9.35-1.87.51-.77.84-1.61,1.01-2.46,38.03-.54,74.92,10.35,106.7,31.54,39.72,26.48,67.57,66.54,78.56,112.93-1.08.5-2.05,1.28-2.75,2.34-2.06,3.09-1.22,7.29,1.87,9.35,3.09,2.06,7.29,1.22,9.35-1.87,2.06-3.09,1.22-7.29-1.87-9.35Zm-200.44-143.28c-1.62-1.08-2.06-3.27-.98-4.89s3.27-2.06,4.89-.98c1.62,1.08,2.06,3.27.98,4.89s-3.27,2.06-4.89.98Zm194.74,151.83c-1.62-1.08-2.06-3.27-.98-4.89,1.08-1.62,3.27-2.06,4.89-.98,1.62,1.08,2.06,3.27.98,4.89-1.08,1.62-3.27,2.06-4.89.98Z"/><path class="cls-22" d="m488.2,291.53c-3.09-2.06-7.29-1.22-9.35,1.87-2.06,3.09-1.22,7.29,1.87,9.35.83.55,1.74.88,2.66,1.03-1.39,34.36-12.21,67.69-31.4,96.47-23,34.5-55.76,59.79-94.8,73.28-.51-1.03-1.25-1.95-2.27-2.63-3.09-2.06-7.29-1.22-9.35,1.87s-1.22,7.29,1.87,9.35c3.09,2.06,7.29,1.22,9.35-1.87.73-1.1,1.08-2.33,1.11-3.56,39.86-13.69,73.31-39.47,96.77-74.66,19.59-29.38,30.62-63.43,31.96-98.53,1.36-.46,2.6-1.33,3.46-2.62,2.06-3.09,1.22-7.29-1.87-9.35Zm-138.99,187.91c-1.62-1.08-2.06-3.27-.98-4.89,1.08-1.62,3.27-2.06,4.89-.98s2.06,3.27.98,4.89c-1.08,1.62-3.27,2.06-4.89.98Zm132.32-184.26c1.08-1.62,3.27-2.06,4.89-.98s2.06,3.27.98,4.89c-1.08,1.62-3.27,2.06-4.89.98-1.62-1.08-2.06-3.27-.98-4.89Z"/><path class="cls-22" d="m462.4,173.32c2.06-3.09,1.22-7.29-1.87-9.35-3.09-2.06-7.29-1.22-9.35,1.87-2.06,3.09-1.22,7.29,1.87,9.35,1.79,1.19,3.93,1.39,5.83.77,50.09,68.08,52.56,160.59,6.11,231.3-2.84-1.01-6.12-.03-7.87,2.59-2.06,3.09-1.22,7.29,1.87,9.35,3.09,2.06,7.29,1.22,9.35-1.87,1.76-2.64,1.39-6.07-.67-8.3,47.14-71.76,44.68-165.62-6.05-234.76.28-.29.55-.6.78-.95Zm3.26,242.23c-1.08,1.62-3.27,2.06-4.89.98-1.62-1.08-2.06-3.27-.98-4.89,1.08-1.62,3.27-2.06,4.89-.98s2.06,3.27.98,4.89Zm-10.83-243.03c-1.62-1.08-2.06-3.27-.98-4.89,1.08-1.62,3.27-2.06,4.89-.98s2.06,3.27.98,4.89-3.27,2.06-4.89.98Z"/><path class="cls-22" d="m530.81,236.88c1.03.69,2.19,1.03,3.35,1.09,15.12,62.1,5.82,126.38-26.29,181.47-2.83-.97-6.06,0-7.8,2.61-2.06,3.09-1.22,7.29,1.87,9.35,3.09,2.06,7.29,1.22,9.35-1.87,1.77-2.66,1.39-6.12-.71-8.36,32.56-55.78,42.02-120.89,26.75-183.79,1.11-.5,2.11-1.29,2.83-2.38,2.06-3.09,1.22-7.29-1.87-9.35-3.09-2.06-7.29-1.22-9.35,1.87-2.06,3.09-1.22,7.29,1.87,9.35Zm-22.19,190.87c-1.08,1.62-3.27,2.06-4.89.98-1.62-1.08-2.06-3.27-.98-4.89,1.08-1.62,3.27-2.06,4.89-.98s2.06,3.27.98,4.89Zm27.89-199.42c1.62,1.08,2.06,3.27.98,4.89s-3.27,2.06-4.89.98c-1.62-1.08-2.06-3.27-.98-4.89,1.08-1.62,3.27-2.06,4.89-.98Z"/><path class="cls-22" d="m82.94,409.89c-1.61-1.07-3.51-1.34-5.25-.94-18.34-35.5-27.83-75.28-27.49-115.29,1.46-.43,2.79-1.33,3.7-2.69,2.06-3.09,1.22-7.29-1.87-9.35s-7.29-1.22-9.35,1.87c-2.06,3.09-1.22,7.29,1.87,9.35.76.51,1.59.84,2.44,1-.32,40.46,9.29,80.68,27.84,116.57-.46.39-.88.83-1.23,1.35-2.06,3.09-1.22,7.29,1.87,9.35,3.09,2.06,7.29,1.22,9.35-1.87,2.06-3.09,1.22-7.29-1.87-9.35Zm-37.58-124.62c1.08-1.62,3.27-2.06,4.89-.98s2.06,3.27.98,4.89c-1.08,1.62-3.27,2.06-4.89.98-1.62-1.08-2.06-3.27-.98-4.89Zm31.89,133.17c-1.62-1.08-2.06-3.27-.98-4.89,1.08-1.62,3.27-2.06,4.89-.98,1.62,1.08,2.06,3.27.98,4.89s-3.27,2.06-4.89.98Z"/><path class="cls-22" d="m88.16,316.82c.89.59,1.88.92,2.87,1.05,6.53,60.98,39.46,115.4,90.47,149.41,10.56,7.04,21.79,13.12,33.37,18.07-.18,2.36.85,4.74,2.95,6.14,3.09,2.06,7.29,1.22,9.35-1.87,2.06-3.09,1.22-7.29-1.87-9.35-3.09-2.06-7.29-1.22-9.35,1.87-.03.05-.05.1-.08.14-11.31-4.86-22.26-10.8-32.59-17.68-50.22-33.48-82.63-87.05-89.06-147.09,1.29-.48,2.46-1.33,3.28-2.57,2.06-3.09,1.22-7.29-1.87-9.35-3.09-2.06-7.29-1.22-9.35,1.87-2.06,3.09-1.22,7.29,1.87,9.35Zm135.36,166.12c1.62,1.08,2.06,3.27.98,4.89s-3.27,2.06-4.89.98c-1.62-1.08-2.06-3.27-.98-4.89s3.27-2.06,4.89-.98Zm-129.66-174.67c1.62,1.08,2.06,3.27.98,4.89-1.08,1.62-3.27,2.06-4.89.98s-2.06-3.27-.98-4.89c1.08-1.62,3.27-2.06,4.89-.98Z"/><path class="cls-22" d="m142.29,199.95c-2.06,3.09-1.22,7.29,1.87,9.35,3.09,2.06,7.29,1.22,9.35-1.87,1.75-2.62,1.39-6.03-.64-8.27,52.8-77.85,158.7-99.02,237.38-47.47-1.02,2.85-.04,6.13,2.59,7.88,3.09,2.06,7.29,1.22,9.35-1.87s1.22-7.29-1.87-9.35c-2.64-1.76-6.06-1.39-8.29.66-80.15-52.53-188.04-30.96-241.82,48.36-2.85-1.04-6.15-.06-7.91,2.58Zm256.24-48.92c1.62,1.08,2.06,3.27.98,4.89-1.08,1.62-3.27,2.06-4.89.98s-2.06-3.27-.98-4.89c1.08-1.62,3.27-2.06,4.89-.98Zm-248.68,49.73c1.62,1.08,2.06,3.27.98,4.89s-3.27,2.06-4.89.98c-1.62-1.08-2.06-3.27-.98-4.89s3.27-2.06,4.89-.98Z"/><path class="cls-22" d="m98.5,193.79c2.06-3.09,1.22-7.29-1.87-9.35-3.09-2.06-7.29-1.22-9.35,1.87-1.79,2.69-1.39,6.21.78,8.44-27.36,55.91-30.79,121.35-9.5,180.14-.78.49-1.48,1.14-2.02,1.95-2.06,3.09-1.22,7.29,1.87,9.35,3.09,2.06,7.29,1.22,9.35-1.87,2.06-3.09,1.22-7.29-1.87-9.35-1.31-.87-2.81-1.2-4.27-1.08-21-57.9-17.67-122.35,9.2-177.45,2.8.91,5.98-.08,7.69-2.64Zm-13.42,188.74c-1.08,1.62-3.27,2.06-4.89.98-1.62-1.08-2.06-3.27-.98-4.89s3.27-2.06,4.89-.98c1.62,1.08,2.06,3.27.98,4.89Zm5.85-189.55c-1.62-1.08-2.06-3.27-.98-4.89,1.08-1.62,3.27-2.06,4.89-.98,1.62,1.08,2.06,3.27.98,4.89-1.08,1.62-3.27,2.06-4.89.98Z"/><path class="cls-22" d="m283.46,54.31c3.09,2.06,7.29,1.22,9.35-1.87.39-.59.65-1.23.84-1.87,46.16-.42,91.29,12.17,130.67,36.44-.99,2.83,0,6.08,2.6,7.82,3.09,2.06,7.29,1.22,9.35-1.87,2.06-3.09,1.22-7.29-1.87-9.35-2.65-1.77-6.1-1.39-8.33.7-39.85-24.57-85.54-37.35-132.26-36.95-.34-1.68-1.32-3.24-2.86-4.26-3.09-2.06-7.29-1.22-9.35,1.87-2.06,3.09-1.22,7.29,1.87,9.35Zm149.15,31.97c1.62,1.08,2.06,3.27.98,4.89-1.08,1.62-3.27,2.06-4.89.98-1.62-1.08-2.06-3.27-.98-4.89,1.08-1.62,3.27-2.06,4.89-.98Zm-143.46-40.52c1.62,1.08,2.06,3.27.98,4.89s-3.27,2.06-4.89.98c-1.62-1.08-2.06-3.27-.98-4.89,1.08-1.62,3.27-2.06,4.89-.98Z"/><path class="cls-22" d="m129.55,272.79c2.06-3.09,1.22-7.29-1.87-9.35-3.09-2.06-7.29-1.22-9.35,1.87-2.06,3.09-1.22,7.29,1.87,9.35.29.2.6.34.91.48-7.2,60.56,17.85,121.19,65.62,158.85-1.1,2.88-.12,6.24,2.55,8.02,3.09,2.06,7.29,1.22,9.35-1.87s1.22-7.29-1.87-9.35c-2.59-1.73-5.94-1.4-8.18.57-46.74-36.93-71.27-96.28-64.3-155.59,2.06-.11,4.05-1.13,5.27-2.97Zm65.42,160.67c1.62,1.08,2.06,3.27.98,4.89s-3.27,2.06-4.89.98c-1.62-1.08-2.06-3.27-.98-4.89s3.27-2.06,4.89-.98Zm-73.97-166.37c1.08-1.62,3.27-2.06,4.89-.98s2.06,3.27.98,4.89c-1.08,1.62-3.27,2.06-4.89.98-1.62-1.08-2.06-3.27-.98-4.89Z"/><path class="cls-22" d="m131.86,108.88c-16.39,14.37-30.89,30.9-43.1,49.2-12.57,18.85-22.46,39.21-29.46,60.53-2.28-.1-4.56.94-5.92,2.97-2.06,3.09-1.22,7.29,1.87,9.35,3.09,2.06,7.29,1.22,9.35-1.87,2.06-3.09,1.22-7.29-1.87-9.35-.11-.08-.24-.12-.35-.19,6.9-21.01,16.66-41.08,29.05-59.66,12.13-18.19,26.56-34.62,42.88-48.88,3,1.53,6.74.63,8.65-2.24,2.06-3.09,1.22-7.29-1.87-9.35-3.09-2.06-7.29-1.22-9.35,1.87-1.59,2.38-1.44,5.4.11,7.61Zm-69.92,118.4c-1.08,1.62-3.27,2.06-4.89.98-1.62-1.08-2.06-3.27-.98-4.89s3.27-2.06,4.89-.98,2.06,3.27.98,4.89Zm77.38-125.21c1.62,1.08,2.06,3.27.98,4.89-1.08,1.62-3.27,2.06-4.89.98-1.62-1.08-2.06-3.27-.98-4.89,1.08-1.62,3.27-2.06,4.89-.98Z"/><g class="cls-25"><path class="cls-23" d="m221.7,451.97c.9-2.8-.08-5.97-2.65-7.68-3.09-2.06-7.29-1.22-9.35,1.87-2.06,3.09-1.22,7.29,1.87,9.35,2.69,1.79,6.21,1.39,8.44-.78,44.83,21.44,96.74,22.8,142.88,3.75.47.69,1.07,1.3,1.8,1.79,3.09,2.06,7.29,1.22,9.35-1.87s1.22-7.29-1.87-9.35c-3.09-2.06-7.29-1.22-9.35,1.87-.93,1.39-1.24,3-1.05,4.55-45.22,18.7-96.1,17.43-140.07-3.49Zm-8.34.87c-1.62-1.08-2.06-3.27-.98-4.89,1.08-1.62,3.27-2.06,4.89-.98,1.62,1.08,2.06,3.27.98,4.89-1.08,1.62-3.27,2.06-4.89.98Zm157.04-1.12c1.62,1.08,2.06,3.27.98,4.89s-3.27,2.06-4.89.98-2.06-3.27-.98-4.89,3.27-2.06,4.89-.98Zm86.06-226.78c.64-.46,1.22-1.02,1.68-1.71,2.06-3.09,1.22-7.29-1.87-9.35-3.09-2.06-7.29-1.22-9.35,1.87-2.06,3.09-1.22,7.29,1.87,9.35,1.43.96,3.1,1.26,4.69,1.04,24.04,54.36,18.77,116.18-14.2,165.64-7.98,11.97-17.39,22.86-27.96,32.41-.28-.26-.57-.52-.89-.74-3.09-2.06-7.29-1.22-9.35,1.87s-1.22,7.29,1.87,9.35,7.29,1.22,9.35-1.87c1.19-1.79,1.39-3.95.76-5.85,10.94-9.82,20.67-21.05,28.9-33.4,33.57-50.35,38.94-113.27,14.51-168.62Zm-5.89-2.52c-1.62-1.08-2.06-3.27-.98-4.89,1.08-1.62,3.27-2.06,4.89-.98s2.06,3.27.98,4.89c-1.08,1.62-3.27,2.06-4.89.98Zm-45.86,209.57c-1.62-1.08-2.06-3.27-.98-4.89s3.27-2.06,4.89-.98,2.06,3.27.98,4.89-3.27,2.06-4.89.98Zm-293.65-86.78c-1.01.51-1.93,1.25-2.6,2.26-2.06,3.09-1.22,7.29,1.87,9.35,3.09,2.06,7.29,1.22,9.35-1.87s1.22-7.29-1.87-9.35c-1.11-.74-2.37-1.1-3.62-1.12-13.9-52.17-4.76-107.73,25.19-152.65,3.9-5.84,8.15-11.49,12.64-16.83,2.88,1.11,6.25.13,8.03-2.54,2.06-3.09,1.22-7.29-1.87-9.35s-7.29-1.22-9.35,1.87c-1.72,2.59-1.4,5.92.55,8.16-4.5,5.37-8.77,11.04-12.68,16.91-30.44,45.66-39.75,102.13-25.65,155.17Zm4.97,3.06c1.62,1.08,2.06,3.27.98,4.89-1.08,1.62-3.27,2.06-4.89.98-1.62-1.08-2.06-3.27-.98-4.89s3.27-2.06,4.89-.98Zm35.48-181.52c1.08-1.62,3.27-2.06,4.89-.98,1.62,1.08,2.06,3.27.98,4.89s-3.27,2.06-4.89.98-2.06-3.27-.98-4.89Zm-58.6,93.85c-2.1.07-4.14,1.1-5.39,2.98-2.06,3.09-1.22,7.29,1.87,9.35s7.29,1.22,9.35-1.87c2.06-3.09,1.22-7.29-1.87-9.35-.26-.17-.54-.3-.81-.43,4.82-27.82,15.27-53.94,31.07-77.64,14.83-22.25,33.5-41,55.49-55.76.22.19.43.4.69.57,3.09,2.06,7.29,1.22,9.35-1.87,2.06-3.09,1.22-7.29-1.87-9.35s-7.29-1.22-9.35,1.87c-1.26,1.89-1.42,4.18-.67,6.16-22.31,15-41.26,34.03-56.31,56.61-16.03,24.04-26.63,50.53-31.54,78.74Zm3.15,8.68c-1.08,1.62-3.27,2.06-4.89.98s-2.06-3.27-.98-4.89c1.08-1.62,3.27-2.06,4.89-.98,1.62,1.08,2.06,3.27.98,4.89Zm92.93-149.38c1.62,1.08,2.06,3.27.98,4.89-1.08,1.62-3.27,2.06-4.89.98-1.62-1.08-2.06-3.27-.98-4.89s3.27-2.06,4.89-.98Zm225.15,344.48c.17.14.33.3.52.43,3.09,2.06,7.29,1.22,9.35-1.87,2.06-3.09,1.22-7.29-1.87-9.35-3.09-2.06-7.29-1.22-9.35,1.87-1.3,1.95-1.44,4.34-.6,6.36-40.65,28.56-90.12,41.15-139.58,35.52-.12-2.04-1.14-4.01-2.96-5.23-3.09-2.06-7.29-1.22-9.35,1.87-2.06,3.09-1.22,7.29,1.87,9.35,3.09,2.06,7.29,1.22,9.35-1.87.2-.31.36-.63.51-.95,50.35,5.79,100.74-7.03,142.11-36.13Zm6.22-8.12c1.62,1.08,2.06,3.27.98,4.89-1.08,1.62-3.27,2.06-4.89.98s-2.06-3.27-.98-4.89,3.27-2.06,4.89-.98Zm-156.4,44.4c-1.62-1.08-2.06-3.27-.98-4.89,1.08-1.62,3.27-2.06,4.89-.98s2.06,3.27.98,4.89c-1.08,1.62-3.27,2.06-4.89.98ZM423.82,103.84c-22.09-14.73-46.22-25.44-71.73-31.86.19-2.37-.84-4.76-2.95-6.17-3.09-2.06-7.29-1.22-9.35,1.87-2.06,3.09-1.22,7.29,1.87,9.35s7.29,1.22,9.35-1.87c.03-.04.04-.08.06-.12,25.24,6.32,49.11,16.91,70.96,31.48,36.26,24.18,64.6,57.91,82.06,97.6-.74.48-1.39,1.12-1.91,1.9-2.06,3.09-1.22,7.29,1.87,9.35,3.09,2.06,7.29,1.22,9.35-1.87,2.06-3.09,1.22-7.29-1.87-9.35-1.34-.9-2.89-1.21-4.38-1.07-17.7-40.36-46.48-74.66-83.33-99.23Zm-80.38-29.49c-1.62-1.08-2.06-3.27-.98-4.89s3.27-2.06,4.89-.98c1.62,1.08,2.06,3.27.98,4.89-1.08,1.62-3.27,2.06-4.89.98Zm166.31,132.46c1.62,1.08,2.06,3.27.98,4.89-1.08,1.62-3.27,2.06-4.89.98s-2.06-3.27-.98-4.89,3.27-2.06,4.89-.98Zm-394.29-55.29c-2.88-1.1-6.24-.12-8.02,2.55-2.06,3.09-1.22,7.29,1.87,9.35,3.09,2.06,7.29,1.22,9.35-1.87,1.73-2.59,1.4-5.94-.56-8.17,31.61-39.43,76-67.42,125.34-79.04.51,1.07,1.27,2.03,2.33,2.73,3.09,2.06,7.29,1.22,9.35-1.87s1.22-7.29-1.87-9.35-7.29-1.22-9.35,1.87c-.71,1.07-1.06,2.27-1.1,3.47-50.14,11.79-95.24,40.24-127.33,80.34Zm.53,8.24c-1.08,1.62-3.27,2.06-4.89.98s-2.06-3.27-.98-4.89c1.08-1.62,3.27-2.06,4.89-.98,1.62,1.08,2.06,3.27.98,4.89Zm135.48-91.25c1.62,1.08,2.06,3.27.98,4.89-1.08,1.62-3.27,2.06-4.89.98s-2.06-3.27-.98-4.89,3.27-2.06,4.89-.98Zm-83.93,419.72c50.52,33.68,111.13,46.03,170.76,34.83.51.96,1.22,1.82,2.18,2.46,3.09,2.06,7.29,1.22,9.35-1.87,2.06-3.09,1.22-7.29-1.87-9.35-3.09-2.06-7.29-1.22-9.35,1.87-.77,1.16-1.14,2.48-1.13,3.77-58.73,10.98-118.4-1.21-168.16-34.38-20.64-13.76-38.72-30.58-53.76-50,.14-.17.3-.33.42-.52,2.06-3.09,1.22-7.29-1.87-9.35-3.09-2.06-7.29-1.22-9.35,1.87-2.06,3.09-1.22,7.29,1.87,9.35,1.96,1.3,4.35,1.44,6.37.59,15.26,19.7,33.6,36.77,54.54,50.73Zm178.64,28.74c1.62,1.08,2.06,3.27.98,4.89s-3.27,2.06-4.89.98-2.06-3.27-.98-4.89,3.27-2.06,4.89-.98Zm-237.76-82.73c-1.62-1.08-2.06-3.27-.98-4.89s3.27-2.06,4.89-.98c1.62,1.08,2.06,3.27.98,4.89-1.08,1.62-3.27,2.06-4.89.98Zm314.52,69.67c-3.09-2.06-7.29-1.22-9.35,1.87-1.22,1.84-1.4,4.05-.72,5.99-79.94,43.34-176.32,39.23-252.19-10.74,1.01-2.84.03-6.12-2.59-7.87-3.09-2.06-7.29-1.22-9.35,1.87-2.06,3.09-1.22,7.29,1.87,9.35,2.64,1.76,6.07,1.39,8.3-.67,76.93,50.68,174.7,54.81,255.74,10.76.26.24.51.47.81.67,3.09,2.06,7.29,1.22,9.35-1.87,2.06-3.09,1.22-7.29-1.87-9.35Zm-270.55-2.21c-1.62-1.08-2.06-3.27-.98-4.89s3.27-2.06,4.89-.98c1.62,1.08,2.06,3.27.98,4.89-1.08,1.62-3.27,2.06-4.89.98Zm264.85,10.76c-1.62-1.08-2.06-3.27-.98-4.89,1.08-1.62,3.27-2.06,4.89-.98s2.06,3.27.98,4.89c-1.08,1.62-3.27,2.06-4.89.98Zm51.39-63.27c6.93-7.85,13.41-16.24,19.25-25.01,28.03-42.05,41.3-90.78,38.44-141.04,1.3-.47,2.47-1.33,3.3-2.57,2.06-3.09,1.22-7.29-1.87-9.35-3.09-2.06-7.29-1.22-9.35,1.87-2.06,3.09-1.22,7.29,1.87,9.35.88.59,1.86.92,2.85,1.05,2.78,49.5-10.3,97.49-37.92,138.91-5.76,8.64-12.16,16.92-18.99,24.66-3.02-1.6-6.82-.72-8.76,2.18-2.06,3.09-1.22,7.29,1.87,9.35s7.29,1.22,9.35-1.87c1.57-2.35,1.45-5.33-.05-7.54Zm52.45-174.31c1.08-1.62,3.27-2.06,4.89-.98,1.62,1.08,2.06,3.27.98,4.89s-3.27,2.06-4.89.98-2.06-3.27-.98-4.89Zm-59.97,181.04c-1.62-1.08-2.06-3.27-.98-4.89,1.08-1.62,3.27-2.06,4.89-.98,1.62,1.08,2.06,3.27.98,4.89-1.08,1.62-3.27,2.06-4.89.98Zm-135,31.33c3.09,2.06,7.29,1.22,9.35-1.87,2.06-3.09,1.22-7.29-1.87-9.35s-7.29-1.22-9.35,1.87c-.81,1.22-1.16,2.61-1.11,3.97-46.11,6.83-92.8-3.62-131.65-29.53-18.31-12.21-34.13-27.29-47.06-44.84.23-.25.45-.5.65-.79,2.06-3.09,1.22-7.29-1.87-9.35-3.09-2.06-7.29-1.22-9.35,1.87s-1.22,7.29,1.87,9.35c1.85,1.23,4.08,1.41,6.03.71,13.16,17.9,29.29,33.28,47.95,45.72,39.64,26.43,87.3,37.04,134.34,29.97.5.88,1.18,1.67,2.08,2.26Zm-188.61-81.34c-1.62-1.08-2.06-3.27-.98-4.89,1.08-1.62,3.27-2.06,4.89-.98s2.06,3.27.98,4.89c-1.08,1.62-3.27,2.06-4.89.98Zm194.31,72.79c1.62,1.08,2.06,3.27.98,4.89s-3.27,2.06-4.89.98c-1.62-1.08-2.06-3.27-.98-4.89s3.27-2.06,4.89-.98Zm85.16-355.33c-2.64-1.76-6.06-1.39-8.3.67-54.49-35.8-123.13-43.61-184.36-21.03-.48-.72-1.1-1.36-1.87-1.87-3.09-2.06-7.29-1.22-9.35,1.87-2.06,3.09-1.22,7.29,1.87,9.35,3.09,2.06,7.29,1.22,9.35-1.87.91-1.36,1.22-2.93,1.06-4.44,60.28-22.24,127.86-14.56,181.52,20.68-1.01,2.84-.04,6.12,2.59,7.87,3.09,2.06,7.29,1.22,9.35-1.87,2.06-3.09,1.22-7.29-1.87-9.35Zm-200.22-13.7c-1.62-1.08-2.06-3.27-.98-4.89s3.27-2.06,4.89-.98c1.62,1.08,2.06,3.27.98,4.89s-3.27,2.06-4.89.98Zm194.52,22.24c-1.62-1.08-2.06-3.27-.98-4.89,1.08-1.62,3.27-2.06,4.89-.98s2.06,3.27.98,4.89-3.27,2.06-4.89.98Zm73.78,121.21c-1.06-.71-2.25-1.05-3.44-1.1-11.16-47.22-39.5-88.02-79.93-114.97-32.37-21.58-69.94-32.66-108.68-32.08-.44-1.45-1.33-2.77-2.68-3.68-3.09-2.06-7.29-1.22-9.35,1.87-2.06,3.09-1.23,7.29,1.87,9.35,3.09,2.06,7.29,1.22,9.35-1.87.51-.77.84-1.61,1.01-2.46,38.03-.54,74.92,10.35,106.7,31.54,39.72,26.48,67.57,66.54,78.56,112.93-1.08.5-2.05,1.28-2.75,2.34-2.06,3.09-1.22,7.29,1.87,9.35,3.09,2.06,7.29,1.22,9.35-1.87,2.06-3.09,1.22-7.29-1.87-9.35Zm-200.44-143.28c-1.62-1.08-2.06-3.27-.98-4.89s3.27-2.06,4.89-.98c1.62,1.08,2.06,3.27.98,4.89s-3.27,2.06-4.89.98Zm194.74,151.83c-1.62-1.08-2.06-3.27-.98-4.89,1.08-1.62,3.27-2.06,4.89-.98,1.62,1.08,2.06,3.27.98,4.89-1.08,1.62-3.27,2.06-4.89.98Zm8.85,29.85c-3.09-2.06-7.29-1.22-9.35,1.87-2.06,3.09-1.22,7.29,1.87,9.35.83.55,1.74.88,2.66,1.03-1.39,34.36-12.21,67.69-31.4,96.47-23,34.5-55.76,59.79-94.8,73.28-.51-1.03-1.25-1.95-2.27-2.63-3.09-2.06-7.29-1.22-9.35,1.87s-1.22,7.29,1.87,9.35c3.09,2.06,7.29,1.22,9.35-1.87.73-1.1,1.08-2.33,1.11-3.56,39.86-13.69,73.31-39.47,96.77-74.66,19.59-29.38,30.62-63.43,31.96-98.53,1.36-.46,2.6-1.33,3.46-2.62,2.06-3.09,1.22-7.29-1.87-9.35Zm-138.99,187.91c-1.62-1.08-2.06-3.27-.98-4.89,1.08-1.62,3.27-2.06,4.89-.98s2.06,3.27.98,4.89c-1.08,1.62-3.27,2.06-4.89.98Zm132.32-184.26c1.08-1.62,3.27-2.06,4.89-.98s2.06,3.27.98,4.89c-1.08,1.62-3.27,2.06-4.89.98-1.62-1.08-2.06-3.27-.98-4.89Zm-19.12-121.87c2.06-3.09,1.22-7.29-1.87-9.35-3.09-2.06-7.29-1.22-9.35,1.87-2.06,3.09-1.22,7.29,1.87,9.35,1.79,1.19,3.93,1.39,5.83.77,50.09,68.08,52.56,160.59,6.11,231.3-2.84-1.01-6.12-.03-7.87,2.59-2.06,3.09-1.22,7.29,1.87,9.35,3.09,2.06,7.29,1.22,9.35-1.87,1.76-2.64,1.39-6.07-.67-8.3,47.14-71.76,44.68-165.62-6.05-234.76.28-.29.55-.6.78-.95Zm3.26,242.23c-1.08,1.62-3.27,2.06-4.89.98-1.62-1.08-2.06-3.27-.98-4.89,1.08-1.62,3.27-2.06,4.89-.98s2.06,3.27.98,4.89Zm-10.83-243.03c-1.62-1.08-2.06-3.27-.98-4.89,1.08-1.62,3.27-2.06,4.89-.98s2.06,3.27.98,4.89-3.27,2.06-4.89.98Zm75.98,64.37c1.03.69,2.19,1.03,3.35,1.09,15.12,62.1,5.82,126.38-26.29,181.47-2.83-.97-6.06,0-7.8,2.61-2.06,3.09-1.22,7.29,1.87,9.35,3.09,2.06,7.29,1.22,9.35-1.87,1.77-2.66,1.39-6.12-.71-8.36,32.56-55.78,42.02-120.89,26.75-183.79,1.11-.5,2.11-1.29,2.83-2.38,2.06-3.09,1.22-7.29-1.87-9.35-3.09-2.06-7.29-1.22-9.35,1.87-2.06,3.09-1.22,7.29,1.87,9.35Zm-22.19,190.87c-1.08,1.62-3.27,2.06-4.89.98-1.62-1.08-2.06-3.27-.98-4.89,1.08-1.62,3.27-2.06,4.89-.98s2.06,3.27.98,4.89Zm27.89-199.42c1.62,1.08,2.06,3.27.98,4.89s-3.27,2.06-4.89.98c-1.62-1.08-2.06-3.27-.98-4.89,1.08-1.62,3.27-2.06,4.89-.98ZM82.94,409.89c-1.61-1.07-3.51-1.34-5.25-.94-18.34-35.5-27.83-75.28-27.49-115.29,1.46-.43,2.79-1.33,3.7-2.69,2.06-3.09,1.22-7.29-1.87-9.35s-7.29-1.22-9.35,1.87c-2.06,3.09-1.22,7.29,1.87,9.35.76.51,1.59.84,2.44,1-.32,40.46,9.29,80.68,27.84,116.57-.46.39-.88.83-1.23,1.35-2.06,3.09-1.22,7.29,1.87,9.35,3.09,2.06,7.29,1.22,9.35-1.87,2.06-3.09,1.22-7.29-1.87-9.35Zm-37.58-124.62c1.08-1.62,3.27-2.06,4.89-.98s2.06,3.27.98,4.89c-1.08,1.62-3.27,2.06-4.89.98-1.62-1.08-2.06-3.27-.98-4.89Zm31.89,133.17c-1.62-1.08-2.06-3.27-.98-4.89,1.08-1.62,3.27-2.06,4.89-.98,1.62,1.08,2.06,3.27.98,4.89s-3.27,2.06-4.89.98Zm10.92-101.61c.89.59,1.88.92,2.87,1.05,6.53,60.98,39.46,115.4,90.47,149.41,10.56,7.04,21.79,13.12,33.37,18.07-.18,2.36.85,4.74,2.95,6.14,3.09,2.06,7.29,1.22,9.35-1.87,2.06-3.09,1.22-7.29-1.87-9.35-3.09-2.06-7.29-1.22-9.35,1.87-.03.05-.05.1-.08.14-11.31-4.86-22.26-10.8-32.59-17.68-50.22-33.48-82.63-87.05-89.06-147.09,1.29-.48,2.46-1.33,3.28-2.57,2.06-3.09,1.22-7.29-1.87-9.35-3.09-2.06-7.29-1.22-9.35,1.87-2.06,3.09-1.22,7.29,1.87,9.35Zm135.36,166.12c1.62,1.08,2.06,3.27.98,4.89s-3.27,2.06-4.89.98c-1.62-1.08-2.06-3.27-.98-4.89s3.27-2.06,4.89-.98Zm-129.66-174.67c1.62,1.08,2.06,3.27.98,4.89-1.08,1.62-3.27,2.06-4.89.98s-2.06-3.27-.98-4.89c1.08-1.62,3.27-2.06,4.89-.98Zm48.43-108.33c-2.06,3.09-1.22,7.29,1.87,9.35,3.09,2.06,7.29,1.22,9.35-1.87,1.75-2.62,1.39-6.03-.64-8.27,52.8-77.85,158.7-99.02,237.38-47.47-1.02,2.85-.04,6.13,2.59,7.88,3.09,2.06,7.29,1.22,9.35-1.87s1.22-7.29-1.87-9.35c-2.64-1.76-6.06-1.39-8.29.66-80.15-52.53-188.04-30.96-241.82,48.36-2.85-1.04-6.15-.06-7.91,2.58Zm256.24-48.92c1.62,1.08,2.06,3.27.98,4.89-1.08,1.62-3.27,2.06-4.89.98s-2.06-3.27-.98-4.89c1.08-1.62,3.27-2.06,4.89-.98Zm-248.68,49.73c1.62,1.08,2.06,3.27.98,4.89s-3.27,2.06-4.89.98c-1.62-1.08-2.06-3.27-.98-4.89s3.27-2.06,4.89-.98Zm-51.36-6.96c2.06-3.09,1.22-7.29-1.87-9.35-3.09-2.06-7.29-1.22-9.35,1.87-1.79,2.69-1.39,6.21.78,8.44-27.36,55.91-30.79,121.35-9.5,180.14-.78.49-1.48,1.14-2.02,1.95-2.06,3.09-1.22,7.29,1.87,9.35,3.09,2.06,7.29,1.22,9.35-1.87,2.06-3.09,1.22-7.29-1.87-9.35-1.31-.87-2.81-1.2-4.27-1.08-21-57.9-17.67-122.35,9.2-177.45,2.8.91,5.98-.08,7.69-2.64Zm-13.42,188.74c-1.08,1.62-3.27,2.06-4.89.98-1.62-1.08-2.06-3.27-.98-4.89s3.27-2.06,4.89-.98c1.62,1.08,2.06,3.27.98,4.89Zm5.85-189.55c-1.62-1.08-2.06-3.27-.98-4.89,1.08-1.62,3.27-2.06,4.89-.98,1.62,1.08,2.06,3.27.98,4.89-1.08,1.62-3.27,2.06-4.89.98ZM283.46,54.31c3.09,2.06,7.29,1.22,9.35-1.87.39-.59.65-1.23.84-1.87,46.16-.42,91.29,12.17,130.67,36.44-.99,2.83,0,6.08,2.6,7.82,3.09,2.06,7.29,1.22,9.35-1.87,2.06-3.09,1.22-7.29-1.87-9.35-2.65-1.77-6.1-1.39-8.33.7-39.85-24.57-85.54-37.35-132.26-36.95-.34-1.68-1.32-3.24-2.86-4.26-3.09-2.06-7.29-1.22-9.35,1.87-2.06,3.09-1.22,7.29,1.87,9.35Zm149.15,31.97c1.62,1.08,2.06,3.27.98,4.89-1.08,1.62-3.27,2.06-4.89.98-1.62-1.08-2.06-3.27-.98-4.89,1.08-1.62,3.27-2.06,4.89-.98Zm-143.46-40.52c1.62,1.08,2.06,3.27.98,4.89s-3.27,2.06-4.89.98c-1.62-1.08-2.06-3.27-.98-4.89,1.08-1.62,3.27-2.06,4.89-.98Zm-159.61,227.03c2.06-3.09,1.22-7.29-1.87-9.35-3.09-2.06-7.29-1.22-9.35,1.87-2.06,3.09-1.22,7.29,1.87,9.35.29.2.6.34.91.48-7.2,60.56,17.85,121.19,65.62,158.85-1.1,2.88-.12,6.24,2.55,8.02,3.09,2.06,7.29,1.22,9.35-1.87s1.22-7.29-1.87-9.35c-2.59-1.73-5.94-1.4-8.18.57-46.74-36.93-71.27-96.28-64.3-155.59,2.06-.11,4.05-1.13,5.27-2.97Zm65.42,160.67c1.62,1.08,2.06,3.27.98,4.89s-3.27,2.06-4.89.98c-1.62-1.08-2.06-3.27-.98-4.89s3.27-2.06,4.89-.98Zm-73.97-166.37c1.08-1.62,3.27-2.06,4.89-.98s2.06,3.27.98,4.89c-1.08,1.62-3.27,2.06-4.89.98-1.62-1.08-2.06-3.27-.98-4.89Zm10.86-158.21c-16.39,14.37-30.89,30.9-43.1,49.2-12.57,18.85-22.46,39.21-29.46,60.53-2.28-.1-4.56.94-5.92,2.97-2.06,3.09-1.22,7.29,1.87,9.35,3.09,2.06,7.29,1.22,9.35-1.87,2.06-3.09,1.22-7.29-1.87-9.35-.11-.08-.24-.12-.35-.19,6.9-21.01,16.66-41.08,29.05-59.66,12.13-18.19,26.56-34.62,42.88-48.88,3,1.53,6.74.63,8.65-2.24,2.06-3.09,1.22-7.29-1.87-9.35-3.09-2.06-7.29-1.22-9.35,1.87-1.59,2.38-1.44,5.4.11,7.61Zm-69.92,118.4c-1.08,1.62-3.27,2.06-4.89.98-1.62-1.08-2.06-3.27-.98-4.89s3.27-2.06,4.89-.98,2.06,3.27.98,4.89Zm77.38-125.21c1.62,1.08,2.06,3.27.98,4.89-1.08,1.62-3.27,2.06-4.89.98-1.62-1.08-2.06-3.27-.98-4.89,1.08-1.62,3.27-2.06,4.89-.98Z"/></g></g><path class="cls-2" d="m145.84,487.95c11.3-4.07,51.52-69.96,72.41-114.3,9.81-20.88,15.35-36.96,11.58-39.61-7.74-5.43-54.5,34.19-70.86,60.28-18.06,28.84-29.62,99.6-13.14,93.63Z"/><path class="cls-3" d="m145.84,487.95c11.3-4.07,51.52-69.96,72.41-114.3l-14.45-23.05s-60.56,46.36-57.96,137.36Z"/><path class="cls-4" d="m163.43,387.87s-2.28,19.64-5.31,27.96c-3.03,8.32-14.2,16.82-14.2,16.82,0,0,9.03-32.17,19.52-44.78Z"/><path class="cls-26" d="m194.06,340.69s45.95-55.26,170.83-32.82c0,0-78.47,36.96-170.83,32.82Z"/><path class="cls-15" d="m357.2,306.82s-67.64,18.5-102.1,16.66c-34.46-1.84,14.47-17.97,14.47-17.97,0,0,45.09-7.27,87.63,1.31Z"/><path class="cls-19" d="m451.5,135.86s-203.54-47.12-316.76-21.89c0,0-4.26,172.66,129.41,191.71,143.32,20.43,187.35-169.82,187.35-169.82Z"/><path class="cls-18" d="m364.89,308.12s-69.06,30.63-170.83,32.82c0,0,56.47,119.03,116.63,107.98,68.01-12.5,54.2-140.8,54.2-140.8Z"/><path class="cls-11" d="m345.76,330.74s-4.03,21.85,13.36,63.28c0,0,11.47-30.7,3.1-67.46,0,0-9.15-9.65-16.46,4.18Z"/><path class="cls-5" d="m360.21,313.8s-93.37,64.68-51.29,127.37c17.95,26.74,69.03-43.44,51.29-127.37Z"/><path class="cls-10" d="m360.75,313.68s-25.97,7.95-10.56,40.65c0,0,20.65-12.48,10.56-40.65Z"/><path class="cls-8" d="m200.2,352.83s56.27,61.02,77.3,90.17c0,0-35.84-13.07-77.3-90.17Z"/><path class="cls-27" d="m314.11,448.38l.38-.5c-.25-.19-24.67-19.4-14.02-57.24,12.78-45.42,64.08-81.9,64.59-82.26l-.36-.52c-.52.37-51.99,36.97-64.84,82.6-10.77,38.26,13.99,57.72,14.24,57.91Z"/><path class="cls-27" d="m277.25,443.2l.49-.39c-35.37-44.8-76.89-89.73-77.31-90.18l-.46.43c.42.45,41.93,45.36,77.28,90.14Z"/><path class="cls-4" d="m243.37,339.01s-5.7-8.58-26.13,2.14c0,0,16.41.83,26.13-2.14Z"/><path class="cls-6" d="m430.62,487.81c16.61,7.24,9.34-66.48-7.4-97.39-15.16-27.98-60.75-71.89-69.11-66.81-12.7,7.72,59.79,156.91,76.51,164.2Z"/><path class="cls-4" d="m400.86,440.62l-17.2-34.07s17.51,17.01,17.2,34.07Z"/><path class="cls-4" d="m259.52,429.97s-17.71-13.95-25.17-26.42c0,0,13.33,9.28,25.17,26.42Z"/><path class="cls-12" d="m356.03,178.43c39.05,23.03-31.23,104.54-117.31,98.23-91.94-6.74-92.54-108.27-85.58-117.89,6.96-9.62,154.82-8.69,202.89,19.67Z"/><path class="cls-13" d="m134.74,113.96s21.14-32.52,71.53-7.38c0,0-43.7,1.21-71.53,7.38Z"/><path class="cls-1" d="m451.5,135.86s-14.42-35.98-95.72-17.98l95.72,17.98Z"/><path class="cls-16" d="m355.78,117.88s-71.2,33.35-119.45,25.64c-48.25-7.71-53.12-35.42-53.12-35.42,0,0,32.46-10.07,172.57,9.78Z"/><path class="cls-27" d="m251.55,144.99c44.56,0,103.73-26.54,104.37-26.83l-.26-.57c-.69.31-69.16,31.03-114.07,26.28-44.79-4.72-57.19-29.45-58.05-35.82l-.62.09c.88,6.47,13.42,31.59,58.61,36.36,3.23.34,6.59.5,10.03.5Z"/><path class="cls-4" d="m424.35,182.65s-4.64,27.47-27.07,49.47c0,0,.77-29.69,27.07-49.47Z"/><path class="cls-4" d="m391.48,237.95s1.93,12.99-8.12,16.71c0,0-.13-8.39,8.12-16.71Z"/><path class="cls-4" d="m144.39,124.35s3.25,21.26,0,40.46c0,0-10.44-22.52,0-40.46Z"/><path class="cls-14" d="m226.17,140.05s-26.91-5.99-38.83-23.97c0,0,16.6,16.72,38.83,23.97Z"/><path class="cls-4" d="m289.11,143.72s-49.74,12.92-74.24-3.66c0,0,21.61,9.33,74.24,3.66Z"/><path class="cls-7" d="m328.77,343.8s-43.06,44.08-24.5,89.34c0,0-15.88-40.01,24.5-89.34Z"/><path class="cls-27" d="m213.7,341.97c75.88,0,145.04-30.81,145.79-31.15l-.26-.57c-.81.37-82.15,36.61-165.15,30.37l-.05.63c6.57.49,13.15.72,19.66.72Z"/><path class="cls-14" d="m342.64,318.87s-73.29,32.45-136.75,23.29c0,0,49.35,6.37,136.75-23.29Z"/><path class="cls-4" d="m271.41,337.55s-12.85,8.3-28.59,3.96c0,0,18.64-2.05,28.59-3.96Z"/><path class="cls-24" d="m213.14,173.75l2.85.28c.24.05.36.18.36.39v2.85c0,.24-.12.34-.36.32l-2.85-.28c-.24-.02-.36-.15-.36-.39v-2.85c.03-.23.15-.34.36-.32Zm0,5.35l2.85.28c.24.05.36.18.36.39v2.85c0,.24-.12.34-.36.32l-2.85-.28c-.24-.02-.36-.15-.36-.39v-2.85c.03-.23.15-.34.36-.32Zm0,5.35l2.85.28c.24.05.36.18.36.39v2.85c0,.24-.12.34-.36.32l-2.85-.28c-.24-.02-.36-.15-.36-.39v-2.85c.03-.23.15-.34.36-.32Zm0,5.35l2.85.28c.24.05.36.18.36.39v2.85c0,.24-.12.34-.36.32l-2.85-.28c-.24-.02-.36-.15-.36-.39v-2.85c.03-.23.15-.34.36-.32Zm0,5.35l2.85.28c.24.05.36.18.36.39v2.85c0,.24-.12.34-.36.32l-2.85-.28c-.24-.02-.36-.15-.36-.39v-2.85c.03-.23.15-.34.36-.32Zm0,5.35l2.85.28c.24.05.36.18.36.39v2.85c0,.24-.12.34-.36.32l-2.85-.28c-.24-.02-.36-.15-.36-.39v-2.85c.03-.23.15-.34.36-.32Zm0,5.35l2.85.28c.24.05.36.18.36.39v2.85c0,.24-.12.35-.36.32l-2.85-.28c-.24-.02-.36-.15-.36-.39v-2.85c.03-.23.15-.34.36-.32Zm0,5.35l2.85.28c.24.05.36.18.36.39v2.85c0,.24-.12.35-.36.32l-2.85-.28c-.24-.02-.36-.15-.36-.39v-2.85c.03-.23.15-.34.36-.32Zm0,5.35l2.85.28c.24.05.36.18.36.39v2.85c0,.24-.12.34-.36.32l-2.85-.28c-.24-.02-.36-.15-.36-.39v-2.85c.03-.23.15-.34.36-.32Zm0,5.35l2.85.28c.24.05.36.18.36.39v2.85c0,.24-.12.34-.36.32l-2.85-.28c-.24-.02-.36-.15-.36-.39v-2.85c.03-.23.15-.34.36-.32Zm5.35-47.61l2.85.28c.24.05.36.18.36.39v2.85c0,.24-.12.34-.36.32l-2.85-.28c-.24-.02-.36-.15-.36-.39v-2.85c.03-.23.15-.34.36-.32Zm0,5.35l2.85.28c.24.05.36.18.36.39v2.85c0,.24-.12.34-.36.32l-2.85-.28c-.24-.02-.36-.15-.36-.39v-2.85c.03-.23.15-.34.36-.32Zm0,5.35l2.85.28c.24.05.36.18.36.39v2.85c0,.24-.12.34-.36.32l-2.85-.28c-.24-.02-.36-.15-.36-.39v-2.85c.03-.23.15-.34.36-.32Zm0,5.35l2.85.28c.24.05.36.18.36.39v2.85c0,.24-.12.34-.36.32l-2.85-.28c-.24-.02-.36-.15-.36-.39v-2.85c.03-.23.15-.34.36-.32Zm0,5.35l2.85.28c.24.05.36.18.36.39v2.85c0,.24-.12.34-.36.32l-2.85-.28c-.24-.02-.36-.15-.36-.39v-2.85c.03-.23.15-.34.36-.32Zm0,5.35l2.85.28c.24.05.36.18.36.39v2.85c0,.24-.12.34-.36.32l-2.85-.28c-.24-.02-.36-.15-.36-.39v-2.85c.03-.23.15-.34.36-.32Zm0,5.35l2.85.28c.24.05.36.18.36.39v2.85c0,.24-.12.35-.36.32l-2.85-.28c-.24-.02-.36-.15-.36-.39v-2.85c.03-.23.15-.34.36-.32Zm0,5.35l2.85.28c.24.05.36.18.36.39v2.85c0,.24-.12.35-.36.32l-2.85-.28c-.24-.02-.36-.15-.36-.39v-2.85c.03-.23.15-.34.36-.32Zm0,5.35l2.85.28c.24.05.36.18.36.39v2.85c0,.24-.12.34-.36.32l-2.85-.28c-.24-.02-.36-.15-.36-.39v-2.85c.03-.23.15-.34.36-.32Zm0,5.35l2.85.28c.24.05.36.18.36.39v2.85c0,.24-.12.34-.36.32l-2.85-.28c-.24-.02-.36-.15-.36-.39v-2.85c.03-.23.15-.34.36-.32Zm5.35-47.61l2.85.28c.24.05.36.18.36.39v2.85c0,.24-.12.34-.36.32l-2.85-.28c-.24-.02-.36-.15-.36-.39v-2.85c.03-.23.15-.34.36-.32Zm0,5.35l2.85.28c.24.05.36.18.36.39v2.85c0,.24-.12.34-.36.32l-2.85-.28c-.24-.02-.36-.15-.36-.39v-2.85c.03-.23.15-.34.36-.32Zm0,5.35l2.85.28c.24.05.36.18.36.39v2.85c0,.24-.12.34-.36.32l-2.85-.28c-.24-.02-.36-.15-.36-.39v-2.85c.03-.23.15-.34.36-.32Zm0,5.35l2.85.28c.24.05.36.18.36.39v2.85c0,.24-.12.34-.36.32l-2.85-.28c-.24-.02-.36-.15-.36-.39v-2.85c.03-.23.15-.34.36-.32Zm0,5.35l2.85.28c.24.05.36.18.36.39v2.85c0,.24-.12.34-.36.32l-2.85-.28c-.24-.02-.36-.15-.36-.39v-2.85c.03-.23.15-.34.36-.32Zm0,5.35l2.85.28c.24.05.36.18.36.39v2.85c0,.24-.12.34-.36.32l-2.85-.28c-.24-.02-.36-.15-.36-.39v-2.85c.03-.23.15-.34.36-.32Zm0,5.35l2.85.28c.24.05.36.18.36.39v2.85c0,.24-.12.35-.36.32l-2.85-.28c-.24-.02-.36-.15-.36-.39v-2.85c.03-.23.15-.34.36-.32Zm0,5.35l2.85.28c.24.05.36.18.36.39v2.85c0,.24-.12.35-.36.32l-2.85-.28c-.24-.02-.36-.15-.36-.39v-2.85c.03-.23.15-.34.36-.32Zm0,5.35l2.85.28c.24.05.36.18.36.39v2.85c0,.24-.12.34-.36.32l-2.85-.28c-.24-.02-.36-.15-.36-.39v-2.85c.03-.23.15-.34.36-.32Zm0,5.35l2.85.28c.24.05.36.18.36.39v2.85c0,.24-.12.34-.36.32l-2.85-.28c-.24-.02-.36-.15-.36-.39v-2.85c.03-.23.15-.34.36-.32Zm5.35-47.61l2.85.28c.24.05.36.18.36.39v2.85c0,.24-.12.34-.36.32l-2.85-.28c-.24-.02-.36-.15-.36-.39v-2.85c.03-.23.15-.34.36-.32Zm0,5.35l2.85.28c.24.05.36.18.36.39v2.85c0,.24-.12.34-.36.32l-2.85-.28c-.24-.02-.36-.15-.36-.39v-2.85c.03-.23.15-.34.36-.32Zm0,5.35l2.85.28c.24.05.36.18.36.39v2.85c0,.24-.12.34-.36.32l-2.85-.28c-.24-.02-.36-.15-.36-.39v-2.85c.03-.23.15-.34.36-.32Zm0,5.35l2.85.28c.24.05.36.18.36.39v2.85c0,.24-.12.34-.36.32l-2.85-.28c-.24-.02-.36-.15-.36-.39v-2.85c.03-.23.15-.34.36-.32Zm0,5.35l2.85.28c.24.05.36.18.36.39v2.85c0,.24-.12.34-.36.32l-2.85-.28c-.24-.02-.36-.15-.36-.39v-2.85c.03-.23.15-.34.36-.32Zm0,5.35l2.85.28c.24.05.36.18.36.39v2.85c0,.24-.12.34-.36.32l-2.85-.28c-.24-.02-.36-.15-.36-.39v-2.85c.03-.23.15-.34.36-.32Zm0,5.35l2.85.28c.24.05.36.18.36.39v2.85c0,.24-.12.35-.36.32l-2.85-.28c-.24-.02-.36-.15-.36-.39v-2.85c.03-.23.15-.34.36-.32Zm0,5.35l2.85.28c.24.05.36.18.36.39v2.85c0,.24-.12.35-.36.32l-2.85-.28c-.24-.02-.36-.15-.36-.39v-2.85c.03-.23.15-.34.36-.32Zm0,5.35l2.85.28c.24.05.36.18.36.39v2.85c0,.24-.12.34-.36.32l-2.85-.28c-.24-.02-.36-.15-.36-.39v-2.85c.03-.23.15-.34.36-.32Zm0,5.35l2.85.28c.24.05.36.18.36.39v2.85c0,.24-.12.34-.36.32l-2.85-.28c-.24-.02-.36-.15-.36-.39v-2.85c.03-.23.15-.34.36-.32Zm5.35-15.52l2.85.28c.24.05.36.18.36.39v2.85c0,.24-.12.35-.36.32l-2.85-.28c-.24-.02-.36-.15-.36-.39v-2.85c.03-.23.15-.34.36-.32Zm0,5.35l2.85.28c.24.05.36.18.36.39v2.85c0,.24-.12.35-.36.32l-2.85-.28c-.24-.02-.36-.15-.36-.39v-2.85c.03-.23.15-.34.36-.32Zm0,5.35l2.85.28c.24.05.36.18.36.39v2.85c0,.24-.12.34-.36.32l-2.85-.28c-.24-.02-.36-.15-.36-.39v-2.85c.03-.23.15-.34.36-.32Zm0,5.35l2.85.28c.24.05.36.18.36.39v2.85c0,.24-.12.34-.36.32l-2.85-.28c-.24-.02-.36-.15-.36-.39v-2.85c.03-.23.15-.34.36-.32Zm5.35-15.52l2.85.28c.24.05.36.18.36.39v2.85c0,.24-.12.35-.36.32l-2.85-.28c-.24-.02-.36-.15-.36-.39v-2.85c.03-.23.15-.34.36-.32Zm0,5.35l2.85.28c.24.05.36.18.36.39v2.85c0,.24-.12.35-.36.32l-2.85-.28c-.24-.02-.36-.15-.36-.39v-2.85c.03-.23.15-.34.36-.32Zm0,5.35l2.85.28c.24.05.36.18.36.39v2.85c0,.24-.12.34-.36.32l-2.85-.28c-.24-.02-.36-.15-.36-.39v-2.85c.03-.23.15-.34.36-.32Zm0,5.35l2.85.28c.24.05.36.18.36.39v2.85c0,.24-.12.34-.36.32l-2.85-.28c-.24-.02-.36-.15-.36-.39v-2.85c.03-.23.15-.34.36-.32Zm5.35-15.52l2.85.28c.24.05.36.18.36.39v2.85c0,.24-.12.35-.36.32l-2.85-.28c-.24-.02-.36-.15-.36-.39v-2.85c.03-.23.15-.34.36-.32Zm0,5.35l2.85.28c.24.05.36.18.36.39v2.85c0,.24-.12.35-.36.32l-2.85-.28c-.24-.02-.36-.15-.36-.39v-2.85c.03-.23.15-.34.36-.32Zm0,5.35l2.85.28c.24.05.36.18.36.39v2.85c0,.24-.12.34-.36.32l-2.85-.28c-.24-.02-.36-.15-.36-.39v-2.85c.03-.23.15-.34.36-.32Zm0,5.35l2.85.28c.24.05.36.18.36.39v2.85c0,.24-.12.34-.36.32l-2.85-.28c-.24-.02-.36-.15-.36-.39v-2.85c.03-.23.15-.34.36-.32Zm5.35-15.52l2.85.28c.24.05.36.18.36.39v2.85c0,.24-.12.35-.36.32l-2.85-.28c-.24-.02-.36-.15-.36-.39v-2.85c.03-.23.15-.34.36-.32Zm0,5.35l2.85.28c.24.05.36.18.36.39v2.85c0,.24-.12.35-.36.32l-2.85-.28c-.24-.02-.36-.15-.36-.39v-2.85c.03-.23.15-.34.36-.32Zm0,5.35l2.85.28c.24.05.36.18.36.39v2.85c0,.24-.12.34-.36.32l-2.85-.28c-.24-.02-.36-.15-.36-.39v-2.85c.03-.23.15-.34.36-.32Zm0,5.35l2.85.28c.24.05.36.18.36.39v2.85c0,.24-.12.34-.36.32l-2.85-.28c-.24-.02-.36-.15-.36-.39v-2.85c.03-.23.15-.34.36-.32Zm5.35-47.61l2.85.28c.24.05.36.18.36.39v2.85c0,.24-.12.34-.36.32l-2.85-.28c-.24-.02-.36-.15-.36-.39v-2.85c.03-.23.15-.34.36-.32Zm0,5.35l2.85.28c.24.05.36.18.36.39v2.85c0,.24-.12.34-.36.32l-2.85-.28c-.24-.02-.36-.15-.36-.39v-2.85c.03-.23.15-.34.36-.32Zm0,5.35l2.85.28c.24.05.36.18.36.39v2.85c0,.24-.12.34-.36.32l-2.85-.28c-.24-.02-.36-.15-.36-.39v-2.85c.03-.23.15-.34.36-.32Zm0,5.35l2.85.28c.24.05.36.18.36.39v2.85c0,.24-.12.34-.36.32l-2.85-.28c-.24-.02-.36-.15-.36-.39v-2.85c.03-.23.15-.34.36-.32Zm0,5.35l2.85.28c.24.05.36.18.36.39v2.85c0,.24-.12.34-.36.32l-2.85-.28c-.24-.02-.36-.15-.36-.39v-2.85c.03-.23.15-.34.36-.32Zm0,5.35l2.85.28c.24.05.36.18.36.39v2.85c0,.24-.12.34-.36.32l-2.85-.28c-.24-.02-.36-.15-.36-.39v-2.85c.03-.23.15-.34.36-.32Zm0,5.35l2.85.28c.24.05.36.18.36.39v2.85c0,.24-.12.35-.36.32l-2.85-.28c-.24-.02-.36-.15-.36-.39v-2.85c.03-.23.15-.34.36-.32Zm0,5.35l2.85.28c.24.05.36.18.36.39v2.85c0,.24-.12.35-.36.32l-2.85-.28c-.24-.02-.36-.15-.36-.39v-2.85c.03-.23.15-.34.36-.32Zm0,5.35l2.85.28c.24.05.36.18.36.39v2.85c0,.24-.12.34-.36.32l-2.85-.28c-.24-.02-.36-.15-.36-.39v-2.85c.03-.23.15-.34.36-.32Zm0,5.35l2.85.28c.24.05.36.18.36.39v2.85c0,.24-.12.34-.36.32l-2.85-.28c-.24-.02-.36-.15-.36-.39v-2.85c.03-.23.15-.34.36-.32Zm0,5.35l2.85.28c.24.05.36.18.36.39v2.85c0,.24-.12.34-.36.32l-2.85-.28c-.24-.02-.36-.15-.36-.39v-2.85c.03-.23.15-.34.36-.32Zm0,5.35l2.85.28c.24.05.36.18.36.39v2.85c0,.24-.12.34-.36.32l-2.85-.28c-.24-.02-.36-.15-.36-.39v-2.85c.03-.23.15-.34.36-.32Zm0,5.35l2.85.28c.24.05.36.18.36.39v2.85c0,.24-.12.34-.36.32l-2.85-.28c-.24-.02-.36-.15-.36-.39v-2.85c.03-.23.15-.34.36-.32Zm0,5.35l2.85.28c.24.05.36.18.36.39v2.85c0,.24-.12.34-.36.32l-2.85-.28c-.24-.02-.36-.15-.36-.39v-2.85c.03-.23.15-.34.36-.32Zm0,5.35l2.85.28c.24.05.36.18.36.39v2.85c0,.24-.12.34-.36.32l-2.85-.28c-.24-.02-.36-.15-.36-.39v-2.85c.03-.23.15-.34.36-.32Zm0,5.35l2.85.28c.24.05.36.18.36.39v2.85c0,.24-.12.34-.36.32l-2.85-.28c-.24-.02-.36-.15-.36-.39v-2.85c.03-.23.15-.34.36-.32Zm5.35-79.7l2.85.28c.24.05.36.18.36.39v2.85c0,.24-.12.34-.36.32l-2.85-.28c-.24-.02-.36-.15-.36-.39v-2.85c.03-.23.15-.34.36-.32Zm0,5.35l2.85.28c.24.05.36.18.36.39v2.85c0,.24-.12.34-.36.32l-2.85-.28c-.24-.02-.36-.15-.36-.39v-2.85c.03-.23.15-.34.36-.32Zm0,5.35l2.85.28c.24.05.36.18.36.39v2.85c0,.24-.12.34-.36.32l-2.85-.28c-.24-.02-.36-.15-.36-.39v-2.85c.03-.23.15-.34.36-.32Zm0,5.35l2.85.28c.24.05.36.18.36.39v2.85c0,.24-.12.34-.36.32l-2.85-.28c-.24-.02-.36-.15-.36-.39v-2.85c.03-.23.15-.34.36-.32Zm0,5.35l2.85.28c.24.05.36.18.36.39v2.85c0,.24-.12.34-.36.32l-2.85-.28c-.24-.02-.36-.15-.36-.39v-2.85c.03-.23.15-.34.36-.32Zm0,5.35l2.85.28c.24.05.36.18.36.39v2.85c0,.24-.12.34-.36.32l-2.85-.28c-.24-.02-.36-.15-.36-.39v-2.85c.03-.23.15-.34.36-.32Zm0,5.35l2.85.28c.24.05.36.18.36.39v2.85c0,.24-.12.35-.36.32l-2.85-.28c-.24-.02-.36-.15-.36-.39v-2.85c.03-.23.15-.34.36-.32Zm0,5.35l2.85.28c.24.05.36.18.36.39v2.85c0,.24-.12.35-.36.32l-2.85-.28c-.24-.02-.36-.15-.36-.39v-2.85c.03-.23.15-.34.36-.32Zm0,5.35l2.85.28c.24.05.36.18.36.39v2.85c0,.24-.12.34-.36.32l-2.85-.28c-.24-.02-.36-.15-.36-.39v-2.85c.03-.23.15-.34.36-.32Zm0,5.35l2.85.28c.24.05.36.18.36.39v2.85c0,.24-.12.34-.36.32l-2.85-.28c-.24-.02-.36-.15-.36-.39v-2.85c.03-.23.15-.34.36-.32Zm0,5.35l2.85.28c.24.05.36.18.36.39v2.85c0,.24-.12.34-.36.32l-2.85-.28c-.24-.02-.36-.15-.36-.39v-2.85c.03-.23.15-.34.36-.32Zm0,5.35l2.85.28c.24.05.36.18.36.39v2.85c0,.24-.12.34-.36.32l-2.85-.28c-.24-.02-.36-.15-.36-.39v-2.85c.03-.23.15-.34.36-.32Zm0,5.35l2.85.28c.24.05.36.18.36.39v2.85c0,.24-.12.34-.36.32l-2.85-.28c-.24-.02-.36-.15-.36-.39v-2.85c.03-.23.15-.34.36-.32Zm0,5.35l2.85.28c.24.05.36.18.36.39v2.85c0,.24-.12.34-.36.32l-2.85-.28c-.24-.02-.36-.15-.36-.39v-2.85c.03-.23.15-.34.36-.32Zm0,5.35l2.85.28c.24.05.36.18.36.39v2.85c0,.24-.12.34-.36.32l-2.85-.28c-.24-.02-.36-.15-.36-.39v-2.85c.03-.23.15-.34.36-.32Zm0,5.35l2.85.28c.24.05.36.18.36.39v2.85c0,.24-.12.34-.36.32l-2.85-.28c-.24-.02-.36-.15-.36-.39v-2.85c.03-.23.15-.34.36-.32Zm5.35-79.7l2.85.28c.24.05.36.18.36.39v2.85c0,.24-.12.34-.36.32l-2.85-.28c-.24-.02-.36-.15-.36-.39v-2.85c.03-.23.15-.34.36-.32Zm0,5.35l2.85.28c.24.05.36.18.36.39v2.85c0,.24-.12.34-.36.32l-2.85-.28c-.24-.02-.36-.15-.36-.39v-2.85c.03-.23.15-.34.36-.32Zm0,5.35l2.85.28c.24.05.36.18.36.39v2.85c0,.24-.12.34-.36.32l-2.85-.28c-.24-.02-.36-.15-.36-.39v-2.85c.03-.23.15-.34.36-.32Zm0,5.35l2.85.28c.24.05.36.18.36.39v2.85c0,.24-.12.34-.36.32l-2.85-.28c-.24-.02-.36-.15-.36-.39v-2.85c.03-.23.15-.34.36-.32Zm0,5.35l2.85.28c.24.05.36.18.36.39v2.85c0,.24-.12.34-.36.32l-2.85-.28c-.24-.02-.36-.15-.36-.39v-2.85c.03-.23.15-.34.36-.32Zm0,5.35l2.85.28c.24.05.36.18.36.39v2.85c0,.24-.12.34-.36.32l-2.85-.28c-.24-.02-.36-.15-.36-.39v-2.85c.03-.23.15-.34.36-.32Zm0,5.35l2.85.28c.24.05.36.18.36.39v2.85c0,.24-.12.35-.36.32l-2.85-.28c-.24-.02-.36-.15-.36-.39v-2.85c.03-.23.15-.34.36-.32Zm0,5.35l2.85.28c.24.05.36.18.36.39v2.85c0,.24-.12.35-.36.32l-2.85-.28c-.24-.02-.36-.15-.36-.39v-2.85c.03-.23.15-.34.36-.32Zm0,5.35l2.85.28c.24.05.36.18.36.39v2.85c0,.24-.12.34-.36.32l-2.85-.28c-.24-.02-.36-.15-.36-.39v-2.85c.03-.23.15-.34.36-.32Zm0,5.35l2.85.28c.24.05.36.18.36.39v2.85c0,.24-.12.34-.36.32l-2.85-.28c-.24-.02-.36-.15-.36-.39v-2.85c.03-.23.15-.34.36-.32Zm0,5.35l2.85.28c.24.05.36.18.36.39v2.85c0,.24-.12.34-.36.32l-2.85-.28c-.24-.02-.36-.15-.36-.39v-2.85c.03-.23.15-.34.36-.32Zm0,5.35l2.85.28c.24.05.36.18.36.39v2.85c0,.24-.12.34-.36.32l-2.85-.28c-.24-.02-.36-.15-.36-.39v-2.85c.03-.23.15-.34.36-.32Zm0,5.35l2.85.28c.24.05.36.18.36.39v2.85c0,.24-.12.34-.36.32l-2.85-.28c-.24-.02-.36-.15-.36-.39v-2.85c.03-.23.15-.34.36-.32Zm0,5.35l2.85.28c.24.05.36.18.36.39v2.85c0,.24-.12.34-.36.32l-2.85-.28c-.24-.02-.36-.15-.36-.39v-2.85c.03-.23.15-.34.36-.32Zm0,5.35l2.85.28c.24.05.36.18.36.39v2.85c0,.24-.12.34-.36.32l-2.85-.28c-.24-.02-.36-.15-.36-.39v-2.85c.03-.23.15-.34.36-.32Zm0,5.35l2.85.28c.24.05.36.18.36.39v2.85c0,.24-.12.34-.36.32l-2.85-.28c-.24-.02-.36-.15-.36-.39v-2.85c.03-.23.15-.34.36-.32Zm5.35-79.7l2.85.28c.24.05.36.18.36.39v2.85c0,.24-.12.34-.36.32l-2.85-.28c-.24-.02-.36-.15-.36-.39v-2.85c.03-.23.15-.34.36-.32Zm0,5.35l2.85.28c.24.05.36.18.36.39v2.85c0,.24-.12.34-.36.32l-2.85-.28c-.24-.02-.36-.15-.36-.39v-2.85c.03-.23.15-.34.36-.32Zm0,5.35l2.85.28c.24.05.36.18.36.39v2.85c0,.24-.12.34-.36.32l-2.85-.28c-.24-.02-.36-.15-.36-.39v-2.85c.03-.23.15-.34.36-.32Zm0,5.35l2.85.28c.24.05.36.18.36.39v2.85c0,.24-.12.34-.36.32l-2.85-.28c-.24-.02-.36-.15-.36-.39v-2.85c.03-.23.15-.34.36-.32Zm0,5.35l2.85.28c.24.05.36.18.36.39v2.85c0,.24-.12.34-.36.32l-2.85-.28c-.24-.02-.36-.15-.36-.39v-2.85c.03-.23.15-.34.36-.32Zm0,5.35l2.85.28c.24.05.36.18.36.39v2.85c0,.24-.12.34-.36.32l-2.85-.28c-.24-.02-.36-.15-.36-.39v-2.85c.03-.23.15-.34.36-.32Zm0,5.35l2.85.28c.24.05.36.18.36.39v2.85c0,.24-.12.35-.36.32l-2.85-.28c-.24-.02-.36-.15-.36-.39v-2.85c.03-.23.15-.34.36-.32Zm0,5.35l2.85.28c.24.05.36.18.36.39v2.85c0,.24-.12.35-.36.32l-2.85-.28c-.24-.02-.36-.15-.36-.39v-2.85c.03-.23.15-.34.36-.32Zm0,5.35l2.85.28c.24.05.36.18.36.39v2.85c0,.24-.12.34-.36.32l-2.85-.28c-.24-.02-.36-.15-.36-.39v-2.85c.03-.23.15-.34.36-.32Zm0,5.35l2.85.28c.24.05.36.18.36.39v2.85c0,.24-.12.34-.36.32l-2.85-.28c-.24-.02-.36-.15-.36-.39v-2.85c.03-.23.15-.34.36-.32Zm5.15-15.14l2.85.28c.24.05.36.18.36.39v2.85c0,.24-.12.35-.36.32l-2.85-.28c-.24-.02-.36-.15-.36-.39v-2.85c.03-.23.15-.34.36-.32Zm0,5.35l2.85.28c.24.05.36.18.36.39v2.85c0,.24-.12.35-.36.32l-2.85-.28c-.24-.02-.36-.15-.36-.39v-2.85c.03-.23.15-.34.36-.32Zm0,5.35l2.85.28c.24.05.36.18.36.39v2.85c0,.24-.12.34-.36.32l-2.85-.28c-.24-.02-.36-.15-.36-.39v-2.85c.03-.23.15-.34.36-.32Zm0,5.35l2.85.28c.24.05.36.18.36.39v2.85c0,.24-.12.34-.36.32l-2.85-.28c-.24-.02-.36-.15-.36-.39v-2.85c.03-.23.15-.34.36-.32Zm-5.15,4.45l2.85.28c.24.05.36.18.36.39v2.85c0,.24-.12.34-.36.32l-2.85-.28c-.24-.02-.36-.15-.36-.39v-2.85c.03-.23.15-.34.36-.32Zm0,5.35l2.85.28c.24.05.36.18.36.39v2.85c0,.24-.12.34-.36.32l-2.85-.28c-.24-.02-.36-.15-.36-.39v-2.85c.03-.23.15-.34.36-.32Zm0,5.35l2.85.28c.24.05.36.18.36.39v2.85c0,.24-.12.34-.36.32l-2.85-.28c-.24-.02-.36-.15-.36-.39v-2.85c.03-.23.15-.34.36-.32Zm0,5.35l2.85.28c.24.05.36.18.36.39v2.85c0,.24-.12.34-.36.32l-2.85-.28c-.24-.02-.36-.15-.36-.39v-2.85c.03-.23.15-.34.36-.32Zm0,5.35l2.85.28c.24.05.36.18.36.39v2.85c0,.24-.12.34-.36.32l-2.85-.28c-.24-.02-.36-.15-.36-.39v-2.85c.03-.23.15-.34.36-.32Zm0,5.35l2.85.28c.24.05.36.18.36.39v2.85c0,.24-.12.34-.36.32l-2.85-.28c-.24-.02-.36-.15-.36-.39v-2.85c.03-.23.15-.34.36-.32Z"/><path class="cls-4" d="m304.97,111.6s-82.36,2.38-95.45-4.76c0,0,40.74.7,95.45,4.76Z"/><path class="cls-4" d="m250.62,159.81s-26.8,11.15-38.47-2.22c0,0,17.08-.33,38.47,2.22Z"/><path class="cls-9" d="m345.36,179.03s-83.97-30.38-190.12-18.95c0,0-19.46,56.06,38.83,102.77,0,0,18.1,2.6,48.75-43.42,30.66-46.02,102.54-40.4,102.54-40.4Z"/></g></g></g></svg>