<?xml version="1.0" encoding="UTF-8"?><svg xmlns="http://www.w3.org/2000/svg" xmlns:xlink="http://www.w3.org/1999/xlink" viewBox="0 0 983.34 586.23"><defs><style>.cls-1{fill:url(#_Áåçûìÿííûé_ãðàäèåíò_31-2);}.cls-1,.cls-2,.cls-3,.cls-4,.cls-5,.cls-6,.cls-7,.cls-8,.cls-9,.cls-10,.cls-11,.cls-12,.cls-13,.cls-14,.cls-15,.cls-16{fill-rule:evenodd;}.cls-2{fill:url(#radial-gradient-2);}.cls-3{fill:url(#_Áåçûìÿííûé_ãðàäèåíò_37);}.cls-3,.cls-5,.cls-8,.cls-11,.cls-15,.cls-16{mix-blend-mode:multiply;}.cls-4,.cls-14{fill:#fff;}.cls-17{fill:#1e245c;}.cls-18{fill:url(#radial-gradient-5);}.cls-19{fill:url(#radial-gradient-4);}.cls-20{isolation:isolate;}.cls-5{fill:url(#_Áåçûìÿííûé_ãðàäèåíò_34);}.cls-21{opacity:.35;}.cls-6{fill:url(#radial-gradient-6);}.cls-7{fill:url(#_Áåçûìÿííûé_ãðàäèåíò_25);}.cls-22{fill:#020fb5;}.cls-23{fill:url(#radial-gradient);}.cls-8{fill:url(#_Áåçûìÿííûé_ãðàäèåíò_34-2);}.cls-24{fill:#1bf4f6;}.cls-9{fill:#d3ffdd;}.cls-9,.cls-14{mix-blend-mode:soft-light;}.cls-25{mix-blend-mode:color-dodge;}.cls-10{fill:url(#_Áåçûìÿííûé_ãðàäèåíò_35);}.cls-11{opacity:.5;}.cls-11,.cls-15{fill:#6678b6;}.cls-26{fill:url(#radial-gradient-3);}.cls-12{fill:url(#_Áåçûìÿííûé_ãðàäèåíò_32);}.cls-13{fill:url(#_Áåçûìÿííûé_ãðàäèåíò_31);}.cls-27{fill:#4888ff;}.cls-16{fill:url(#_Áåçûìÿííûé_ãðàäèåíò_30);}</style><radialGradient id="radial-gradient" cx="15694.1" cy="6530.48" fx="15694.1" fy="6530.48" r="778.36" gradientTransform="translate(10109.47 14453.38) rotate(-146.31)" gradientUnits="userSpaceOnUse"><stop offset="0" stop-color="#fff"/><stop offset=".2" stop-color="#ecedf3"/><stop offset=".61" stop-color="#bbc0d6"/><stop offset="1" stop-color="#878fb7"/></radialGradient><radialGradient id="radial-gradient-2" cx="573.54" cy="467.06" fx="573.54" fy="467.06" r="119.2" gradientTransform="translate(109.76 860.65) rotate(-59.78) scale(1 .43)" gradientUnits="userSpaceOnUse"><stop offset="0" stop-color="#c7feff"/><stop offset=".16" stop-color="#bdebff"/><stop offset=".46" stop-color="#a4bcff"/><stop offset=".97" stop-color="#637bff"/></radialGradient><linearGradient id="_Áåçûìÿííûé_ãðàäèåíò_37" x1="8408" y1="-498.76" x2="8502.89" y2="-498.76" gradientTransform="translate(8909.5 -1156.37) rotate(165.74) scale(1 -1)" gradientUnits="userSpaceOnUse"><stop offset="0" stop-color="#687ac0"/><stop offset=".03" stop-color="#6c7ec2"/><stop offset=".5" stop-color="#bbc3e2"/><stop offset=".83" stop-color="#eceef7"/><stop offset="1" stop-color="#fff"/></linearGradient><radialGradient id="radial-gradient-3" cx="670.47" cy="344.63" fx="670.47" fy="344.63" r="70.24" gradientUnits="userSpaceOnUse"><stop offset="0" stop-color="#fff"/><stop offset=".35" stop-color="#ececff"/><stop offset="1" stop-color="#bfc1ff"/></radialGradient><radialGradient id="radial-gradient-4" cx="637.21" cy="176.06" fx="637.21" fy="176.06" r="220.54" gradientUnits="userSpaceOnUse"><stop offset="0" stop-color="#c7feff"/><stop offset=".27" stop-color="#bdebff"/><stop offset=".79" stop-color="#a4bcff"/><stop offset=".97" stop-color="#637bff"/></radialGradient><radialGradient id="radial-gradient-5" cx="667.54" cy="381.02" fx="667.54" fy="381.02" r="107.58" xlink:href="#radial-gradient-4"/><linearGradient id="_Áåçûìÿííûé_ãðàäèåíò_34" x1="8314.71" y1="-348.09" x2="8314.71" y2="-464.72" gradientTransform="translate(8937.04 -1045.21) rotate(167.14) scale(1 -1)" gradientUnits="userSpaceOnUse"><stop offset="0" stop-color="#fff"/><stop offset=".28" stop-color="#ecefff"/><stop offset=".84" stop-color="#bbc6ff"/><stop offset="1" stop-color="#acbaff"/></linearGradient><linearGradient id="_Áåçûìÿííûé_ãðàäèåíò_35" x1="8155.42" y1="266.27" x2="8172.54" y2="266.27" gradientTransform="translate(9241.27 -154.4) rotate(178.31) scale(1.04 -1)" gradientUnits="userSpaceOnUse"><stop offset="0" stop-color="#1b42e1"/><stop offset=".36" stop-color="#1230ce"/><stop offset="1" stop-color="#000aa4"/></linearGradient><linearGradient id="_Áåçûìÿííûé_ãðàäèåíò_34-2" x1="8406.99" y1="-360.93" x2="8406.99" y2="-462.35" xlink:href="#_Áåçûìÿííûé_ãðàäèåíò_34"/><radialGradient id="radial-gradient-6" cx="776.32" cy="369.17" fx="776.32" fy="369.17" r="156.03" gradientTransform="translate(529.67 -375.46) rotate(63.43) scale(1 .3)" gradientUnits="userSpaceOnUse"><stop offset="0" stop-color="#c7feff"/><stop offset=".13" stop-color="#bdebff"/><stop offset=".4" stop-color="#a4bcff"/><stop offset=".77" stop-color="#637bff"/><stop offset="1" stop-color="#bff0ff"/></radialGradient><linearGradient id="_Áåçûìÿííûé_ãðàäèåíò_32" x1="8355.56" y1="656.92" x2="8355.56" y2="538.99" gradientTransform="translate(9040.74 437.82) rotate(-174.62) scale(1 -1)" gradientUnits="userSpaceOnUse"><stop offset="0" stop-color="#030fc6"/><stop offset=".24" stop-color="#020fb3"/><stop offset=".73" stop-color="#001082"/><stop offset="1" stop-color="#001165"/></linearGradient><radialGradient id="_Áåçûìÿííûé_ãðàäèåíò_31" cx="610.99" cy="138.5" fx="610.99" fy="138.5" r="62.11" gradientUnits="userSpaceOnUse"><stop offset="0" stop-color="#c7feff"/><stop offset=".27" stop-color="#bcebff"/><stop offset=".83" stop-color="#a2baff"/><stop offset="1" stop-color="#9aaaff"/></radialGradient><radialGradient id="_Áåçûìÿííûé_ãðàäèåíò_31-2" cx="770.99" cy="152.28" fx="770.99" fy="152.28" r="81.54" xlink:href="#_Áåçûìÿííûé_ãðàäèåíò_31"/><linearGradient id="_Áåçûìÿííûé_ãðàäèåíò_30" x1="8383.74" y1="179.69" x2="8383.74" y2="141.93" gradientTransform="translate(9062.79) rotate(-180) scale(1 -1)" gradientUnits="userSpaceOnUse"><stop offset="0" stop-color="#bfc6ff"/><stop offset=".99" stop-color="#acbaff"/><stop offset="1" stop-color="#acbaff"/></linearGradient><linearGradient id="_Áåçûìÿííûé_ãðàäèåíò_25" x1="8326.55" y1="414.92" x2="8354.67" y2="414.92" gradientTransform="translate(9062.79) rotate(-180) scale(1 -1)" gradientUnits="userSpaceOnUse"><stop offset="0" stop-color="#c7feff"/><stop offset=".22" stop-color="#bcebff"/><stop offset=".68" stop-color="#a2baff"/><stop offset=".82" stop-color="#9aaaff"/><stop offset=".99" stop-color="#b6ffe6"/></linearGradient></defs><g class="cls-20"><g id="Layer_2"><g id="Layer_1-2"><rect class="cls-17" x="0" width="983.34" height="586.23" rx="40" ry="40"/><g class="cls-21"><path class="cls-22" d="m620.58,446.24c.87-2.71-.08-5.78-2.56-7.44-3-2-7.06-1.19-9.06,1.81-2,3-1.19,7.06,1.81,9.06,2.61,1.74,6.02,1.35,8.18-.76,43.44,20.77,93.74,22.09,138.46,3.63.46.66,1.03,1.26,1.75,1.73,3,2,7.06,1.19,9.06-1.81,2-3,1.19-7.06-1.81-9.06s-7.06-1.19-9.06,1.81c-.9,1.35-1.2,2.91-1.02,4.41-43.82,18.12-93.13,16.89-135.74-3.39Zm-8.09.84c-1.57-1.05-1.99-3.17-.95-4.74s3.17-1.99,4.74-.95c1.57,1.05,1.99,3.17.95,4.74s-3.17,1.99-4.74.95Zm152.18-1.08c1.57,1.05,1.99,3.17.95,4.74-1.05,1.57-3.17,1.99-4.74.95s-1.99-3.17-.95-4.74c1.05-1.57,3.17-1.99,4.74-.95Z"/><path class="cls-22" d="m848.07,226.23c.62-.44,1.18-.99,1.63-1.66,2-3,1.19-7.06-1.81-9.06-3-2-7.06-1.19-9.06,1.81s-1.19,7.06,1.81,9.06c1.39.93,3.01,1.22,4.54,1,23.29,52.68,18.19,112.59-13.76,160.51-7.73,11.6-16.85,22.15-27.1,31.41-.27-.26-.55-.5-.87-.71-3-2-7.06-1.19-9.06,1.81-2,3-1.19,7.06,1.81,9.06,3,2,7.06,1.19,9.06-1.81,1.16-1.74,1.35-3.82.74-5.67,10.6-9.52,20.03-20.4,28.01-32.36,32.53-48.79,37.74-109.76,14.06-163.4Zm-5.71-2.44c-1.57-1.05-1.99-3.17-.95-4.74s3.17-1.99,4.74-.95c1.57,1.05,1.99,3.17.95,4.74s-3.17,1.99-4.74.95Zm-44.44,203.09c-1.57-1.05-1.99-3.17-.95-4.74s3.17-1.99,4.74-.95,1.99,3.17.95,4.74c-1.05,1.57-3.17,1.99-4.74.95Z"/><path class="cls-22" d="m513.36,342.79c-.98.49-1.87,1.21-2.52,2.19-2,3-1.19,7.06,1.81,9.06,3,2,7.06,1.19,9.06-1.81,2-3,1.19-7.06-1.81-9.06-1.08-.72-2.3-1.06-3.51-1.08-13.47-50.56-4.61-104.4,24.41-147.93,3.78-5.66,7.9-11.14,12.25-16.31,2.79,1.08,6.06.13,7.79-2.46,2-3,1.19-7.06-1.81-9.06s-7.06-1.19-9.06,1.81c-1.67,2.51-1.35,5.74.54,7.91-4.36,5.2-8.5,10.7-12.29,16.39-29.5,44.25-38.52,98.97-24.85,150.37Zm4.81,2.97c1.57,1.05,1.99,3.17.95,4.74s-3.17,1.99-4.74.95c-1.57-1.05-1.99-3.17-.95-4.74,1.05-1.57,3.17-1.99,4.74-.95Zm34.38-175.9c1.05-1.57,3.17-1.99,4.74-.95s1.99,3.17.95,4.74-3.17,1.99-4.74.95c-1.57-1.05-1.99-3.17-.95-4.74Z"/><path class="cls-22" d="m495.76,260.8c-2.03.07-4.01,1.07-5.22,2.89-2,3-1.19,7.06,1.81,9.06,3,2,7.06,1.19,9.06-1.81,2-3,1.19-7.06-1.81-9.06-.25-.17-.52-.29-.79-.42,4.67-26.96,14.8-52.27,30.11-75.23,14.38-21.56,32.47-39.73,53.77-54.04.21.19.42.38.67.55,3,2,7.06,1.19,9.06-1.81,2-3,1.18-7.06-1.81-9.06s-7.06-1.19-9.06,1.81c-1.22,1.83-1.38,4.05-.65,5.97-21.62,14.53-39.98,32.97-54.57,54.86-15.53,23.29-25.8,48.96-30.56,76.3Zm3.06,8.41c-1.05,1.57-3.17,1.99-4.74.95-1.57-1.05-1.99-3.17-.95-4.74,1.05-1.57,3.17-1.99,4.74-.95,1.57,1.05,1.99,3.17.95,4.74Zm90.06-144.76c1.57,1.05,1.99,3.17.95,4.74s-3.17,1.99-4.74.95c-1.57-1.04-1.99-3.17-.95-4.74s3.17-1.99,4.74-.95Z"/><path class="cls-22" d="m807.07,458.27c.17.14.32.29.51.42,3,2,7.06,1.19,9.06-1.81,2-3,1.19-7.06-1.81-9.06s-7.06-1.19-9.06,1.81c-1.26,1.89-1.4,4.21-.58,6.16-39.39,27.67-87.34,39.88-135.26,34.43-.12-1.98-1.1-3.88-2.87-5.06-3-2-7.06-1.19-9.06,1.81-2,3-1.19,7.06,1.81,9.06s7.06,1.19,9.06-1.81c.2-.3.35-.61.49-.93,48.79,5.61,97.62-6.81,137.72-35.01Zm6.03-7.87c1.57,1.05,1.99,3.17.95,4.74-1.05,1.57-3.17,1.99-4.74.95-1.57-1.05-1.99-3.17-.95-4.74,1.05-1.57,3.17-1.99,4.74-.95Zm-151.57,43.02c-1.57-1.05-1.99-3.17-.95-4.74s3.17-1.99,4.74-.95,1.99,3.17.95,4.74c-1.05,1.57-3.17,1.99-4.74.95Z"/><path class="cls-22" d="m816.44,108.88c-21.41-14.27-44.79-24.65-69.52-30.88.19-2.29-.81-4.62-2.86-5.98-3-2-7.06-1.19-9.06,1.81s-1.19,7.06,1.81,9.06c3,2,7.06,1.19,9.06-1.81.03-.04.04-.08.06-.12,24.46,6.13,47.59,16.38,68.77,30.5,35.14,23.43,62.6,56.12,79.52,94.58-.71.47-1.35,1.08-1.85,1.84-2,3-1.19,7.06,1.81,9.06,3,2,7.06,1.19,9.06-1.81,2-3,1.19-7.06-1.81-9.06-1.3-.87-2.8-1.18-4.25-1.03-17.15-39.12-45.04-72.35-80.76-96.16Zm-77.89-28.57c-1.57-1.04-1.99-3.17-.95-4.74,1.05-1.57,3.17-1.99,4.74-.95s1.99,3.17.95,4.74c-1.04,1.57-3.17,1.99-4.74.95Zm161.17,128.37c1.57,1.05,1.99,3.17.95,4.74-1.05,1.57-3.17,1.99-4.74.95-1.57-1.05-1.99-3.17-.95-4.74,1.05-1.57,3.17-1.99,4.74-.95Z"/><path class="cls-22" d="m517.62,155.09c-2.79-1.07-6.05-.12-7.77,2.47-2,3-1.19,7.06,1.81,9.06,3,2,7.06,1.18,9.06-1.81,1.67-2.51,1.35-5.75-.55-7.92,30.64-38.21,73.65-65.34,121.47-76.6.49,1.03,1.23,1.96,2.25,2.64,3,2,7.06,1.18,9.06-1.81s1.19-7.06-1.81-9.06-7.06-1.19-9.06,1.81c-.69,1.04-1.03,2.2-1.07,3.37-48.59,11.42-92.3,39-123.39,77.86Zm.51,7.99c-1.05,1.57-3.17,1.99-4.74.95s-1.99-3.17-.95-4.74,3.17-1.99,4.74-.95c1.57,1.05,1.99,3.17.95,4.74Zm131.29-88.43c1.57,1.05,1.99,3.17.95,4.74-1.05,1.57-3.17,1.99-4.74.95-1.57-1.05-1.99-3.17-.95-4.74,1.05-1.57,3.17-1.99,4.74-.95Z"/><path class="cls-22" d="m568.09,481.38c48.96,32.64,107.69,44.61,165.48,33.75.49.93,1.18,1.76,2.12,2.38,3,2,7.06,1.19,9.06-1.81s1.19-7.06-1.81-9.06c-3-2-7.06-1.19-9.06,1.81-.75,1.12-1.1,2.4-1.1,3.66-56.91,10.64-114.74-1.17-162.96-33.32-20-13.33-37.52-29.64-52.1-48.45.14-.17.29-.32.41-.5,2-3,1.19-7.06-1.81-9.06-3-2-7.06-1.19-9.06,1.81-2,3-1.19,7.06,1.81,9.06,1.89,1.26,4.21,1.4,6.17.57,14.79,19.09,32.56,35.63,52.85,49.16Zm173.12,27.85c1.57,1.05,1.99,3.17.95,4.74s-3.17,1.99-4.74.95c-1.57-1.05-1.99-3.17-.95-4.74,1.05-1.57,3.17-1.99,4.74-.95Zm-230.41-80.17c-1.57-1.04-1.99-3.17-.95-4.74,1.05-1.57,3.17-1.99,4.74-.95s1.99,3.17.95,4.74c-1.05,1.57-3.17,1.99-4.74.95Z"/><path class="cls-22" d="m815.59,496.57c-3-2-7.06-1.19-9.06,1.81-1.19,1.78-1.36,3.93-.7,5.8-77.47,42-170.87,38.01-244.38-10.41.98-2.76.03-5.93-2.51-7.63-3-2-7.06-1.19-9.06,1.81-2,3-1.19,7.06,1.81,9.06,2.56,1.7,5.88,1.35,8.04-.65,74.55,49.11,169.3,53.11,247.82,10.42.25.23.5.45.79.65,3,2,7.06,1.19,9.06-1.81,2-3,1.19-7.06-1.81-9.06Zm-262.18-2.14c-1.57-1.04-1.99-3.17-.95-4.74s3.17-1.99,4.74-.95,1.99,3.17.95,4.74c-1.05,1.57-3.17,1.99-4.74.95Zm256.66,10.43c-1.57-1.05-1.99-3.17-.95-4.74,1.05-1.57,3.17-1.99,4.74-.95,1.57,1.05,1.99,3.17.95,4.74-1.05,1.57-3.17,1.99-4.74.95Z"/><path class="cls-22" d="m859.86,443.54c6.71-7.6,13-15.74,18.66-24.23,27.17-40.74,40.02-87.97,37.25-136.67,1.26-.46,2.4-1.29,3.2-2.49,2-3,1.19-7.06-1.81-9.06-3-2-7.06-1.19-9.06,1.81-2,3-1.19,7.06,1.81,9.06.86.57,1.8.89,2.76,1.01,2.69,47.97-9.99,94.48-36.74,134.61-5.58,8.38-11.78,16.4-18.4,23.9-2.93-1.55-6.61-.7-8.49,2.12-2,3-1.19,7.06,1.81,9.06,3,2,7.06,1.19,9.06-1.81,1.52-2.28,1.41-5.17-.05-7.3Zm50.83-168.92c1.05-1.57,3.17-1.99,4.74-.95s1.99,3.17.95,4.74c-1.05,1.57-3.17,1.99-4.74.95-1.57-1.05-1.99-3.17-.95-4.74Zm-58.11,175.44c-1.57-1.05-1.99-3.17-.95-4.74s3.17-1.99,4.74-.95c1.57,1.05,1.99,3.17.95,4.74s-3.17,1.99-4.74.95Z"/><path class="cls-22" d="m721.75,480.42c3,2,7.06,1.19,9.06-1.81s1.19-7.06-1.81-9.06-7.06-1.19-9.06,1.81c-.79,1.18-1.12,2.53-1.08,3.85-44.69,6.61-89.93-3.51-127.58-28.61-17.74-11.83-33.07-26.45-45.6-43.45.22-.24.44-.48.63-.76,2-3,1.19-7.06-1.81-9.06-3-2-7.06-1.19-9.06,1.81-2,3-1.19,7.06,1.81,9.06,1.79,1.19,3.96,1.37,5.84.69,12.76,17.34,28.38,32.25,46.47,44.31,38.41,25.61,84.6,35.9,130.18,29.04.49.85,1.15,1.61,2.02,2.19Zm-182.78-78.82c-1.57-1.05-1.99-3.17-.95-4.74s3.17-1.99,4.74-.95,1.99,3.17.95,4.74c-1.05,1.57-3.17,1.99-4.74.95Zm188.3,70.54c1.57,1.05,1.99,3.17.95,4.74-1.05,1.57-3.17,1.99-4.74.95-1.57-1.05-1.99-3.17-.95-4.74,1.05-1.57,3.17-1.99,4.74-.95Z"/><path class="cls-22" d="m809.8,127.81c-2.56-1.7-5.88-1.35-8.04.65-52.81-34.69-119.32-42.26-178.65-20.38-.46-.7-1.07-1.32-1.81-1.82-3-2-7.06-1.18-9.06,1.81-2,3-1.19,7.06,1.81,9.06,3,2,7.06,1.19,9.06-1.81.88-1.32,1.18-2.84,1.03-4.31,58.42-21.56,123.91-14.11,175.9,20.04-.98,2.76-.03,5.93,2.51,7.63,3,2,7.06,1.19,9.06-1.81s1.19-7.06-1.81-9.06Zm-194.03-13.27c-1.57-1.04-1.99-3.17-.95-4.74,1.05-1.57,3.17-1.99,4.74-.95,1.57,1.05,1.99,3.17.95,4.74-1.05,1.57-3.17,1.99-4.74.95Zm188.5,21.55c-1.57-1.05-1.99-3.17-.95-4.74s3.17-1.99,4.74-.95,1.99,3.17.95,4.74c-1.05,1.57-3.17,1.99-4.74.95Z"/><path class="cls-22" d="m875.78,253.55c-1.03-.69-2.18-1.02-3.34-1.07-10.82-45.76-38.28-85.29-77.46-111.41-31.37-20.91-67.78-31.65-105.32-31.09-.42-1.41-1.29-2.69-2.6-3.56-3-2-7.06-1.18-9.06,1.81-2,3-1.19,7.06,1.81,9.06,3,2,7.06,1.19,9.06-1.81.5-.75.82-1.56.98-2.39,36.86-.52,72.6,10.03,103.4,30.57,38.49,25.66,65.48,64.48,76.13,109.43-1.04.49-1.98,1.24-2.67,2.27-2,3-1.19,7.06,1.81,9.06,3,2,7.06,1.19,9.06-1.81s1.19-7.06-1.81-9.06Zm-194.24-138.85c-1.57-1.04-1.99-3.17-.95-4.74,1.05-1.57,3.17-1.99,4.74-.95,1.57,1.05,1.99,3.17.95,4.74-1.05,1.57-3.17,1.99-4.74.95Zm188.71,147.13c-1.57-1.05-1.99-3.17-.95-4.74,1.05-1.57,3.17-1.99,4.74-.95,1.57,1.05,1.99,3.17.95,4.74s-3.17,1.99-4.74.95Z"/><path class="cls-22" d="m878.83,290.76c-3-2-7.06-1.19-9.06,1.81s-1.19,7.06,1.81,9.06c.8.54,1.68.85,2.58,1-1.34,33.3-11.84,65.59-30.43,93.48-22.29,33.43-54.04,57.94-91.87,71.01-.49-.99-1.22-1.89-2.2-2.55-3-2-7.06-1.19-9.06,1.81-2,3-1.19,7.06,1.81,9.06s7.06,1.19,9.06-1.81c.71-1.06,1.05-2.26,1.08-3.45,38.63-13.26,71.04-38.25,93.77-72.35,18.99-28.48,29.67-61.47,30.97-95.48,1.32-.45,2.52-1.29,3.35-2.54,2-3,1.19-7.06-1.81-9.06Zm-134.69,182.1c-1.57-1.05-1.99-3.17-.95-4.74s3.17-1.99,4.74-.95c1.57,1.05,1.99,3.17.95,4.74s-3.17,1.99-4.74.95Zm128.22-178.56c1.05-1.57,3.17-1.99,4.74-.95s1.99,3.17.95,4.74-3.17,1.99-4.74.95-1.99-3.17-.95-4.74Z"/><path class="cls-22" d="m853.83,176.2c2-3,1.19-7.06-1.81-9.06-3-2-7.06-1.19-9.06,1.81-2,3-1.19,7.06,1.81,9.06,1.73,1.15,3.81,1.34,5.65.74,48.54,65.97,50.93,155.63,5.92,224.15-2.75-.98-5.93-.03-7.62,2.51-2,3-1.19,7.06,1.81,9.06s7.06,1.19,9.06-1.81c1.7-2.56,1.35-5.88-.65-8.05,45.68-69.54,43.3-160.5-5.86-227.5.27-.28.53-.58.76-.92Zm3.16,234.74c-1.05,1.57-3.17,1.99-4.74.95s-1.99-3.17-.95-4.74c1.05-1.57,3.17-1.99,4.74-.95,1.57,1.05,1.99,3.17.95,4.74Zm-10.5-235.52c-1.57-1.05-1.99-3.17-.95-4.74s3.17-1.99,4.74-.95c1.57,1.05,1.99,3.17.95,4.74-1.05,1.57-3.17,1.99-4.74.95Z"/><path class="cls-22" d="m920.13,237.8c1,.67,2.12,1,3.25,1.06,14.65,60.18,5.64,122.47-25.48,175.85-2.74-.94-5.88,0-7.56,2.53-2,3-1.19,7.06,1.81,9.06s7.06,1.19,9.06-1.81c1.72-2.58,1.35-5.93-.69-8.1,31.55-54.06,40.72-117.15,25.92-178.1,1.08-.49,2.04-1.25,2.75-2.31,2-3,1.19-7.06-1.81-9.06s-7.06-1.19-9.06,1.81-1.19,7.06,1.81,9.06Zm-21.51,184.97c-1.04,1.57-3.17,1.99-4.74.95s-1.99-3.17-.95-4.74c1.05-1.57,3.17-1.99,4.74-.95s1.99,3.17.95,4.74Zm27.03-193.25c1.57,1.05,1.99,3.17.95,4.74s-3.17,1.99-4.74.95-1.99-3.17-.95-4.74c1.05-1.57,3.17-1.99,4.74-.95Z"/><path class="cls-22" d="m486.12,405.45c-1.56-1.04-3.4-1.3-5.09-.91-17.77-34.4-26.97-72.95-26.64-111.73,1.42-.42,2.71-1.29,3.59-2.61,2-3,1.19-7.06-1.81-9.06-3-2-7.06-1.19-9.06,1.81-2,3-1.19,7.06,1.81,9.06.74.49,1.54.81,2.36.97-.31,39.21,9,78.18,26.97,112.97-.44.38-.86.8-1.2,1.31-2,3-1.19,7.06,1.81,9.06,3,2,7.06,1.19,9.06-1.81,2-3,1.19-7.06-1.81-9.06Zm-36.42-120.77c1.05-1.57,3.17-1.99,4.74-.95s1.99,3.17.95,4.74-3.17,1.99-4.74.95c-1.57-1.05-1.99-3.17-.95-4.74Zm30.9,129.05c-1.57-1.05-1.99-3.17-.95-4.74s3.17-1.99,4.74-.95c1.57,1.04,1.99,3.17.95,4.74-1.05,1.57-3.17,1.99-4.74.95Z"/><path class="cls-22" d="m491.17,315.27c.86.58,1.82.89,2.78,1.02,6.33,59.1,38.24,111.83,87.67,144.79,10.24,6.83,21.11,12.71,32.33,17.51-.18,2.28.82,4.59,2.86,5.95,3,2,7.06,1.19,9.06-1.81s1.19-7.06-1.81-9.06-7.06-1.19-9.06,1.81c-.03.04-.04.09-.07.14-10.96-4.71-21.58-10.46-31.58-17.13-48.67-32.45-80.07-84.36-86.3-142.54,1.25-.46,2.38-1.29,3.18-2.49,2-3,1.19-7.06-1.81-9.06-3-2-7.06-1.19-9.06,1.81s-1.19,7.06,1.81,9.06Zm131.17,160.98c1.57,1.05,1.99,3.17.95,4.74s-3.17,1.99-4.74.95c-1.57-1.05-1.99-3.17-.95-4.74s3.17-1.99,4.74-.95Zm-125.65-169.27c1.57,1.05,1.99,3.17.95,4.74-1.05,1.57-3.17,1.99-4.74.95-1.57-1.05-1.99-3.17-.95-4.74,1.05-1.57,3.17-1.99,4.74-.95Z"/><path class="cls-22" d="m543.62,202.01c-2,3-1.19,7.06,1.81,9.06s7.06,1.19,9.06-1.81c1.7-2.54,1.35-5.84-.62-8.01,51.17-75.44,153.79-95.96,230.03-46-.99,2.76-.04,5.94,2.51,7.63,3,2,7.06,1.19,9.06-1.81s1.19-7.06-1.81-9.06c-2.55-1.7-5.87-1.35-8.04.64-77.67-50.91-182.22-30-234.34,46.86-2.76-1.01-5.96-.06-7.67,2.5Zm248.32-47.41c1.57,1.05,1.99,3.17.95,4.74-1.05,1.57-3.17,1.99-4.74.95s-1.99-3.17-.95-4.74c1.05-1.57,3.17-1.99,4.74-.95Zm-240.98,48.19c1.57,1.04,1.99,3.17.95,4.74s-3.17,1.99-4.74.95-1.99-3.17-.95-4.74c1.05-1.57,3.17-1.99,4.74-.95Z"/><path class="cls-22" d="m501.19,196.05c2-3,1.19-7.06-1.81-9.06-3-2-7.06-1.19-9.06,1.81-1.74,2.61-1.35,6.01.75,8.17-26.51,54.18-29.84,117.59-9.21,174.57-.76.48-1.43,1.1-1.96,1.89-2,3-1.19,7.06,1.81,9.06s7.06,1.19,9.06-1.81c2-3,1.19-7.06-1.81-9.06-1.27-.85-2.73-1.16-4.14-1.05-20.35-56.11-17.12-118.56,8.91-171.96,2.71.88,5.79-.07,7.45-2.56Zm-13.01,182.91c-1.05,1.57-3.17,1.99-4.74.95-1.57-1.05-1.99-3.17-.95-4.74,1.05-1.57,3.17-1.99,4.74-.95s1.99,3.17.95,4.74Zm5.67-183.69c-1.57-1.05-1.99-3.17-.95-4.74,1.05-1.57,3.17-1.99,4.74-.95,1.57,1.04,1.99,3.17.95,4.74-1.05,1.57-3.17,1.99-4.74.95Z"/><path class="cls-22" d="m680.43,60.88c3,2,7.06,1.19,9.06-1.81.38-.57.63-1.19.81-1.82,44.73-.41,88.47,11.8,126.62,35.31-.96,2.75,0,5.9,2.52,7.58,3,2,7.06,1.19,9.06-1.81,2-3,1.19-7.06-1.81-9.06-2.57-1.71-5.91-1.35-8.08.67-38.62-23.81-82.89-36.19-128.17-35.81-.33-1.63-1.28-3.14-2.77-4.13-3-2-7.06-1.18-9.06,1.81-2,3-1.19,7.06,1.81,9.06Zm144.54,30.98c1.57,1.05,1.99,3.17.95,4.74-1.04,1.57-3.17,1.99-4.74.95s-1.99-3.17-.95-4.74c1.05-1.57,3.17-1.99,4.74-.95Zm-139.02-39.27c1.57,1.05,1.99,3.17.95,4.74s-3.17,1.99-4.74.95c-1.57-1.04-1.99-3.17-.95-4.74,1.05-1.57,3.17-1.99,4.74-.95Z"/><path class="cls-22" d="m531.28,272.6c2-3,1.19-7.06-1.81-9.06-3-2-7.06-1.19-9.06,1.81-2,3-1.19,7.06,1.81,9.06.28.19.58.33.88.47-6.97,58.69,17.3,117.44,63.59,153.93-1.07,2.79-.12,6.05,2.47,7.77,3,2,7.06,1.19,9.06-1.81s1.19-7.06-1.81-9.06c-2.51-1.67-5.76-1.35-7.92.55-45.29-35.78-69.06-93.3-62.31-150.78,1.99-.1,3.92-1.09,5.11-2.88Zm63.4,155.7c1.57,1.05,1.99,3.17.95,4.74s-3.17,1.99-4.74.95c-1.57-1.05-1.99-3.17-.95-4.74,1.05-1.57,3.17-1.99,4.74-.95Zm-71.68-161.22c1.05-1.57,3.17-1.99,4.74-.95,1.57,1.05,1.99,3.17.95,4.74-1.05,1.57-3.17,1.99-4.74.95s-1.99-3.17-.95-4.74Z"/><path class="cls-22" d="m533.52,113.76c-15.88,13.92-29.94,29.95-41.76,47.68-12.18,18.27-21.77,38-28.54,58.66-2.21-.1-4.42.91-5.73,2.88-2,3-1.19,7.06,1.81,9.06s7.06,1.19,9.06-1.81c2-3,1.19-7.06-1.81-9.06-.11-.07-.23-.11-.34-.18,6.69-20.36,16.14-39.81,28.15-57.82,11.76-17.63,25.74-33.55,41.55-47.36,2.91,1.48,6.53.61,8.39-2.17,2-3,1.19-7.06-1.81-9.06-3-2-7.06-1.19-9.06,1.81-1.54,2.3-1.4,5.23.11,7.37Zm-67.76,114.74c-1.05,1.57-3.17,1.99-4.74.95-1.57-1.05-1.99-3.17-.95-4.74,1.05-1.57,3.17-1.99,4.74-.95s1.99,3.17.95,4.74Zm74.99-121.33c1.57,1.05,1.99,3.17.95,4.74s-3.17,1.99-4.74.95c-1.57-1.05-1.99-3.17-.95-4.74,1.05-1.57,3.17-1.99,4.74-.95Z"/><g class="cls-25"><path class="cls-23" d="m620.58,446.24c.87-2.71-.08-5.78-2.56-7.44-3-2-7.06-1.19-9.06,1.81-2,3-1.19,7.06,1.81,9.06,2.61,1.74,6.02,1.35,8.18-.76,43.44,20.77,93.74,22.09,138.46,3.63.46.66,1.03,1.26,1.75,1.73,3,2,7.06,1.19,9.06-1.81,2-3,1.19-7.06-1.81-9.06s-7.06-1.19-9.06,1.81c-.9,1.35-1.2,2.91-1.02,4.41-43.82,18.12-93.13,16.89-135.74-3.39Zm-8.09.84c-1.57-1.05-1.99-3.17-.95-4.74s3.17-1.99,4.74-.95c1.57,1.05,1.99,3.17.95,4.74s-3.17,1.99-4.74.95Zm152.18-1.08c1.57,1.05,1.99,3.17.95,4.74-1.05,1.57-3.17,1.99-4.74.95s-1.99-3.17-.95-4.74c1.05-1.57,3.17-1.99,4.74-.95Zm83.4-219.77c.62-.44,1.18-.99,1.63-1.66,2-3,1.19-7.06-1.81-9.06-3-2-7.06-1.19-9.06,1.81s-1.19,7.06,1.81,9.06c1.39.93,3.01,1.22,4.54,1,23.29,52.68,18.19,112.59-13.76,160.51-7.73,11.6-16.85,22.15-27.1,31.41-.27-.26-.55-.5-.87-.71-3-2-7.06-1.19-9.06,1.81-2,3-1.19,7.06,1.81,9.06,3,2,7.06,1.19,9.06-1.81,1.16-1.74,1.35-3.82.74-5.67,10.6-9.52,20.03-20.4,28.01-32.36,32.53-48.79,37.74-109.76,14.06-163.4Zm-5.71-2.44c-1.57-1.05-1.99-3.17-.95-4.74s3.17-1.99,4.74-.95c1.57,1.05,1.99,3.17.95,4.74s-3.17,1.99-4.74.95Zm-44.44,203.09c-1.57-1.05-1.99-3.17-.95-4.74s3.17-1.99,4.74-.95,1.99,3.17.95,4.74c-1.05,1.57-3.17,1.99-4.74.95Zm-284.57-84.1c-.98.49-1.87,1.21-2.52,2.19-2,3-1.19,7.06,1.81,9.06,3,2,7.06,1.19,9.06-1.81,2-3,1.19-7.06-1.81-9.06-1.08-.72-2.3-1.06-3.51-1.08-13.47-50.56-4.61-104.4,24.41-147.93,3.78-5.66,7.9-11.14,12.25-16.31,2.79,1.08,6.06.13,7.79-2.46,2-3,1.19-7.06-1.81-9.06s-7.06-1.19-9.06,1.81c-1.67,2.51-1.35,5.74.54,7.91-4.36,5.2-8.5,10.7-12.29,16.39-29.5,44.25-38.52,98.97-24.85,150.37Zm4.81,2.97c1.57,1.05,1.99,3.17.95,4.74s-3.17,1.99-4.74.95c-1.57-1.05-1.99-3.17-.95-4.74,1.05-1.57,3.17-1.99,4.74-.95Zm34.38-175.9c1.05-1.57,3.17-1.99,4.74-.95s1.99,3.17.95,4.74-3.17,1.99-4.74.95c-1.57-1.05-1.99-3.17-.95-4.74Zm-56.79,90.95c-2.03.07-4.01,1.07-5.22,2.89-2,3-1.19,7.06,1.81,9.06,3,2,7.06,1.19,9.06-1.81,2-3,1.19-7.06-1.81-9.06-.25-.17-.52-.29-.79-.42,4.67-26.96,14.8-52.27,30.11-75.23,14.38-21.56,32.47-39.73,53.77-54.04.21.19.42.38.67.55,3,2,7.06,1.19,9.06-1.81,2-3,1.18-7.06-1.81-9.06s-7.06-1.19-9.06,1.81c-1.22,1.83-1.38,4.05-.65,5.97-21.62,14.53-39.98,32.97-54.57,54.86-15.53,23.29-25.8,48.96-30.56,76.3Zm3.06,8.41c-1.05,1.57-3.17,1.99-4.74.95-1.57-1.05-1.99-3.17-.95-4.74,1.05-1.57,3.17-1.99,4.74-.95,1.57,1.05,1.99,3.17.95,4.74Zm90.06-144.76c1.57,1.05,1.99,3.17.95,4.74s-3.17,1.99-4.74.95c-1.57-1.04-1.99-3.17-.95-4.74s3.17-1.99,4.74-.95Zm218.19,333.82c.17.14.32.29.51.42,3,2,7.06,1.19,9.06-1.81,2-3,1.19-7.06-1.81-9.06s-7.06-1.19-9.06,1.81c-1.26,1.89-1.4,4.21-.58,6.16-39.39,27.67-87.34,39.88-135.26,34.43-.12-1.98-1.1-3.88-2.87-5.06-3-2-7.06-1.19-9.06,1.81-2,3-1.19,7.06,1.81,9.06s7.06,1.19,9.06-1.81c.2-.3.35-.61.49-.93,48.79,5.61,97.62-6.81,137.72-35.01Zm6.03-7.87c1.57,1.05,1.99,3.17.95,4.74-1.05,1.57-3.17,1.99-4.74.95-1.57-1.05-1.99-3.17-.95-4.74,1.05-1.57,3.17-1.99,4.74-.95Zm-151.57,43.02c-1.57-1.05-1.99-3.17-.95-4.74s3.17-1.99,4.74-.95,1.99,3.17.95,4.74c-1.05,1.57-3.17,1.99-4.74.95Zm154.92-384.55c-21.41-14.27-44.79-24.65-69.52-30.88.19-2.29-.81-4.62-2.86-5.98-3-2-7.06-1.19-9.06,1.81s-1.19,7.06,1.81,9.06c3,2,7.06,1.19,9.06-1.81.03-.04.04-.08.06-.12,24.46,6.13,47.59,16.38,68.77,30.5,35.14,23.43,62.6,56.12,79.52,94.58-.71.47-1.35,1.08-1.85,1.84-2,3-1.19,7.06,1.81,9.06,3,2,7.06,1.19,9.06-1.81,2-3,1.19-7.06-1.81-9.06-1.3-.87-2.8-1.18-4.25-1.03-17.15-39.12-45.04-72.35-80.76-96.16Zm-77.89-28.57c-1.57-1.04-1.99-3.17-.95-4.74,1.05-1.57,3.17-1.99,4.74-.95s1.99,3.17.95,4.74c-1.04,1.57-3.17,1.99-4.74.95Zm161.17,128.37c1.57,1.05,1.99,3.17.95,4.74-1.05,1.57-3.17,1.99-4.74.95-1.57-1.05-1.99-3.17-.95-4.74,1.05-1.57,3.17-1.99,4.74-.95Zm-382.1-53.58c-2.79-1.07-6.05-.12-7.77,2.47-2,3-1.19,7.06,1.81,9.06,3,2,7.06,1.18,9.06-1.81,1.67-2.51,1.35-5.75-.55-7.92,30.64-38.21,73.65-65.34,121.47-76.6.49,1.03,1.23,1.96,2.25,2.64,3,2,7.06,1.18,9.06-1.81s1.19-7.06-1.81-9.06-7.06-1.19-9.06,1.81c-.69,1.04-1.03,2.2-1.07,3.37-48.59,11.42-92.3,39-123.39,77.86Zm.51,7.99c-1.05,1.57-3.17,1.99-4.74.95s-1.99-3.17-.95-4.74,3.17-1.99,4.74-.95c1.57,1.05,1.99,3.17.95,4.74Zm131.29-88.43c1.57,1.05,1.99,3.17.95,4.74-1.05,1.57-3.17,1.99-4.74.95-1.57-1.05-1.99-3.17-.95-4.74,1.05-1.57,3.17-1.99,4.74-.95Zm-81.33,406.73c48.96,32.64,107.69,44.61,165.48,33.75.49.93,1.18,1.76,2.12,2.38,3,2,7.06,1.19,9.06-1.81s1.19-7.06-1.81-9.06c-3-2-7.06-1.19-9.06,1.81-.75,1.12-1.1,2.4-1.1,3.66-56.91,10.64-114.74-1.17-162.96-33.32-20-13.33-37.52-29.64-52.1-48.45.14-.17.29-.32.41-.5,2-3,1.19-7.06-1.81-9.06-3-2-7.06-1.19-9.06,1.81-2,3-1.19,7.06,1.81,9.06,1.89,1.26,4.21,1.4,6.17.57,14.79,19.09,32.56,35.63,52.85,49.16Zm173.12,27.85c1.57,1.05,1.99,3.17.95,4.74s-3.17,1.99-4.74.95c-1.57-1.05-1.99-3.17-.95-4.74,1.05-1.57,3.17-1.99,4.74-.95Zm-230.41-80.17c-1.57-1.04-1.99-3.17-.95-4.74,1.05-1.57,3.17-1.99,4.74-.95s1.99,3.17.95,4.74c-1.05,1.57-3.17,1.99-4.74.95Zm304.79,67.52c-3-2-7.06-1.19-9.06,1.81-1.19,1.78-1.36,3.93-.7,5.8-77.47,42-170.87,38.01-244.38-10.41.98-2.76.03-5.93-2.51-7.63-3-2-7.06-1.19-9.06,1.81-2,3-1.19,7.06,1.81,9.06,2.56,1.7,5.88,1.35,8.04-.65,74.55,49.11,169.3,53.11,247.82,10.42.25.23.5.45.79.65,3,2,7.06,1.19,9.06-1.81,2-3,1.19-7.06-1.81-9.06Zm-262.18-2.14c-1.57-1.04-1.99-3.17-.95-4.74s3.17-1.99,4.74-.95,1.99,3.17.95,4.74c-1.05,1.57-3.17,1.99-4.74.95Zm256.66,10.43c-1.57-1.05-1.99-3.17-.95-4.74,1.05-1.57,3.17-1.99,4.74-.95,1.57,1.05,1.99,3.17.95,4.74-1.05,1.57-3.17,1.99-4.74.95Zm49.8-61.32c6.71-7.6,13-15.74,18.66-24.23,27.17-40.74,40.02-87.97,37.25-136.67,1.26-.46,2.4-1.29,3.2-2.49,2-3,1.19-7.06-1.81-9.06-3-2-7.06-1.19-9.06,1.81-2,3-1.19,7.06,1.81,9.06.86.57,1.8.89,2.76,1.01,2.69,47.97-9.99,94.48-36.74,134.61-5.58,8.38-11.78,16.4-18.4,23.9-2.93-1.55-6.61-.7-8.49,2.12-2,3-1.19,7.06,1.81,9.06,3,2,7.06,1.19,9.06-1.81,1.52-2.28,1.41-5.17-.05-7.3Zm50.83-168.92c1.05-1.57,3.17-1.99,4.74-.95s1.99,3.17.95,4.74c-1.05,1.57-3.17,1.99-4.74.95-1.57-1.05-1.99-3.17-.95-4.74Zm-58.11,175.44c-1.57-1.05-1.99-3.17-.95-4.74s3.17-1.99,4.74-.95c1.57,1.05,1.99,3.17.95,4.74s-3.17,1.99-4.74.95Zm-130.82,30.36c3,2,7.06,1.19,9.06-1.81s1.19-7.06-1.81-9.06-7.06-1.19-9.06,1.81c-.79,1.18-1.12,2.53-1.08,3.85-44.69,6.61-89.93-3.51-127.58-28.61-17.74-11.83-33.07-26.45-45.6-43.45.22-.24.44-.48.63-.76,2-3,1.19-7.06-1.81-9.06-3-2-7.06-1.19-9.06,1.81-2,3-1.19,7.06,1.81,9.06,1.79,1.19,3.96,1.37,5.84.69,12.76,17.34,28.38,32.25,46.47,44.31,38.41,25.61,84.6,35.9,130.18,29.04.49.85,1.15,1.61,2.02,2.19Zm-182.78-78.82c-1.57-1.05-1.99-3.17-.95-4.74s3.17-1.99,4.74-.95,1.99,3.17.95,4.74c-1.05,1.57-3.17,1.99-4.74.95Zm188.3,70.54c1.57,1.05,1.99,3.17.95,4.74-1.05,1.57-3.17,1.99-4.74.95-1.57-1.05-1.99-3.17-.95-4.74,1.05-1.57,3.17-1.99,4.74-.95Zm82.53-344.34c-2.56-1.7-5.88-1.35-8.04.65-52.81-34.69-119.32-42.26-178.65-20.38-.46-.7-1.07-1.32-1.81-1.82-3-2-7.06-1.18-9.06,1.81-2,3-1.19,7.06,1.81,9.06,3,2,7.06,1.19,9.06-1.81.88-1.32,1.18-2.84,1.03-4.31,58.42-21.56,123.91-14.11,175.9,20.04-.98,2.76-.03,5.93,2.51,7.63,3,2,7.06,1.19,9.06-1.81s1.19-7.06-1.81-9.06Zm-194.03-13.27c-1.57-1.04-1.99-3.17-.95-4.74,1.05-1.57,3.17-1.99,4.74-.95,1.57,1.05,1.99,3.17.95,4.74-1.05,1.57-3.17,1.99-4.74.95Zm188.5,21.55c-1.57-1.05-1.99-3.17-.95-4.74s3.17-1.99,4.74-.95,1.99,3.17.95,4.74c-1.05,1.57-3.17,1.99-4.74.95Zm71.49,117.46c-1.03-.69-2.18-1.02-3.34-1.07-10.82-45.76-38.28-85.29-77.46-111.41-31.37-20.91-67.78-31.65-105.32-31.09-.42-1.41-1.29-2.69-2.6-3.56-3-2-7.06-1.18-9.06,1.81-2,3-1.19,7.06,1.81,9.06,3,2,7.06,1.19,9.06-1.81.5-.75.82-1.56.98-2.39,36.86-.52,72.6,10.03,103.4,30.57,38.49,25.66,65.48,64.48,76.13,109.43-1.04.49-1.98,1.24-2.67,2.27-2,3-1.19,7.06,1.81,9.06,3,2,7.06,1.19,9.06-1.81s1.19-7.06-1.81-9.06Zm-194.24-138.85c-1.57-1.04-1.99-3.17-.95-4.74,1.05-1.57,3.17-1.99,4.74-.95,1.57,1.05,1.99,3.17.95,4.74-1.05,1.57-3.17,1.99-4.74.95Zm188.71,147.13c-1.57-1.05-1.99-3.17-.95-4.74,1.05-1.57,3.17-1.99,4.74-.95,1.57,1.05,1.99,3.17.95,4.74s-3.17,1.99-4.74.95Zm8.58,28.93c-3-2-7.06-1.19-9.06,1.81s-1.19,7.06,1.81,9.06c.8.54,1.68.85,2.58,1-1.34,33.3-11.84,65.59-30.43,93.48-22.29,33.43-54.04,57.94-91.87,71.01-.49-.99-1.22-1.89-2.2-2.55-3-2-7.06-1.19-9.06,1.81-2,3-1.19,7.06,1.81,9.06s7.06,1.19,9.06-1.81c.71-1.06,1.05-2.26,1.08-3.45,38.63-13.26,71.04-38.25,93.77-72.35,18.99-28.48,29.67-61.47,30.97-95.48,1.32-.45,2.52-1.29,3.35-2.54,2-3,1.19-7.06-1.81-9.06Zm-134.69,182.1c-1.57-1.05-1.99-3.17-.95-4.74s3.17-1.99,4.74-.95c1.57,1.05,1.99,3.17.95,4.74s-3.17,1.99-4.74.95Zm128.22-178.56c1.05-1.57,3.17-1.99,4.74-.95s1.99,3.17.95,4.74-3.17,1.99-4.74.95-1.99-3.17-.95-4.74Zm-18.53-118.1c2-3,1.19-7.06-1.81-9.06-3-2-7.06-1.19-9.06,1.81-2,3-1.19,7.06,1.81,9.06,1.73,1.15,3.81,1.34,5.65.74,48.54,65.97,50.93,155.63,5.92,224.15-2.75-.98-5.93-.03-7.62,2.51-2,3-1.19,7.06,1.81,9.06s7.06,1.19,9.06-1.81c1.7-2.56,1.35-5.88-.65-8.05,45.68-69.54,43.3-160.5-5.86-227.5.27-.28.53-.58.76-.92Zm3.16,234.74c-1.05,1.57-3.17,1.99-4.74.95s-1.99-3.17-.95-4.74c1.05-1.57,3.17-1.99,4.74-.95,1.57,1.05,1.99,3.17.95,4.74Zm-10.5-235.52c-1.57-1.05-1.99-3.17-.95-4.74s3.17-1.99,4.74-.95c1.57,1.05,1.99,3.17.95,4.74-1.05,1.57-3.17,1.99-4.74.95Zm73.63,62.38c1,.67,2.12,1,3.25,1.06,14.65,60.18,5.64,122.47-25.48,175.85-2.74-.94-5.88,0-7.56,2.53-2,3-1.19,7.06,1.81,9.06s7.06,1.19,9.06-1.81c1.72-2.58,1.35-5.93-.69-8.1,31.55-54.06,40.72-117.15,25.92-178.1,1.08-.49,2.04-1.25,2.75-2.31,2-3,1.19-7.06-1.81-9.06s-7.06-1.19-9.06,1.81-1.19,7.06,1.81,9.06Zm-21.51,184.97c-1.04,1.57-3.17,1.99-4.74.95s-1.99-3.17-.95-4.74c1.05-1.57,3.17-1.99,4.74-.95s1.99,3.17.95,4.74Zm27.03-193.25c1.57,1.05,1.99,3.17.95,4.74s-3.17,1.99-4.74.95-1.99-3.17-.95-4.74c1.05-1.57,3.17-1.99,4.74-.95Zm-439.53,175.94c-1.56-1.04-3.4-1.3-5.09-.91-17.77-34.4-26.97-72.95-26.64-111.73,1.42-.42,2.71-1.29,3.59-2.61,2-3,1.19-7.06-1.81-9.06-3-2-7.06-1.19-9.06,1.81-2,3-1.19,7.06,1.81,9.06.74.49,1.54.81,2.36.97-.31,39.21,9,78.18,26.97,112.97-.44.38-.86.8-1.2,1.31-2,3-1.19,7.06,1.81,9.06,3,2,7.06,1.19,9.06-1.81,2-3,1.19-7.06-1.81-9.06Zm-36.42-120.77c1.05-1.57,3.17-1.99,4.74-.95s1.99,3.17.95,4.74-3.17,1.99-4.74.95c-1.57-1.05-1.99-3.17-.95-4.74Zm30.9,129.05c-1.57-1.05-1.99-3.17-.95-4.74s3.17-1.99,4.74-.95c1.57,1.04,1.99,3.17.95,4.74-1.05,1.57-3.17,1.99-4.74.95Zm10.58-98.47c.86.58,1.82.89,2.78,1.02,6.33,59.1,38.24,111.83,87.67,144.79,10.24,6.83,21.11,12.71,32.33,17.51-.18,2.28.82,4.59,2.86,5.95,3,2,7.06,1.19,9.06-1.81s1.19-7.06-1.81-9.06-7.06-1.19-9.06,1.81c-.03.04-.04.09-.07.14-10.96-4.71-21.58-10.46-31.58-17.13-48.67-32.45-80.07-84.36-86.3-142.54,1.25-.46,2.38-1.29,3.18-2.49,2-3,1.19-7.06-1.81-9.06-3-2-7.06-1.19-9.06,1.81s-1.19,7.06,1.81,9.06Zm131.17,160.98c1.57,1.05,1.99,3.17.95,4.74s-3.17,1.99-4.74.95c-1.57-1.05-1.99-3.17-.95-4.74s3.17-1.99,4.74-.95Zm-125.65-169.27c1.57,1.05,1.99,3.17.95,4.74-1.05,1.57-3.17,1.99-4.74.95-1.57-1.05-1.99-3.17-.95-4.74,1.05-1.57,3.17-1.99,4.74-.95Zm46.93-104.98c-2,3-1.19,7.06,1.81,9.06s7.06,1.19,9.06-1.81c1.7-2.54,1.35-5.84-.62-8.01,51.17-75.44,153.79-95.96,230.03-46-.99,2.76-.04,5.94,2.51,7.63,3,2,7.06,1.19,9.06-1.81s1.19-7.06-1.81-9.06c-2.55-1.7-5.87-1.35-8.04.64-77.67-50.91-182.22-30-234.34,46.86-2.76-1.01-5.96-.06-7.67,2.5Zm248.32-47.41c1.57,1.05,1.99,3.17.95,4.74-1.05,1.57-3.17,1.99-4.74.95s-1.99-3.17-.95-4.74c1.05-1.57,3.17-1.99,4.74-.95Zm-240.98,48.19c1.57,1.04,1.99,3.17.95,4.74s-3.17,1.99-4.74.95-1.99-3.17-.95-4.74c1.05-1.57,3.17-1.99,4.74-.95Zm-49.77-6.74c2-3,1.19-7.06-1.81-9.06-3-2-7.06-1.19-9.06,1.81-1.74,2.61-1.35,6.01.75,8.17-26.51,54.18-29.84,117.59-9.21,174.57-.76.48-1.43,1.1-1.96,1.89-2,3-1.19,7.06,1.81,9.06s7.06,1.19,9.06-1.81c2-3,1.19-7.06-1.81-9.06-1.27-.85-2.73-1.16-4.14-1.05-20.35-56.11-17.12-118.56,8.91-171.96,2.71.88,5.79-.07,7.45-2.56Zm-13.01,182.91c-1.05,1.57-3.17,1.99-4.74.95-1.57-1.05-1.99-3.17-.95-4.74,1.05-1.57,3.17-1.99,4.74-.95s1.99,3.17.95,4.74Zm5.67-183.69c-1.57-1.05-1.99-3.17-.95-4.74,1.05-1.57,3.17-1.99,4.74-.95,1.57,1.04,1.99,3.17.95,4.74-1.05,1.57-3.17,1.99-4.74.95Zm186.57-134.39c3,2,7.06,1.19,9.06-1.81.38-.57.63-1.19.81-1.82,44.73-.41,88.47,11.8,126.62,35.31-.96,2.75,0,5.9,2.52,7.58,3,2,7.06,1.19,9.06-1.81,2-3,1.19-7.06-1.81-9.06-2.57-1.71-5.91-1.35-8.08.67-38.62-23.81-82.89-36.19-128.17-35.81-.33-1.63-1.28-3.14-2.77-4.13-3-2-7.06-1.18-9.06,1.81-2,3-1.19,7.06,1.81,9.06Zm144.54,30.98c1.57,1.05,1.99,3.17.95,4.74-1.04,1.57-3.17,1.99-4.74.95s-1.99-3.17-.95-4.74c1.05-1.57,3.17-1.99,4.74-.95Zm-139.02-39.27c1.57,1.05,1.99,3.17.95,4.74s-3.17,1.99-4.74.95c-1.57-1.04-1.99-3.17-.95-4.74,1.05-1.57,3.17-1.99,4.74-.95Zm-154.67,220.01c2-3,1.19-7.06-1.81-9.06-3-2-7.06-1.19-9.06,1.81-2,3-1.19,7.06,1.81,9.06.28.19.58.33.88.47-6.97,58.69,17.3,117.44,63.59,153.93-1.07,2.79-.12,6.05,2.47,7.77,3,2,7.06,1.19,9.06-1.81s1.19-7.06-1.81-9.06c-2.51-1.67-5.76-1.35-7.92.55-45.29-35.78-69.06-93.3-62.31-150.78,1.99-.1,3.92-1.09,5.11-2.88Zm63.4,155.7c1.57,1.05,1.99,3.17.95,4.74s-3.17,1.99-4.74.95c-1.57-1.05-1.99-3.17-.95-4.74,1.05-1.57,3.17-1.99,4.74-.95Zm-71.68-161.22c1.05-1.57,3.17-1.99,4.74-.95,1.57,1.05,1.99,3.17.95,4.74-1.05,1.57-3.17,1.99-4.74.95s-1.99-3.17-.95-4.74Zm10.52-153.32c-15.88,13.92-29.94,29.95-41.76,47.68-12.18,18.27-21.77,38-28.54,58.66-2.21-.1-4.42.91-5.73,2.88-2,3-1.19,7.06,1.81,9.06s7.06,1.19,9.06-1.81c2-3,1.19-7.06-1.81-9.06-.11-.07-.23-.11-.34-.18,6.69-20.36,16.14-39.81,28.15-57.82,11.76-17.63,25.74-33.55,41.55-47.36,2.91,1.48,6.53.61,8.39-2.17,2-3,1.19-7.06-1.81-9.06-3-2-7.06-1.19-9.06,1.81-1.54,2.3-1.4,5.23.11,7.37Zm-67.76,114.74c-1.05,1.57-3.17,1.99-4.74.95-1.57-1.05-1.99-3.17-.95-4.74,1.05-1.57,3.17-1.99,4.74-.95s1.99,3.17.95,4.74Zm74.99-121.33c1.57,1.05,1.99,3.17.95,4.74s-3.17,1.99-4.74.95c-1.57-1.05-1.99-3.17-.95-4.74,1.05-1.57,3.17-1.99,4.74-.95Z"/></g></g><path class="cls-2" d="m559.74,510.9c10.9-3.93,49.71-67.5,69.87-110.28,9.47-20.15,14.81-35.66,11.17-38.21-7.47-5.24-52.58,32.99-68.37,58.16-17.42,27.82-28.57,96.1-12.68,90.33Z"/><path class="cls-3" d="m559.74,510.9c10.9-3.93,49.71-67.5,69.87-110.28l-13.95-22.24s-58.43,44.73-55.92,132.53Z"/><path class="cls-4" d="m576.71,414.34s-2.2,18.95-5.13,26.98c-2.92,8.03-13.7,16.23-13.7,16.23,0,0,8.71-31.04,18.83-43.21Z"/><path class="cls-26" d="m606.26,368.82s44.34-53.32,164.82-31.67c0,0-75.72,35.66-164.82,31.67Z"/><path class="cls-15" d="m763.67,336.14s-65.26,17.85-98.51,16.08c-33.25-1.77,13.96-17.34,13.96-17.34,0,0,43.51-7.02,84.55,1.26Z"/><path class="cls-19" d="m854.65,171.19s-196.38-45.46-305.62-21.12c0,0-4.11,166.59,124.86,184.97,138.28,19.71,180.77-163.85,180.77-163.85Z"/><path class="cls-18" d="m771.09,337.39s-66.63,29.55-164.82,31.67c0,0,54.49,114.85,112.53,104.18,65.62-12.06,52.29-135.85,52.29-135.85Z"/><path class="cls-11" d="m752.63,359.22s-3.89,21.09,12.89,61.05c0,0,11.07-29.62,2.99-65.09,0,0-8.83-9.31-15.88,4.04Z"/><path class="cls-5" d="m766.57,342.87s-90.08,62.41-49.48,122.89c17.32,25.8,66.6-41.91,49.48-122.89Z"/><path class="cls-10" d="m767.09,342.75s-25.06,7.68-10.19,39.22c0,0,19.92-12.04,10.19-39.22Z"/><path class="cls-8" d="m612.19,380.54s54.29,58.87,74.58,87c0,0-34.58-12.61-74.58-87Z"/><path class="cls-27" d="m722.09,472.72l.37-.48c-.24-.18-23.8-18.72-13.52-55.23,12.33-43.82,61.83-79.02,62.32-79.37l-.35-.5c-.5.35-50.17,35.67-62.56,79.7-10.39,36.92,13.5,55.69,13.74,55.87Z"/><path class="cls-27" d="m686.53,467.73l.48-.37c-34.12-43.23-74.19-86.58-74.59-87.01l-.45.41c.4.43,40.45,43.77,74.56,86.97Z"/><path class="cls-4" d="m653.84,367.2s-5.5-8.28-25.21,2.06c0,0,15.83.8,25.21-2.06Z"/><path class="cls-6" d="m834.5,510.76c16.03,6.99,9.01-64.14-7.14-93.97-14.62-27-58.62-69.36-66.68-64.46-12.25,7.45,57.69,151.39,73.82,158.42Z"/><path class="cls-4" d="m805.8,465.24l-16.6-32.87s16.89,16.42,16.6,32.87Z"/><path class="cls-4" d="m669.42,454.96s-17.09-13.46-24.28-25.49c0,0,12.86,8.95,24.28,25.49Z"/><path class="cls-12" d="m762.54,212.26c37.68,22.22-30.13,100.86-113.19,94.77-88.71-6.51-89.29-104.46-82.57-113.75,6.72-9.29,149.37-8.38,195.76,18.97Z"/><path class="cls-13" d="m549.03,150.06s20.4-31.38,69.01-7.12c0,0-42.16,1.16-69.01,7.12Z"/><path class="cls-1" d="m854.65,171.19s-13.91-34.71-92.35-17.35l92.35,17.35Z"/><path class="cls-16" d="m762.3,153.84s-68.69,32.18-115.25,24.74c-46.55-7.44-51.25-34.18-51.25-34.18,0,0,31.32-9.72,166.5,9.44Z"/><path class="cls-27" d="m661.73,180c42.99,0,100.08-25.61,100.7-25.89l-.25-.55c-.66.3-66.73,29.94-110.06,25.35-43.21-4.56-55.18-28.42-56.01-34.56l-.6.08c.85,6.24,12.94,30.48,56.55,35.08,3.12.33,6.36.48,9.68.48Z"/><path class="cls-4" d="m828.46,216.34s-4.48,26.51-26.12,47.73c0,0,.75-28.65,26.12-47.73Z"/><path class="cls-4" d="m796.74,269.69s1.87,12.53-7.83,16.12c0,0-.13-8.09,7.83-16.12Z"/><path class="cls-4" d="m558.34,160.08s3.14,20.51,0,39.03c0,0-10.07-21.73,0-39.03Z"/><path class="cls-14" d="m637.25,175.24s-25.96-5.78-37.47-23.13c0,0,16.01,16.14,37.47,23.13Z"/><path class="cls-4" d="m697.97,178.77s-47.99,12.46-71.63-3.53c0,0,20.85,9,71.63,3.53Z"/><path class="cls-7" d="m736.24,371.82s-41.54,42.53-23.64,86.2c0,0-15.32-38.6,23.64-86.2Z"/><path class="cls-27" d="m625.21,370.06c73.22,0,139.94-29.72,140.67-30.05l-.25-.55c-.78.35-79.27,35.32-159.34,29.31l-.05.61c6.34.48,12.68.69,18.97.69Z"/><path class="cls-14" d="m749.62,347.76s-70.72,31.31-131.94,22.47c0,0,47.62,6.15,131.94-22.47Z"/><path class="cls-4" d="m680.89,365.79s-12.4,8.01-27.59,3.82c0,0,17.99-1.98,27.59-3.82Z"/><path class="cls-24" d="m624.67,207.75l2.75.27c.23.05.34.18.34.38v2.75c0,.23-.11.33-.34.31l-2.75-.27c-.23-.02-.34-.15-.34-.38v-2.75c.03-.23.14-.33.34-.31Zm0,5.16l2.75.27c.23.05.34.18.34.38v2.75c0,.23-.11.33-.34.31l-2.75-.27c-.23-.02-.34-.15-.34-.38v-2.75c.03-.23.14-.33.34-.31Zm0,5.16l2.75.27c.23.05.34.18.34.38v2.75c0,.23-.11.33-.34.31l-2.75-.27c-.23-.02-.34-.15-.34-.38v-2.75c.03-.23.14-.33.34-.31Zm0,5.16l2.75.27c.23.05.34.18.34.38v2.75c0,.23-.11.33-.34.31l-2.75-.27c-.23-.02-.34-.15-.34-.38v-2.75c.03-.23.14-.33.34-.31Zm0,5.16l2.75.27c.23.05.34.18.34.38v2.75c0,.23-.11.33-.34.31l-2.75-.27c-.23-.02-.34-.15-.34-.38v-2.75c.03-.23.14-.33.34-.31Zm0,5.16l2.75.27c.23.05.34.18.34.38v2.75c0,.23-.11.33-.34.31l-2.75-.27c-.23-.02-.34-.15-.34-.38v-2.75c.03-.23.14-.33.34-.31Zm0,5.16l2.75.27c.23.05.34.18.34.38v2.75c0,.23-.11.33-.34.31l-2.75-.27c-.23-.02-.34-.15-.34-.38v-2.75c.03-.23.14-.33.34-.31Zm0,5.16l2.75.27c.23.05.34.18.34.38v2.75c0,.23-.11.33-.34.31l-2.75-.27c-.23-.02-.34-.15-.34-.38v-2.75c.03-.23.14-.33.34-.31Zm0,5.16l2.75.27c.23.05.34.18.34.38v2.75c0,.23-.11.33-.34.31l-2.75-.27c-.23-.02-.34-.15-.34-.38v-2.75c.03-.23.14-.33.34-.31Zm0,5.16l2.75.27c.23.05.34.18.34.38v2.75c0,.23-.11.33-.34.31l-2.75-.27c-.23-.02-.34-.15-.34-.38v-2.75c.03-.23.14-.33.34-.31Zm5.16-45.94l2.75.27c.23.05.34.18.34.38v2.75c0,.23-.11.33-.34.31l-2.75-.27c-.23-.02-.34-.15-.34-.38v-2.75c.03-.23.14-.33.34-.31Zm0,5.16l2.75.27c.23.05.34.18.34.38v2.75c0,.23-.11.33-.34.31l-2.75-.27c-.23-.02-.34-.15-.34-.38v-2.75c.03-.23.14-.33.34-.31Zm0,5.16l2.75.27c.23.05.34.18.34.38v2.75c0,.23-.11.33-.34.31l-2.75-.27c-.23-.02-.34-.15-.34-.38v-2.75c.03-.23.14-.33.34-.31Zm0,5.16l2.75.27c.23.05.34.18.34.38v2.75c0,.23-.11.33-.34.31l-2.75-.27c-.23-.02-.34-.15-.34-.38v-2.75c.03-.23.14-.33.34-.31Zm0,5.16l2.75.27c.23.05.34.18.34.38v2.75c0,.23-.11.33-.34.31l-2.75-.27c-.23-.02-.34-.15-.34-.38v-2.75c.03-.23.14-.33.34-.31Zm0,5.16l2.75.27c.23.05.34.18.34.38v2.75c0,.23-.11.33-.34.31l-2.75-.27c-.23-.02-.34-.15-.34-.38v-2.75c.03-.23.14-.33.34-.31Zm0,5.16l2.75.27c.23.05.34.18.34.38v2.75c0,.23-.11.33-.34.31l-2.75-.27c-.23-.02-.34-.15-.34-.38v-2.75c.03-.23.14-.33.34-.31Zm0,5.16l2.75.27c.23.05.34.18.34.38v2.75c0,.23-.11.33-.34.31l-2.75-.27c-.23-.02-.34-.15-.34-.38v-2.75c.03-.23.14-.33.34-.31Zm0,5.16l2.75.27c.23.05.34.18.34.38v2.75c0,.23-.11.33-.34.31l-2.75-.27c-.23-.02-.34-.15-.34-.38v-2.75c.03-.23.14-.33.34-.31Zm0,5.16l2.75.27c.23.05.34.18.34.38v2.75c0,.23-.11.33-.34.31l-2.75-.27c-.23-.02-.34-.15-.34-.38v-2.75c.03-.23.14-.33.34-.31Zm5.16-45.94l2.75.27c.23.05.34.18.34.38v2.75c0,.23-.11.33-.34.31l-2.75-.27c-.23-.02-.34-.15-.34-.38v-2.75c.03-.23.14-.33.34-.31Zm0,5.16l2.75.27c.23.05.34.18.34.38v2.75c0,.23-.11.33-.34.31l-2.75-.27c-.23-.02-.34-.15-.34-.38v-2.75c.03-.23.14-.33.34-.31Zm0,5.16l2.75.27c.23.05.34.18.34.38v2.75c0,.23-.11.33-.34.31l-2.75-.27c-.23-.02-.34-.15-.34-.38v-2.75c.03-.23.14-.33.34-.31Zm0,5.16l2.75.27c.23.05.34.18.34.38v2.75c0,.23-.11.33-.34.31l-2.75-.27c-.23-.02-.34-.15-.34-.38v-2.75c.03-.23.14-.33.34-.31Zm0,5.16l2.75.27c.23.05.34.18.34.38v2.75c0,.23-.11.33-.34.31l-2.75-.27c-.23-.02-.34-.15-.34-.38v-2.75c.03-.23.14-.33.34-.31Zm0,5.16l2.75.27c.23.05.34.18.34.38v2.75c0,.23-.11.33-.34.31l-2.75-.27c-.23-.02-.34-.15-.34-.38v-2.75c.03-.23.14-.33.34-.31Zm0,5.16l2.75.27c.23.05.34.18.34.38v2.75c0,.23-.11.33-.34.31l-2.75-.27c-.23-.02-.34-.15-.34-.38v-2.75c.03-.23.14-.33.34-.31Zm0,5.16l2.75.27c.23.05.34.18.34.38v2.75c0,.23-.11.33-.34.31l-2.75-.27c-.23-.02-.34-.15-.34-.38v-2.75c.03-.23.14-.33.34-.31Zm0,5.16l2.75.27c.23.05.34.18.34.38v2.75c0,.23-.11.33-.34.31l-2.75-.27c-.23-.02-.34-.15-.34-.38v-2.75c.03-.23.14-.33.34-.31Zm0,5.16l2.75.27c.23.05.34.18.34.38v2.75c0,.23-.11.33-.34.31l-2.75-.27c-.23-.02-.34-.15-.34-.38v-2.75c.03-.23.14-.33.34-.31Zm5.16-45.94l2.75.27c.23.05.34.18.34.38v2.75c0,.23-.11.33-.34.31l-2.75-.27c-.23-.02-.34-.15-.34-.38v-2.75c.03-.23.14-.33.34-.31Zm0,5.16l2.75.27c.23.05.34.18.34.38v2.75c0,.23-.11.33-.34.31l-2.75-.27c-.23-.02-.34-.15-.34-.38v-2.75c.03-.23.14-.33.34-.31Zm0,5.16l2.75.27c.23.05.34.18.34.38v2.75c0,.23-.11.33-.34.31l-2.75-.27c-.23-.02-.34-.15-.34-.38v-2.75c.03-.23.14-.33.34-.31Zm0,5.16l2.75.27c.23.05.34.18.34.38v2.75c0,.23-.11.33-.34.31l-2.75-.27c-.23-.02-.34-.15-.34-.38v-2.75c.03-.23.14-.33.34-.31Zm0,5.16l2.75.27c.23.05.34.18.34.38v2.75c0,.23-.11.33-.34.31l-2.75-.27c-.23-.02-.34-.15-.34-.38v-2.75c.03-.23.14-.33.34-.31Zm0,5.16l2.75.27c.23.05.34.18.34.38v2.75c0,.23-.11.33-.34.31l-2.75-.27c-.23-.02-.34-.15-.34-.38v-2.75c.03-.23.14-.33.34-.31Zm0,5.16l2.75.27c.23.05.34.18.34.38v2.75c0,.23-.11.33-.34.31l-2.75-.27c-.23-.02-.34-.15-.34-.38v-2.75c.03-.23.14-.33.34-.31Zm0,5.16l2.75.27c.23.05.34.18.34.38v2.75c0,.23-.11.33-.34.31l-2.75-.27c-.23-.02-.34-.15-.34-.38v-2.75c.03-.23.14-.33.34-.31Zm0,5.16l2.75.27c.23.05.34.18.34.38v2.75c0,.23-.11.33-.34.31l-2.75-.27c-.23-.02-.34-.15-.34-.38v-2.75c.03-.23.14-.33.34-.31Zm0,5.16l2.75.27c.23.05.34.18.34.38v2.75c0,.23-.11.33-.34.31l-2.75-.27c-.23-.02-.34-.15-.34-.38v-2.75c.03-.23.14-.33.34-.31Zm5.16-14.97l2.75.27c.23.05.34.18.34.38v2.75c0,.23-.12.33-.34.31l-2.75-.27c-.23-.02-.34-.15-.34-.38v-2.75c.03-.23.14-.33.34-.31Zm0,5.16l2.75.27c.23.05.34.18.34.38v2.75c0,.23-.12.33-.34.31l-2.75-.27c-.23-.02-.34-.15-.34-.38v-2.75c.03-.23.14-.33.34-.31Zm0,5.16l2.75.27c.23.05.34.18.34.38v2.75c0,.23-.12.33-.34.31l-2.75-.27c-.23-.02-.34-.15-.34-.38v-2.75c.03-.23.14-.33.34-.31Zm0,5.16l2.75.27c.23.05.34.18.34.38v2.75c0,.23-.12.33-.34.31l-2.75-.27c-.23-.02-.34-.15-.34-.38v-2.75c.03-.23.14-.33.34-.31Zm5.16-14.97l2.75.27c.23.05.34.18.34.38v2.75c0,.23-.12.33-.34.31l-2.75-.27c-.23-.02-.34-.15-.34-.38v-2.75c.03-.23.14-.33.34-.31Zm0,5.16l2.75.27c.23.05.34.18.34.38v2.75c0,.23-.12.33-.34.31l-2.75-.27c-.23-.02-.34-.15-.34-.38v-2.75c.03-.23.14-.33.34-.31Zm0,5.16l2.75.27c.23.05.34.18.34.38v2.75c0,.23-.12.33-.34.31l-2.75-.27c-.23-.02-.34-.15-.34-.38v-2.75c.03-.23.14-.33.34-.31Zm0,5.16l2.75.27c.23.05.34.18.34.38v2.75c0,.23-.12.33-.34.31l-2.75-.27c-.23-.02-.34-.15-.34-.38v-2.75c.03-.23.14-.33.34-.31Zm5.16-14.97l2.75.27c.23.05.34.18.34.38v2.75c0,.23-.12.33-.34.31l-2.75-.27c-.23-.02-.34-.15-.34-.38v-2.75c.03-.23.14-.33.34-.31Zm0,5.16l2.75.27c.23.05.34.18.34.38v2.75c0,.23-.12.33-.34.31l-2.75-.27c-.23-.02-.34-.15-.34-.38v-2.75c.03-.23.14-.33.34-.31Zm0,5.16l2.75.27c.23.05.34.18.34.38v2.75c0,.23-.12.33-.34.31l-2.75-.27c-.23-.02-.34-.15-.34-.38v-2.75c.03-.23.14-.33.34-.31Zm0,5.16l2.75.27c.23.05.34.18.34.38v2.75c0,.23-.12.33-.34.31l-2.75-.27c-.23-.02-.34-.15-.34-.38v-2.75c.03-.23.14-.33.34-.31Zm5.16-14.97l2.75.27c.23.05.34.18.34.38v2.75c0,.23-.12.33-.34.31l-2.75-.27c-.23-.02-.34-.15-.34-.38v-2.75c.03-.23.14-.33.34-.31Zm0,5.16l2.75.27c.23.05.34.18.34.38v2.75c0,.23-.12.33-.34.31l-2.75-.27c-.23-.02-.34-.15-.34-.38v-2.75c.03-.23.14-.33.34-.31Zm0,5.16l2.75.27c.23.05.34.18.34.38v2.75c0,.23-.12.33-.34.31l-2.75-.27c-.23-.02-.34-.15-.34-.38v-2.75c.03-.23.14-.33.34-.31Zm0,5.16l2.75.27c.23.05.34.18.34.38v2.75c0,.23-.12.33-.34.31l-2.75-.27c-.23-.02-.34-.15-.34-.38v-2.75c.03-.23.14-.33.34-.31Zm5.16-45.94l2.75.27c.23.05.34.18.34.38v2.75c0,.23-.11.33-.34.31l-2.75-.27c-.23-.02-.34-.15-.34-.38v-2.75c.03-.23.14-.33.34-.31Zm0,5.16l2.75.27c.23.05.34.18.34.38v2.75c0,.23-.11.33-.34.31l-2.75-.27c-.23-.02-.34-.15-.34-.38v-2.75c.03-.23.14-.33.34-.31Zm0,5.16l2.75.27c.23.05.34.18.34.38v2.75c0,.23-.11.33-.34.31l-2.75-.27c-.23-.02-.34-.15-.34-.38v-2.75c.03-.23.14-.33.34-.31Zm0,5.16l2.75.27c.23.05.34.18.34.38v2.75c0,.23-.11.33-.34.31l-2.75-.27c-.23-.02-.34-.15-.34-.38v-2.75c.03-.23.14-.33.34-.31Zm0,5.16l2.75.27c.23.05.34.18.34.38v2.75c0,.23-.11.33-.34.31l-2.75-.27c-.23-.02-.34-.15-.34-.38v-2.75c.03-.23.14-.33.34-.31Zm0,5.16l2.75.27c.23.05.34.18.34.38v2.75c0,.23-.11.33-.34.31l-2.75-.27c-.23-.02-.34-.15-.34-.38v-2.75c.03-.23.14-.33.34-.31Zm0,5.16l2.75.27c.23.05.34.18.34.38v2.75c0,.23-.11.33-.34.31l-2.75-.27c-.23-.02-.34-.15-.34-.38v-2.75c.03-.23.14-.33.34-.31Zm0,5.16l2.75.27c.23.05.34.18.34.38v2.75c0,.23-.11.33-.34.31l-2.75-.27c-.23-.02-.34-.15-.34-.38v-2.75c.03-.23.14-.33.34-.31Zm0,5.16l2.75.27c.23.05.34.18.34.38v2.75c0,.23-.11.33-.34.31l-2.75-.27c-.23-.02-.34-.15-.34-.38v-2.75c.03-.23.14-.33.34-.31Zm0,5.16l2.75.27c.23.05.34.18.34.38v2.75c0,.23-.11.33-.34.31l-2.75-.27c-.23-.02-.34-.15-.34-.38v-2.75c.03-.23.14-.33.34-.31Zm0,5.16l2.75.27c.23.05.34.18.34.38v2.75c0,.23-.11.33-.34.31l-2.75-.27c-.23-.02-.34-.15-.34-.38v-2.75c.03-.23.14-.33.34-.31Zm0,5.16l2.75.27c.23.05.34.18.34.38v2.75c0,.23-.11.33-.34.31l-2.75-.27c-.23-.02-.34-.15-.34-.38v-2.75c.03-.23.14-.33.34-.31Zm0,5.16l2.75.27c.23.05.34.18.34.38v2.75c0,.23-.11.33-.34.31l-2.75-.27c-.23-.02-.34-.15-.34-.38v-2.75c.03-.23.14-.33.34-.31Zm0,5.16l2.75.27c.23.05.34.18.34.38v2.75c0,.23-.11.33-.34.31l-2.75-.27c-.23-.02-.34-.15-.34-.38v-2.75c.03-.23.14-.33.34-.31Zm0,5.16l2.75.27c.23.05.34.18.34.38v2.75c0,.23-.11.33-.34.31l-2.75-.27c-.23-.02-.34-.15-.34-.38v-2.75c.03-.23.14-.33.34-.31Zm0,5.16l2.75.27c.23.05.34.18.34.38v2.75c0,.23-.11.33-.34.31l-2.75-.27c-.23-.02-.34-.15-.34-.38v-2.75c.03-.23.14-.33.34-.31Zm5.16-76.9l2.75.27c.23.05.34.18.34.38v2.75c0,.23-.11.33-.34.31l-2.75-.27c-.23-.02-.34-.15-.34-.38v-2.75c.03-.23.14-.33.34-.31Zm0,5.16l2.75.27c.23.05.34.18.34.38v2.75c0,.23-.11.33-.34.31l-2.75-.27c-.23-.02-.34-.15-.34-.38v-2.75c.03-.23.14-.33.34-.31Zm0,5.16l2.75.27c.23.05.34.18.34.38v2.75c0,.23-.11.33-.34.31l-2.75-.27c-.23-.02-.34-.15-.34-.38v-2.75c.03-.23.14-.33.34-.31Zm0,5.16l2.75.27c.23.05.34.18.34.38v2.75c0,.23-.11.33-.34.31l-2.75-.27c-.23-.02-.34-.15-.34-.38v-2.75c.03-.23.14-.33.34-.31Zm0,5.16l2.75.27c.23.05.34.18.34.38v2.75c0,.23-.11.33-.34.31l-2.75-.27c-.23-.02-.34-.15-.34-.38v-2.75c.03-.23.14-.33.34-.31Zm0,5.16l2.75.27c.23.05.34.18.34.38v2.75c0,.23-.11.33-.34.31l-2.75-.27c-.23-.02-.34-.15-.34-.38v-2.75c.03-.23.14-.33.34-.31Zm0,5.16l2.75.27c.23.05.34.18.34.38v2.75c0,.23-.11.33-.34.31l-2.75-.27c-.23-.02-.34-.15-.34-.38v-2.75c.03-.23.14-.33.34-.31Zm0,5.16l2.75.27c.23.05.34.18.34.38v2.75c0,.23-.11.33-.34.31l-2.75-.27c-.23-.02-.34-.15-.34-.38v-2.75c.03-.23.14-.33.34-.31Zm0,5.16l2.75.27c.23.05.34.18.34.38v2.75c0,.23-.11.33-.34.31l-2.75-.27c-.23-.02-.34-.15-.34-.38v-2.75c.03-.23.14-.33.34-.31Zm0,5.16l2.75.27c.23.05.34.18.34.38v2.75c0,.23-.11.33-.34.31l-2.75-.27c-.23-.02-.34-.15-.34-.38v-2.75c.03-.23.14-.33.34-.31Zm0,5.16l2.75.27c.23.05.34.18.34.38v2.75c0,.23-.11.33-.34.31l-2.75-.27c-.23-.02-.34-.15-.34-.38v-2.75c.03-.23.14-.33.34-.31Zm0,5.16l2.75.27c.23.05.34.18.34.38v2.75c0,.23-.11.33-.34.31l-2.75-.27c-.23-.02-.34-.15-.34-.38v-2.75c.03-.23.14-.33.34-.31Zm0,5.16l2.75.27c.23.05.34.18.34.38v2.75c0,.23-.11.33-.34.31l-2.75-.27c-.23-.02-.34-.15-.34-.38v-2.75c.03-.23.14-.33.34-.31Zm0,5.16l2.75.27c.23.05.34.18.34.38v2.75c0,.23-.11.33-.34.31l-2.75-.27c-.23-.02-.34-.15-.34-.38v-2.75c.03-.23.14-.33.34-.31Zm0,5.16l2.75.27c.23.05.34.18.34.38v2.75c0,.23-.11.33-.34.31l-2.75-.27c-.23-.02-.34-.15-.34-.38v-2.75c.03-.23.14-.33.34-.31Zm0,5.16l2.75.27c.23.05.34.18.34.38v2.75c0,.23-.11.33-.34.31l-2.75-.27c-.23-.02-.34-.15-.34-.38v-2.75c.03-.23.14-.33.34-.31Zm5.16-76.9l2.75.27c.23.05.34.18.34.38v2.75c0,.23-.11.33-.34.31l-2.75-.27c-.23-.02-.34-.15-.34-.38v-2.75c.03-.23.14-.33.34-.31Zm0,5.16l2.75.27c.23.05.34.18.34.38v2.75c0,.23-.11.33-.34.31l-2.75-.27c-.23-.02-.34-.15-.34-.38v-2.75c.03-.23.14-.33.34-.31Zm0,5.16l2.75.27c.23.05.34.18.34.38v2.75c0,.23-.11.33-.34.31l-2.75-.27c-.23-.02-.34-.15-.34-.38v-2.75c.03-.23.14-.33.34-.31Zm0,5.16l2.75.27c.23.05.34.18.34.38v2.75c0,.23-.11.33-.34.31l-2.75-.27c-.23-.02-.34-.15-.34-.38v-2.75c.03-.23.14-.33.34-.31Zm0,5.16l2.75.27c.23.05.34.18.34.38v2.75c0,.23-.11.33-.34.31l-2.75-.27c-.23-.02-.34-.15-.34-.38v-2.75c.03-.23.14-.33.34-.31Zm0,5.16l2.75.27c.23.05.34.18.34.38v2.75c0,.23-.11.33-.34.31l-2.75-.27c-.23-.02-.34-.15-.34-.38v-2.75c.03-.23.14-.33.34-.31Zm0,5.16l2.75.27c.23.05.34.18.34.38v2.75c0,.23-.11.33-.34.31l-2.75-.27c-.23-.02-.34-.15-.34-.38v-2.75c.03-.23.14-.33.34-.31Zm0,5.16l2.75.27c.23.05.34.18.34.38v2.75c0,.23-.11.33-.34.31l-2.75-.27c-.23-.02-.34-.15-.34-.38v-2.75c.03-.23.14-.33.34-.31Zm0,5.16l2.75.27c.23.05.34.18.34.38v2.75c0,.23-.11.33-.34.31l-2.75-.27c-.23-.02-.34-.15-.34-.38v-2.75c.03-.23.14-.33.34-.31Zm0,5.16l2.75.27c.23.05.34.18.34.38v2.75c0,.23-.11.33-.34.31l-2.75-.27c-.23-.02-.34-.15-.34-.38v-2.75c.03-.23.14-.33.34-.31Zm0,5.16l2.75.27c.23.05.34.18.34.38v2.75c0,.23-.11.33-.34.31l-2.75-.27c-.23-.02-.34-.15-.34-.38v-2.75c.03-.23.14-.33.34-.31Zm0,5.16l2.75.27c.23.05.34.18.34.38v2.75c0,.23-.11.33-.34.31l-2.75-.27c-.23-.02-.34-.15-.34-.38v-2.75c.03-.23.14-.33.34-.31Zm0,5.16l2.75.27c.23.05.34.18.34.38v2.75c0,.23-.11.33-.34.31l-2.75-.27c-.23-.02-.34-.15-.34-.38v-2.75c.03-.23.14-.33.34-.31Zm0,5.16l2.75.27c.23.05.34.18.34.38v2.75c0,.23-.11.33-.34.31l-2.75-.27c-.23-.02-.34-.15-.34-.38v-2.75c.03-.23.14-.33.34-.31Zm0,5.16l2.75.27c.23.05.34.18.34.38v2.75c0,.23-.11.33-.34.31l-2.75-.27c-.23-.02-.34-.15-.34-.38v-2.75c.03-.23.14-.33.34-.31Zm0,5.16l2.75.27c.23.05.34.18.34.38v2.75c0,.23-.11.33-.34.31l-2.75-.27c-.23-.02-.34-.15-.34-.38v-2.75c.03-.23.14-.33.34-.31Zm5.16-76.9l2.75.27c.23.05.34.18.34.38v2.75c0,.23-.12.33-.34.31l-2.75-.27c-.23-.02-.34-.15-.34-.38v-2.75c.03-.23.14-.33.34-.31Zm0,5.16l2.75.27c.23.05.34.18.34.38v2.75c0,.23-.12.33-.34.31l-2.75-.27c-.23-.02-.34-.15-.34-.38v-2.75c.03-.23.14-.33.34-.31Zm0,5.16l2.75.27c.23.05.34.18.34.38v2.75c0,.23-.12.33-.34.31l-2.75-.27c-.23-.02-.34-.15-.34-.38v-2.75c.03-.23.14-.33.34-.31Zm0,5.16l2.75.27c.23.05.34.18.34.38v2.75c0,.23-.12.33-.34.31l-2.75-.27c-.23-.02-.34-.15-.34-.38v-2.75c.03-.23.14-.33.34-.31Zm0,5.16l2.75.27c.23.05.34.18.34.38v2.75c0,.23-.12.33-.34.31l-2.75-.27c-.23-.02-.34-.15-.34-.38v-2.75c.03-.23.14-.33.34-.31Zm0,5.16l2.75.27c.23.05.34.18.34.38v2.75c0,.23-.12.33-.34.31l-2.75-.27c-.23-.02-.34-.15-.34-.38v-2.75c.03-.23.14-.33.34-.31Zm0,5.16l2.75.27c.23.05.34.18.34.38v2.75c0,.23-.12.33-.34.31l-2.75-.27c-.23-.02-.34-.15-.34-.38v-2.75c.03-.23.14-.33.34-.31Zm0,5.16l2.75.27c.23.05.34.18.34.38v2.75c0,.23-.12.33-.34.31l-2.75-.27c-.23-.02-.34-.15-.34-.38v-2.75c.03-.23.14-.33.34-.31Zm0,5.16l2.75.27c.23.05.34.18.34.38v2.75c0,.23-.12.33-.34.31l-2.75-.27c-.23-.02-.34-.15-.34-.38v-2.75c.03-.23.14-.33.34-.31Zm0,5.16l2.75.27c.23.05.34.18.34.38v2.75c0,.23-.12.33-.34.31l-2.75-.27c-.23-.02-.34-.15-.34-.38v-2.75c.03-.23.14-.33.34-.31Zm4.97-14.61l2.75.27c.23.05.34.18.34.38v2.75c0,.23-.12.33-.34.31l-2.75-.27c-.23-.02-.34-.15-.34-.38v-2.75c.03-.23.14-.33.34-.31Zm0,5.16l2.75.27c.23.05.34.18.34.38v2.75c0,.23-.12.33-.34.31l-2.75-.27c-.23-.02-.34-.15-.34-.38v-2.75c.03-.23.14-.33.34-.31Zm0,5.16l2.75.27c.23.05.34.18.34.38v2.75c0,.23-.12.33-.34.31l-2.75-.27c-.23-.02-.34-.15-.34-.38v-2.75c.03-.23.14-.33.34-.31Zm0,5.16l2.75.27c.23.05.34.18.34.38v2.75c0,.23-.12.33-.34.31l-2.75-.27c-.23-.02-.34-.15-.34-.38v-2.75c.03-.23.14-.33.34-.31Zm-4.97,4.29l2.75.27c.23.05.34.18.34.38v2.75c0,.23-.12.33-.34.31l-2.75-.27c-.23-.02-.34-.15-.34-.38v-2.75c.03-.23.14-.33.34-.31Zm0,5.16l2.75.27c.23.05.34.18.34.38v2.75c0,.23-.12.33-.34.31l-2.75-.27c-.23-.02-.34-.15-.34-.38v-2.75c.03-.23.14-.33.34-.31Zm0,5.16l2.75.27c.23.05.34.18.34.38v2.75c0,.23-.12.33-.34.31l-2.75-.27c-.23-.02-.34-.15-.34-.38v-2.75c.03-.23.14-.33.34-.31Zm0,5.16l2.75.27c.23.05.34.18.34.38v2.75c0,.23-.12.33-.34.31l-2.75-.27c-.23-.02-.34-.15-.34-.38v-2.75c.03-.23.14-.33.34-.31Zm0,5.16l2.75.27c.23.05.34.18.34.38v2.75c0,.23-.12.33-.34.31l-2.75-.27c-.23-.02-.34-.15-.34-.38v-2.75c.03-.23.14-.33.34-.31Zm0,5.16l2.75.27c.23.05.34.18.34.38v2.75c0,.23-.12.33-.34.31l-2.75-.27c-.23-.02-.34-.15-.34-.38v-2.75c.03-.23.14-.33.34-.31Z"/><path class="cls-4" d="m713.27,147.79s-79.46,2.3-92.09-4.59c0,0,39.31.67,92.09,4.59Z"/><path class="cls-4" d="m660.83,194.3s-25.86,10.76-37.12-2.14c0,0,16.48-.32,37.12,2.14Z"/><path class="cls-9" d="m752.24,212.84s-81.02-29.31-183.43-18.29c0,0-18.77,54.09,37.46,99.16,0,0,17.46,2.51,47.04-41.9,29.58-44.4,98.94-38.98,98.94-38.98Z"/><path class="cls-24" d="m61.39,173.17l-11.39,11.39v23.92h52.85v112.76l11.39,11.39h29.7v-93.17l-10.03-10.02v-20.97h54.73v-29.21l6.11-6.11H61.39Z"/><path class="cls-24" d="m496.46,173.89h-38.1l-60.62,134.28-.03,25.19h27.06l29.63-67.76h10.03l16.38-46.14,21.19,56.95h-40.51l-13.39,30.52h67.57l12.07,26.43h40.71l-71.99-159.47Z"/><path class="cls-24" d="m199.12,184.56l11.39-11.39,26.82.72v159.47l-26.82-.72-11.39-11.39v-136.69Z"/><path class="cls-24" d="m346.97,173.89h41.09v159.47h-36.54l-66.98-86.57v86.57h-26.1l-11.39-11.39v-148.08h32.93l77.02,100.89v-38.47l-10.05-13.35v-49.07Z"/></g></g></g></svg>