<svg xmlns="http://www.w3.org/2000/svg" viewBox="0 0 400 400">
  <rect width="400" height="400" rx="12" fill="#78350f"/>
  <rect x="20" y="20" width="360" height="360" rx="8" fill="#92400e" opacity="0.3"/>
  <!-- Open book icon for Books -->
  <path d="M200,130 L200,280" stroke="#fbbf24" stroke-width="3"/>
  <!-- Left page -->
  <path d="M200,130 Q170,120 130,125 L130,270 Q170,265 200,280 Z" fill="#fbbf24" opacity="0.15" stroke="#fbbf24" stroke-width="3"/>
  <!-- Right page -->
  <path d="M200,130 Q230,120 270,125 L270,270 Q230,265 200,280 Z" fill="#fbbf24" opacity="0.15" stroke="#fbbf24" stroke-width="3"/>
  <!-- Text lines left -->
  <line x1="145" y1="155" x2="185" y2="155" stroke="#fbbf24" stroke-width="2" opacity="0.5"/>
  <line x1="145" y1="170" x2="180" y2="170" stroke="#fbbf24" stroke-width="2" opacity="0.5"/>
  <line x1="145" y1="185" x2="185" y2="185" stroke="#fbbf24" stroke-width="2" opacity="0.5"/>
  <line x1="145" y1="200" x2="175" y2="200" stroke="#fbbf24" stroke-width="2" opacity="0.5"/>
  <!-- Text lines right -->
  <line x1="215" y1="155" x2="255" y2="155" stroke="#fbbf24" stroke-width="2" opacity="0.5"/>
  <line x1="215" y1="170" x2="250" y2="170" stroke="#fbbf24" stroke-width="2" opacity="0.5"/>
  <line x1="215" y1="185" x2="255" y2="185" stroke="#fbbf24" stroke-width="2" opacity="0.5"/>
  <line x1="215" y1="200" x2="245" y2="200" stroke="#fbbf24" stroke-width="2" opacity="0.5"/>
  <text x="200" y="330" text-anchor="middle" fill="#fbbf24" font-family="system-ui,sans-serif" font-size="22" font-weight="600">Books</text>
</svg>
