<?xml version="1.0" encoding="UTF-8"?>
<svg xmlns="http://www.w3.org/2000/svg" xmlns:xlink="http://www.w3.org/1999/xlink" viewBox="0 0 50 50" width="50px" height="50px">
<g id="surface54729055">
<path style=" stroke:none;fill-rule:nonzero;fill:rgb(99.215686%,49.019608%,61.56863%);fill-opacity:1;" d="M 39 6.5 C 38.722656 6.5 38.5 6.722656 38.5 7 C 38.5 7.277344 38.722656 7.5 39 7.5 C 39.277344 7.5 39.5 7.277344 39.5 7 C 39.5 6.722656 39.277344 6.5 39 6.5 Z M 39 6.5 "/>
<path style=" stroke:none;fill-rule:nonzero;fill:rgb(48.627451%,71.764708%,77.254903%);fill-opacity:1;" d="M 25 6 C 14.507812 6 6 14.507812 6 25 C 6 35.492188 14.507812 44 25 44 C 35.492188 44 44 35.492188 44 25 C 44 14.507812 35.492188 6 25 6 Z M 25 6 "/>
<path style=" stroke:none;fill-rule:nonzero;fill:rgb(99.215686%,49.019608%,61.56863%);fill-opacity:1;" d="M 42 6 C 40.894531 6 40 6.894531 40 8 C 40 9.105469 40.894531 10 42 10 C 43.105469 10 44 9.105469 44 8 C 44 6.894531 43.105469 6 42 6 Z M 42 6 "/>
<path style=" stroke:none;fill-rule:nonzero;fill:rgb(93.333334%,24.313726%,32.941177%);fill-opacity:1;" d="M 7 12 C 6.449219 12 6 12.449219 6 13 C 6 13.550781 6.449219 14 7 14 C 7.550781 14 8 13.550781 8 13 C 8 12.449219 7.550781 12 7 12 Z M 7 12 "/>
<path style=" stroke:none;fill-rule:nonzero;fill:rgb(99.215686%,49.019608%,61.56863%);fill-opacity:1;" d="M 39 37.5 C 38.449219 37.5 38 37.949219 38 38.5 C 38 39.050781 38.449219 39.5 39 39.5 C 39.550781 39.5 40 39.050781 40 38.5 C 40 37.949219 39.550781 37.5 39 37.5 Z M 8.5 37 C 7.394531 37 6.5 37.894531 6.5 39 C 6.5 40.105469 7.394531 41 8.5 41 C 9.605469 41 10.5 40.105469 10.5 39 C 10.5 37.894531 9.605469 37 8.5 37 Z M 8.5 37 "/>
<path style=" stroke:none;fill-rule:nonzero;fill:rgb(93.333334%,24.313726%,32.941177%);fill-opacity:1;" d="M 12 40.5 C 11.449219 40.5 11 40.949219 11 41.5 C 11 42.050781 11.449219 42.5 12 42.5 C 12.550781 42.5 13 42.050781 13 41.5 C 13 40.949219 12.550781 40.5 12 40.5 Z M 12 40.5 "/>
<path style=" stroke:none;fill-rule:nonzero;fill:rgb(100%,100%,100%);fill-opacity:1;" d="M 33.25 38 C 32.558594 38 32 38.558594 32 39.25 C 32 39.941406 32.558594 40.5 33.25 40.5 C 33.941406 40.5 34.5 39.941406 34.5 39.25 C 34.5 38.558594 33.941406 38 33.25 38 Z M 8 23.5 C 7.722656 23.5 7.5 23.722656 7.5 24 C 7.5 24.277344 7.722656 24.5 8 24.5 C 8.277344 24.5 8.5 24.277344 8.5 24 C 8.5 23.722656 8.277344 23.5 8 23.5 Z M 8 23.5 "/>
<path style=" stroke:none;fill-rule:nonzero;fill:rgb(99.215686%,49.019608%,61.56863%);fill-opacity:1;" d="M 43 15 C 42.722656 15 42.5 15.222656 42.5 15.5 C 42.5 15.777344 42.722656 16 43 16 C 43.277344 16 43.5 15.777344 43.5 15.5 C 43.5 15.222656 43.277344 15 43 15 Z M 43 15 "/>
<path style=" stroke:none;fill-rule:nonzero;fill:rgb(100%,100%,100%);fill-opacity:1;" d="M 40 32 C 39.449219 32 39 32.449219 39 33 C 39 33.550781 39.449219 34 40 34 C 40.550781 34 41 33.550781 41 33 C 41 32.449219 40.550781 32 40 32 Z M 40 32 "/>
<path style=" stroke:none;fill-rule:nonzero;fill:rgb(0%,0%,0%);fill-opacity:1;" d="M 13.351562 14.851562 L 36.648438 14.851562 L 36.648438 18.648438 L 13.351562 18.648438 Z M 13.351562 14.851562 "/>
<path style=" stroke:none;fill-rule:nonzero;fill:rgb(99.215686%,49.019608%,61.56863%);fill-opacity:1;" d="M 36.300781 15.199219 L 36.300781 18.300781 L 13.699219 18.300781 L 13.699219 15.199219 L 36.300781 15.199219 M 37 14.5 L 13 14.5 L 13 19 L 37 19 Z M 37 14.5 "/>
<path style=" stroke:none;fill-rule:nonzero;fill:rgb(0%,0%,0%);fill-opacity:1;" d="M 13.351562 22.851562 L 36.648438 22.851562 L 36.648438 26.648438 L 13.351562 26.648438 Z M 13.351562 22.851562 "/>
<path style=" stroke:none;fill-rule:nonzero;fill:rgb(99.215686%,49.019608%,61.56863%);fill-opacity:1;" d="M 36.300781 23.199219 L 36.300781 26.300781 L 13.699219 26.300781 L 13.699219 23.199219 L 36.300781 23.199219 M 37 22.5 L 13 22.5 L 13 27 L 37 27 Z M 37 22.5 "/>
<path style=" stroke:none;fill-rule:nonzero;fill:rgb(0%,0%,0%);fill-opacity:1;" d="M 13.351562 30.851562 L 36.648438 30.851562 L 36.648438 34.648438 L 13.351562 34.648438 Z M 13.351562 30.851562 "/>
<path style=" stroke:none;fill-rule:nonzero;fill:rgb(99.215686%,49.019608%,61.56863%);fill-opacity:1;" d="M 36.300781 31.199219 L 36.300781 34.300781 L 13.699219 34.300781 L 13.699219 31.199219 L 36.300781 31.199219 M 37 30.5 L 13 30.5 L 13 35 L 37 35 Z M 29.75 25.5 L 14.75 25.5 C 14.601562 25.5 14.5 25.398438 14.5 25.25 C 14.5 25.101562 14.601562 25 14.75 25 L 29.75 25 C 29.898438 25 30 25.101562 30 25.25 C 30 25.398438 29.898438 25.5 29.75 25.5 Z M 35.300781 25.5 L 34.851562 25.5 C 34.699219 25.5 34.601562 25.398438 34.601562 25.25 C 34.601562 25.101562 34.699219 25 34.851562 25 L 35.300781 25 C 35.449219 25 35.550781 25.101562 35.550781 25.25 C 35.550781 25.398438 35.449219 25.5 35.300781 25.5 Z M 35.300781 25.5 "/>
<path style=" stroke:none;fill-rule:nonzero;fill:rgb(99.215686%,49.019608%,61.56863%);fill-opacity:1;" d="M 36.25 33.5 L 16.75 33.5 C 16.601562 33.5 16.5 33.398438 16.5 33.25 C 16.5 33.101562 16.601562 33 16.75 33 L 36.25 33 C 36.398438 33 36.5 33.101562 36.5 33.25 C 36.5 33.398438 36.398438 33.5 36.25 33.5 Z M 15.199219 33.5 L 14.75 33.5 C 14.601562 33.5 14.5 33.398438 14.5 33.25 C 14.5 33.101562 14.601562 33 14.75 33 L 15.199219 33 C 15.351562 33 15.449219 33.101562 15.449219 33.25 C 15.449219 33.398438 15.351562 33.5 15.199219 33.5 Z M 15.199219 33.5 "/>
<path style=" stroke:none;fill-rule:nonzero;fill:rgb(99.215686%,49.019608%,61.56863%);fill-opacity:1;" d="M 33.25 17.5 L 13.75 17.5 C 13.601562 17.5 13.5 17.398438 13.5 17.25 C 13.5 17.101562 13.601562 17 13.75 17 L 33.25 17 C 33.398438 17 33.5 17.101562 33.5 17.25 C 33.5 17.398438 33.398438 17.5 33.25 17.5 Z M 33.25 17.5 "/>
<path style=" stroke:none;fill-rule:nonzero;fill:rgb(99.215686%,49.019608%,61.56863%);fill-opacity:1;" d="M 35.25 17.5 L 34.800781 17.5 C 34.648438 17.5 34.550781 17.398438 34.550781 17.25 C 34.550781 17.101562 34.648438 17 34.800781 17 L 35.25 17 C 35.398438 17 35.5 17.101562 35.5 17.25 C 35.5 17.398438 35.398438 17.5 35.25 17.5 Z M 35.25 17.5 "/>
<path style=" stroke:none;fill-rule:nonzero;fill:rgb(99.215686%,49.019608%,61.56863%);fill-opacity:1;" d="M 33.449219 25.5 L 31.75 25.5 C 31.601562 25.5 31.5 25.398438 31.5 25.25 C 31.5 25.101562 31.601562 25 31.75 25 L 33.449219 25 C 33.601562 25 33.699219 25.101562 33.699219 25.25 C 33.699219 25.398438 33.601562 25.5 33.449219 25.5 Z M 33.449219 25.5 "/>
</g>
</svg>
